<?xml version="1.0" encoding="UTF-8" standalone="no"?>
<svg
   width="316.37979pt"
   height="181.26746pt"
   viewBox="0 0 316.37979 181.26746"
   version="1.1"
   id="svg108"
   sodipodi:docname="GaussianCurvature.svg"
   inkscape:version="1.2.2 (732a01da63, 2022-12-09)"
   xmlns:inkscape="http://www.inkscape.org/namespaces/inkscape"
   xmlns:sodipodi="http://sodipodi.sourceforge.net/DTD/sodipodi-0.dtd"
   xmlns:xlink="http://www.w3.org/1999/xlink"
   xmlns="http://www.w3.org/2000/svg"
   xmlns:svg="http://www.w3.org/2000/svg"
   xmlns:rdf="http://www.w3.org/1999/02/22-rdf-syntax-ns#"
   xmlns:cc="http://creativecommons.org/ns#"
   xmlns:dc="http://purl.org/dc/elements/1.1/">
  <sodipodi:namedview
     id="namedview110"
     pagecolor="#ffffff"
     bordercolor="#666666"
     borderopacity="1.0"
     inkscape:showpageshadow="2"
     inkscape:pageopacity="0.0"
     inkscape:pagecheckerboard="0"
     inkscape:deskcolor="#d1d1d1"
     inkscape:document-units="pt"
     showgrid="false"
     inkscape:zoom="1.7829861"
     inkscape:cx="74.593963"
     inkscape:cy="117.77994"
     inkscape:window-width="3840"
     inkscape:window-height="2066"
     inkscape:window-x="-11"
     inkscape:window-y="-11"
     inkscape:window-maximized="1"
     inkscape:current-layer="figure_1" />
  <metadata
     id="metadata2">
    <rdf:RDF>
      <cc:Work>
        <dc:type
           rdf:resource="http://purl.org/dc/dcmitype/StillImage" />
        <dc:date>2024-02-04T01:42:32.735491</dc:date>
        <dc:format>image/svg+xml</dc:format>
        <dc:creator>
          <cc:Agent>
            <dc:title>Matplotlib v3.7.0, https://matplotlib.org/</dc:title>
          </cc:Agent>
        </dc:creator>
      </cc:Work>
    </rdf:RDF>
  </metadata>
  <defs
     id="defs6">
    <style
       type="text/css"
       id="style4">*{stroke-linejoin: round; stroke-linecap: butt}</style>
  </defs>
  <g
     id="figure_1"
     transform="translate(-60.807263,-127.7211)">
    <g
       id="axes_1">
      <g
         id="Line3DCollection_1">
        <path
           d="m 61.488945,231.89763 2.049186,2.3488 2.047675,2.31142 2.046227,2.2741 2.044838,2.23683 2.043508,2.19964 2.04224,2.1625 2.04103,2.12543 2.039881,2.08839 2.03879,2.05143 2.037761,2.01451 2.036791,1.97763 2.03588,1.94081 2.035029,1.90404 2.034237,1.86729 2.033506,1.8306 2.032833,1.79394 2.03222,1.75732 2.031667,1.72073 2.031176,1.68417 2.03074,1.64765 2.03036,1.61115 2.03005,1.57467 2.0298,1.53822 2.0296,1.5018 2.02946,1.46538 2.02939,1.429 2.02937,1.39261 2.02942,1.35625 2.02952,1.31989 2.02968,1.28355 2.02991,1.2472 2.03019,1.21087 2.03054,1.17454 2.03094,1.1382 2.0314,1.10186 2.03193,1.06553 2.03252,1.02917 2.03317,0.99282 2.03387,0.95645 2.03465,0.92007 2.03547,0.88367 2.03637,0.84726 2.03732,0.81083 2.03834,0.77437 2.03941,0.73789 2.04055,0.70138 2.04176,0.66486 2.04302,0.62828 2.04434,0.59169 2.04573,0.55506 2.04719,0.51838 2.0487,0.48168 2.05028,0.44492 2.05192,0.40813 2.05363,0.37128 2.0554,0.33439 2.05724,0.29745 2.05913,0.26045 2.0611,0.2234 2.06313,0.18629 2.06522,0.14911 2.06738,0.11189 2.06961,0.0746 2.07191,0.0372 2.07426,-2.2e-4 2.07669,-0.0377 2.07918,-0.0753 2.08174,-0.11298 2.08438,-0.15072 2.08706,-0.18855 2.08984,-0.22645 2.09267,-0.26445 2.09558,-0.30255 2.09854,-0.34072 2.1016,-0.37899 2.1047,-0.41737 2.1079,-0.45584 2.11115,-0.49442 2.11447,-0.53309 2.11788,-0.57189 2.12135,-0.61079 2.1249,-0.64981 2.12851,-0.68894 2.13221,-0.72818 2.13598,-0.76757 2.13982,-0.80705 2.14374,-0.84669 2.14773,-0.88644 2.1518,-0.92633 2.15595,-0.96636 2.16017,-1.00652 2.16448,-1.04683 2.16886,-1.08729 2.17332,-1.12788 2.17786,-1.16864 2.18248,-1.20955 2.18718,-1.25062 2.19196,-1.29184 2.19683,-1.33323"
           clip-path="url(#p293d5ad935)"
           style="fill:none;stroke:#000000;stroke-width:1.5"
           id="path14" />
        <path
           d="m 68.944304,216.20224 2.044476,2.34329 2.043043,2.30584 2.04167,2.26845 2.040356,2.23112 2.039103,2.19385 2.037909,2.15665 2.036775,2.1195 2.0357,2.08241 2.034684,2.04537 2.033729,2.00838 2.032833,1.97143 2.031995,1.93455 2.031218,1.89769 2.0305,1.86088 2.029841,1.82412 2.029244,1.78739 2.0287,1.75069 2.02822,1.71403 2.0278,1.67741 2.02744,1.6408 2.02713,1.60424 2.02689,1.56768 2.02671,1.53116 2.02659,1.49466 2.02652,1.45818 2.02651,1.4217 2.02657,1.38526 2.02668,1.34881 2.02686,1.31238 2.02709,1.27596 2.02739,1.23955 2.02774,1.20313 2.02815,1.16672 2.02863,1.13031 2.02917,1.09389 2.02976,1.05748 2.03041,1.02104 2.03113,0.98462 2.03191,0.94817 2.03275,0.91171 2.03365,0.87523 2.03461,0.83874 2.03563,0.80223 2.03671,0.76569 2.03786,0.72913 2.03907,0.69255 2.04033,0.65593 2.04167,0.61928 2.04307,0.58261 2.04452,0.54589 2.04604,0.50913 2.04762,0.47235 2.04927,0.43551 2.05098,0.39863 2.05275,0.3617 2.0546,0.32473 2.05649,0.2877 2.05846,0.25062 2.06049,0.21348 2.06259,0.17629 2.06476,0.13903 2.06697,0.10171 2.06928,0.0643 2.07163,0.0269 2.07406,-0.0106 2.07655,-0.0482 2.07911,-0.0859 2.08175,-0.12367 2.08443,-0.1615 2.0872,-0.19942 2.09004,-0.23741 2.09293,-0.2755 2.09591,-0.31367 2.09895,-0.35194 2.10205,-0.39031 2.10524,-0.42877 2.10849,-0.46733 2.11182,-0.506 2.11521,-0.54477 2.11867,-0.58366 2.12222,-0.62264 2.12583,-0.66176 2.12951,-0.70097 2.13328,-0.74032 2.13711,-0.77979 2.14102,-0.81937 2.145,-0.8591 2.14907,-0.89895 2.1532,-0.93893 2.15742,-0.97904 2.16171,-1.01932 2.16608,-1.05971 2.17052,-1.10026 2.17506,-1.14096 2.17966,-1.18181 2.18435,-1.22281 2.18912,-1.26398 2.19397,-1.3053 2.1989,-1.34678"
           clip-path="url(#p293d5ad935)"
           style="fill:none;stroke:#000000;stroke-width:1.5"
           id="path16" />
        <path
           d="m 76.411462,201.8064 2.039139,2.33707 2.037782,2.29957 2.036486,2.26214 2.035248,2.22476 2.034069,2.18746 2.032952,2.15021 2.031891,2.11302 2.030892,2.07587 2.029951,2.0388 2.029069,2.00176 2.028246,1.96477 2.027483,1.92783 2.02678,1.89094 2.02613,1.85408 2.02555,1.81727 2.02502,1.78049 2.02456,1.74375 2.02414,1.70705 2.0238,1.67036 2.0235,1.63372 2.02327,1.5971 2.02311,1.5605 2.02299,1.52393 2.02293,1.48738 2.02294,1.45084 2.02301,1.41433 2.02313,1.37782 2.02331,1.34133 2.02356,1.30485 2.02387,1.26837 2.02422,1.23191 2.02465,1.19544 2.02513,1.15898 2.02568,1.12252 2.02628,1.08605 2.02694,1.04958 2.02767,1.0131 2.02845,0.97661 2.0293,0.94011 2.0302,0.9036 2.03117,0.86707 2.0322,0.83052 2.03329,0.79395 2.03444,0.75736 2.03565,0.72075 2.03692,0.6841 2.03827,0.64744 2.03966,0.61073 2.04112,0.574 2.04264,0.53723 2.04423,0.50041 2.04588,0.46357 2.04759,0.42668 2.04937,0.38973 2.05121,0.35276 2.05311,0.31572 2.05508,0.27863 2.05711,0.2415 2.05921,0.2043 2.06137,0.16705 2.06359,0.12973 2.06589,0.0924 2.06825,0.0549 2.07067,0.0174 2.07317,-0.0202 2.07572,-0.0578 2.07834,-0.0956 2.08104,-0.13339 2.0838,-0.17128 2.08663,-0.20925 2.08952,-0.24731 2.09249,-0.28546 2.09553,-0.3237 2.09863,-0.36202 2.1018,-0.40046 2.10505,-0.43897 2.10837,-0.47761 2.11175,-0.51633 2.11521,-0.55516 2.11875,-0.59411 2.12234,-0.63317 2.12603,-0.67233 2.12977,-0.71162 2.13359,-0.75103 2.1375,-0.79056 2.14146,-0.83021 2.14552,-0.86999 2.14964,-0.90991 2.15384,-0.94995 2.15812,-0.99014 2.16247,-1.03047 2.16691,-1.07093 2.17142,-1.11154 2.17601,-1.15231 2.18068,-1.19322 2.18543,-1.23429 2.19027,-1.27552 2.19518,-1.3169 2.20017,-1.35846"
           clip-path="url(#p293d5ad935)"
           style="fill:none;stroke:#000000;stroke-width:1.5"
           id="path18" />
        <path
           d="m 83.883212,188.71362 2.033184,2.33014 2.031904,2.29262 2.030683,2.25518 2.029521,2.21778 2.028419,2.18046 2.027375,2.14319 2.026391,2.10598 2.025461,2.06882 2.0246,2.03172 2.02379,1.99466 2.02304,1.95765 2.02236,1.92069 2.02172,1.88378 2.02114,1.8469 2.02064,1.81006 2.02018,1.77327 2.01978,1.7365 2.01945,1.69977 2.01916,1.66306 2.01895,1.6264 2.01879,1.58976 2.01869,1.55313 2.01864,1.51653 2.01866,1.47996 2.01874,1.4434 2.01887,1.40686 2.01906,1.37032 2.01932,1.33381 2.01963,1.2973 2.02,1.26081 2.02044,1.2243 2.02092,1.18782 2.02148,1.15132 2.02209,1.11483 2.02276,1.07834 2.02348,1.04184 2.02428,1.00533 2.02513,0.96882 2.02605,0.93228 2.02701,0.89575 2.02805,0.85918 2.02914,0.82261 2.0303,0.78601 2.03152,0.74939 2.03279,0.71275 2.03413,0.67607 2.03553,0.63937 2.037,0.60264 2.03852,0.56587 2.04011,0.52908 2.04176,0.49223 2.04347,0.45534 2.04525,0.41843 2.04709,0.38146 2.049,0.34444 2.05096,0.30737 2.05299,0.27026 2.05508,0.23309 2.05725,0.19586 2.05947,0.15857 2.06176,0.12122 2.06411,0.0838 2.06654,0.0463 2.06903,0.009 2.07157,-0.0288 2.0742,-0.0665 2.07688,-0.10428 2.07964,-0.14213 2.08246,-0.18005 2.08536,-0.21806 2.0883,-0.25615 2.09134,-0.29433 2.09443,-0.3326 2.0976,-0.37097 2.10084,-0.40943 2.10414,-0.44798 2.10751,-0.48665 2.11097,-0.5254 2.11448,-0.56428 2.11808,-0.60325 2.12174,-0.64235 2.12548,-0.68155 2.12928,-0.72086 2.13318,-0.76031 2.13712,-0.79987 2.14117,-0.83956 2.14527,-0.87938 2.14945,-0.91933 2.15372,-0.9594 2.15805,-0.99963 2.16247,-1.03998 2.16696,-1.08048 2.17153,-1.12114 2.17619,-1.16192 2.18091,-1.20288 2.18572,-1.24398 2.19062,-1.28523 2.19558,-1.32666 2.20065,-1.36825"
           clip-path="url(#p293d5ad935)"
           style="fill:none;stroke:#000000;stroke-width:1.5"
           id="path20" />
        <path
           d="m 91.352418,176.92488 2.026622,2.32252 2.025419,2.28501 2.024273,2.24758 2.023188,2.21018 2.02216,2.17287 2.02119,2.13561 2.02028,2.0984 2.01943,2.06124 2.01864,2.02415 2.0179,1.98709 2.01723,1.95009 2.01661,1.91314 2.01605,1.87622 2.01555,1.83934 2.01511,1.80251 2.01472,1.76572 2.01441,1.72895 2.01413,1.69222 2.01393,1.65552 2.01377,1.61885 2.01369,1.58221 2.01366,1.54559 2.01368,1.50899 2.01377,1.47241 2.01391,1.43585 2.01411,1.39931 2.01438,1.36277 2.0147,1.32626 2.01508,1.28975 2.01551,1.25324 2.01602,1.21675 2.01658,1.18025 2.01719,1.14376 2.01787,1.10726 2.0186,1.07077 2.01941,1.03426 2.02026,0.99776 2.02117,0.96123 2.02216,0.9247 2.02319,0.88815 2.02428,0.85159 2.02545,0.81501 2.02667,0.7784 2.02794,0.74178 2.02929,0.70513 2.03069,0.66845 2.03216,0.63175 2.03368,0.59501 2.03527,0.55823 2.03692,0.52143 2.03863,0.48458 2.04041,0.4477 2.04225,0.41076 2.04415,0.37379 2.04611,0.33677 2.04815,0.29969 2.05023,0.26257 2.05239,0.2254 2.05461,0.18816 2.0569,0.15086 2.05925,0.11351 2.06166,0.0761 2.06414,0.0386 2.06669,10e-4 2.06931,-0.0366 2.07198,-0.0743 2.07473,-0.11204 2.07755,-0.14988 2.08042,-0.18782 2.08338,-0.22583 2.08639,-0.26393 2.08947,-0.30212 2.09263,-0.34039 2.09586,-0.37877 2.09915,-0.41723 2.10251,-0.45579 2.10595,-0.49447 2.10946,-0.53323 2.11303,-0.5721 2.11667,-0.61109 2.12041,-0.65019 2.12419,-0.68939 2.12806,-0.72872 2.132,-0.76816 2.13602,-0.80774 2.14011,-0.84743 2.14427,-0.88724 2.14851,-0.9272 2.15283,-0.96729 2.15722,-1.00751 2.16169,-1.04787 2.16625,-1.08838 2.17086,-1.12903 2.17558,-1.16983 2.18036,-1.21077 2.18522,-1.25188 2.19017,-1.29315 2.1952,-1.33457 2.20031,-1.37616"
           clip-path="url(#p293d5ad935)"
           style="fill:none;stroke:#000000;stroke-width:1.5"
           id="path22" />
        <path
           d="m 98.812036,166.43868 2.019464,2.31423 2.01834,2.27676 2.01727,2.23934 2.01626,2.20199 2.0153,2.1647 2.01441,2.12747 2.01358,2.09029 2.0128,2.05317 2.01207,2.01609 2.01142,1.97907 2.01082,1.9421 2.01026,1.90516 2.00978,1.86828 2.00936,1.83143 2.00898,1.79462 2.00867,1.75785 2.00841,1.72112 2.00822,1.68441 2.00808,1.64773 2.00801,1.61109 2.00798,1.57447 2.00801,1.53787 2.00811,1.5013 2.00827,1.46474 2.00848,1.42821 2.00875,1.39169 2.00907,1.35517 2.00947,1.31868 2.00991,1.2822 2.01042,1.24571 2.01098,1.20923 2.01161,1.17277 2.01228,1.13629 2.01304,1.09982 2.01383,1.06334 2.01469,1.02686 2.01561,0.99036 2.0166,0.95387 2.01763,0.91736 2.01874,0.88082 2.0199,0.84429 2.02111,0.80772 2.0224,0.77114 2.02375,0.73454 2.02514,0.6979 2.02661,0.66125 2.02814,0.62456 2.02972,0.58784 2.03138,0.55108 2.03308,0.5143 2.03486,0.47747 2.03669,0.44061 2.03859,0.40369 2.04055,0.36674 2.04258,0.32973 2.04467,0.29268 2.04681,0.25558 2.04903,0.21841 2.05131,0.18121 2.05366,0.14392 2.05606,0.10659 2.05853,0.0692 2.06108,0.0317 2.06368,-0.006 2.06634,-0.0434 2.06909,-0.0811 2.07189,-0.11884 2.07476,-0.15666 2.07769,-0.19458 2.0807,-0.23258 2.08378,-0.27065 2.08691,-0.30882 2.09013,-0.34708 2.0934,-0.38542 2.09676,-0.42387 2.10017,-0.46242 2.10366,-0.50106 2.10722,-0.5398 2.11086,-0.57866 2.11455,-0.61762 2.11834,-0.6567 2.12217,-0.69588 2.1261,-0.73518 2.13009,-0.77461 2.13416,-0.81415 2.13831,-0.85382 2.14252,-0.89362 2.14681,-0.93354 2.15118,-0.97361 2.15563,-1.0138 2.16015,-1.05414 2.16475,-1.09462 2.16943,-1.13524 2.17418,-1.17602 2.17903,-1.21694 2.18394,-1.25801 2.18893,-1.29925 2.19401,-1.34065 2.19918,-1.3822"
           clip-path="url(#p293d5ad935)"
           style="fill:none;stroke:#000000;stroke-width:1.5"
           id="path24" />
        <path
           d="m 106.25514,157.2511 2.01172,2.30528 2.01068,2.26786 2.00968,2.23051 2.00875,2.1932 2.00786,2.15597 2.00705,2.11879 2.00629,2.08166 2.00557,2.0446 2.00494,2.00757 2.00434,1.97061 2.00382,1.93367 2.00334,1.8968 2.00292,1.85997 2.00257,1.82316 2.00226,1.78641 2.00202,1.74969 2.00184,1.713 2.00171,1.67634 2.00164,1.63972 2.00163,1.60311 2.00168,1.56655 2.00178,1.53 2.00195,1.49347 2.00216,1.45696 2.00244,1.42048 2.00278,1.384 2.00318,1.34753 2.00363,1.31109 2.00414,1.27465 2.00471,1.2382 2.00534,1.20178 2.00603,1.16536 2.00677,1.12892 2.00758,1.0925 2.00845,1.05606 2.00937,1.01963 2.01035,0.98318 2.01139,0.94672 2.0125,0.91026 2.01366,0.87377 2.01488,0.83728 2.01617,0.80075 2.0175,0.76422 2.01891,0.72766 2.02038,0.69107 2.02189,0.65445 2.02349,0.61782 2.02513,0.58113 2.02683,0.54443 2.02861,0.50768 2.03044,0.4709 2.03233,0.43408 2.03429,0.39721 2.03631,0.36029 2.03839,0.32334 2.04053,0.28633 2.04274,0.24927 2.04502,0.21215 2.04734,0.17498 2.04975,0.13775 2.05221,0.10047 2.05474,0.0631 2.05734,0.0257 2.05999,-0.0118 2.06272,-0.0494 2.0655,-0.087 2.06837,-0.1247 2.07129,-0.16248 2.07428,-0.20035 2.07734,-0.23829 2.08046,-0.27632 2.08366,-0.31445 2.08692,-0.35266 2.09025,-0.39095 2.09366,-0.42936 2.09712,-0.46785 2.10066,-0.50645 2.10428,-0.54514 2.10796,-0.58395 2.11171,-0.62286 2.11553,-0.66188 2.11944,-0.70102 2.1234,-0.74027 2.12745,-0.77965 2.13156,-0.81913 2.13576,-0.85875 2.14002,-0.8985 2.14436,-0.93837 2.14878,-0.97838 2.15328,-1.01852 2.15784,-1.05881 2.1625,-1.09922 2.16721,-1.1398 2.17203,-1.18051 2.1769,-1.22137 2.18187,-1.2624 2.18691,-1.30357 2.19204,-1.3449 2.19724,-1.38641"
           clip-path="url(#p293d5ad935)"
           style="fill:none;stroke:#000000;stroke-width:1.5"
           id="path26" />
        <path
           d="m 113.67492,149.35584 2.00342,2.29568 2.00245,2.25835 2.00152,2.22106 2.00067,2.18385 1.99985,2.14668 1.99912,2.10959 1.99842,2.07254 1.99779,2.03554 1.99722,1.9986 1.99669,1.9617 1.99624,1.92485 1.99584,1.88805 1.99549,1.85129 1.9952,1.81456 1.99497,1.77788 1.9948,1.74123 1.99468,1.70461 1.99462,1.66804 1.99462,1.63147 1.99468,1.59495 1.99479,1.55845 1.99496,1.52197 1.99519,1.48552 1.99547,1.44908 1.99582,1.41266 1.99622,1.37625 1.99669,1.33986 1.9972,1.30348 1.99777,1.26711 1.99841,1.23074 1.9991,1.19438 1.99985,1.15803 2.00066,1.12166 2.00153,1.08531 2.00245,1.04894 2.00344,1.01257 2.00449,0.97619 2.00558,0.93981 2.00675,0.9034 2.00798,0.86699 2.00925,0.83056 2.01059,0.79411 2.012,0.75764 2.01346,0.72114 2.01498,0.68463 2.01656,0.64808 2.0182,0.6115 2.01991,0.5749 2.02167,0.53825 2.0235,0.50158 2.02539,0.46486 2.02734,0.42811 2.02935,0.39131 2.03142,0.35446 2.03356,0.31758 2.03575,0.28063 2.03802,0.24364 2.04035,0.2066 2.04273,0.1695 2.04519,0.13233 2.0477,0.0951 2.05028,0.0578 2.05294,0.0205 2.05564,-0.0169 2.05841,-0.0544 2.06126,-0.092 2.06417,-0.12962 2.06715,-0.16733 2.07018,-0.20513 2.07329,-0.243 2.07647,-0.28096 2.07971,-0.31901 2.08303,-0.35715 2.0864,-0.39537 2.08986,-0.4337 2.09337,-0.47211 2.09696,-0.51064 2.10062,-0.54926 2.10435,-0.58799 2.10815,-0.62682 2.11202,-0.66577 2.11597,-0.70482 2.11998,-0.744 2.12407,-0.78329 2.12824,-0.82271 2.13247,-0.86224 2.13678,-0.90191 2.14117,-0.9417 2.14563,-0.98162 2.15017,-1.02168 2.15478,-1.06188 2.15948,-1.10223 2.16424,-1.1427 2.16909,-1.18333 2.17402,-1.22411 2.17902,-1.26504 2.18411,-1.30613 2.18927,-1.34738 2.19452,-1.38878"
           clip-path="url(#p293d5ad935)"
           style="fill:none;stroke:#000000;stroke-width:1.5"
           id="path28" />
        <path
           d="m 121.06475,142.74425 1.99456,2.28547 1.99366,2.24822 1.99281,2.21105 1.99203,2.17393 1.99129,2.13687 1.99062,2.09987 1.99001,2.06292 1.98944,2.02603 1.98894,1.98918 1.98849,1.95238 1.9881,1.91563 1.98777,1.87893 1.9875,1.84226 1.98727,1.80563 1.98711,1.76904 1.98701,1.73249 1.98695,1.69597 1.98697,1.65949 1.98703,1.62302 1.98715,1.58659 1.98733,1.55019 1.98757,1.5138 1.98786,1.47744 1.98821,1.44109 1.98862,1.40477 1.98909,1.36846 1.9896,1.33215 1.99019,1.29587 1.99083,1.25959 1.99152,1.22332 1.99228,1.18704 1.99309,1.15078 1.99395,1.11451 1.99489,1.07825 1.99587,1.04197 1.99692,1.00569 1.99802,0.96941 1.99918,0.93311 2.0004,0.8968 2.00168,0.86048 2.00303,0.82413 2.00442,0.78778 2.00588,0.7514 2.00739,0.715 2.00898,0.67857 2.01061,0.64211 2.01231,0.60563 2.01407,0.56912 2.01589,0.53257 2.01777,0.49598 2.01971,0.45935 2.02171,0.42269 2.02378,0.38599 2.02591,0.34924 2.02809,0.31243 2.03035,0.2756 2.03266,0.23869 2.03503,0.20174 2.03748,0.16473 2.03998,0.12766 2.04254,0.0905 2.04518,0.0533 2.04788,0.0161 2.05063,-0.0212 2.05346,-0.0586 2.05635,-0.0961 2.0593,-0.13362 2.06233,-0.17124 2.06542,-0.20894 2.06857,-0.24671 2.0718,-0.28458 2.07508,-0.32252 2.07845,-0.36056 2.08187,-0.39869 2.08536,-0.43691 2.08893,-0.47523 2.09256,-0.51364 2.09626,-0.55218 2.10004,-0.59079 2.10389,-0.62953 2.10779,-0.66836 2.11179,-0.70733 2.11584,-0.74639 2.11998,-0.78557 2.12418,-0.82488 2.12846,-0.86432 2.13281,-0.90386 2.13724,-0.94355 2.14174,-0.98337 2.14631,-1.02331 2.15098,-1.0634 2.1557,-1.10363 2.16051,-1.14399 2.1654,-1.18451 2.17036,-1.22518 2.1754,-1.26598 2.18053,-1.30696 2.18573,-1.34809 2.19101,-1.38937"
           clip-path="url(#p293d5ad935)"
           style="fill:none;stroke:#000000;stroke-width:1.5"
           id="path30" />
        <path
           d="m 128.41813,137.40549 1.98517,2.27463 1.98433,2.23752 1.98357,2.20047 1.98285,2.16347 1.98219,2.12654 1.98158,2.08965 1.98105,2.05284 1.98055,2.01605 1.98012,1.97934 1.97974,1.94266 1.97942,1.90602 1.97915,1.86944 1.97895,1.83289 1.9788,1.79639 1.9787,1.75992 1.97866,1.72348 1.97868,1.68708 1.97875,1.6507 1.97889,1.61437 1.97907,1.57805 1.97931,1.54176 1.97961,1.5055 1.97998,1.46924 1.98038,1.43302 1.98086,1.39681 1.98138,1.36061 1.98197,1.32443 1.98261,1.28826 1.9833,1.25208 1.98407,1.21593 1.98488,1.17978 1.98575,1.14362 1.98667,1.10747 1.98767,1.07132 1.98871,1.03516 1.98981,0.99899 1.99097,0.96282 1.99219,0.92664 1.99347,0.89045 1.99481,0.85423 1.99619,0.81801 1.99766,0.78176 1.99916,0.7455 2.00074,0.70921 2.00237,0.6729 2.00406,0.63656 2.00582,0.60019 2.00762,0.56378 2.0095,0.52735 2.01143,0.49089 2.01342,0.45437 2.01548,0.41783 2.01759,0.38123 2.01977,0.3446 2.02201,0.30792 2.0243,0.27119 2.02668,0.2344 2.02909,0.19757 2.03159,0.16068 2.03413,0.12374 2.03676,0.0867 2.03943,0.0496 2.04217,0.0125 2.04498,-0.0247 2.04785,-0.062 2.05078,-0.0993 2.05379,-0.13672 2.05686,-0.17421 2.05999,-0.21179 2.06318,-0.24945 2.06646,-0.28718 2.06979,-0.325 2.07319,-0.36292 2.07665,-0.40092 2.0802,-0.43902 2.0838,-0.47721 2.08747,-0.51551 2.09122,-0.5539 2.09503,-0.59239 2.09892,-0.63099 2.10287,-0.66971 2.1069,-0.70853 2.111,-0.74747 2.11517,-0.78652 2.11941,-0.82569 2.12372,-0.86499 2.12812,-0.90441 2.13258,-0.94395 2.13711,-0.98363 2.14174,-1.02344 2.14642,-1.06339 2.15119,-1.10348 2.15603,-1.1437 2.16095,-1.18408 2.16594,-1.22459 2.17103,-1.26527 2.17618,-1.30608 2.18142,-1.34707 2.18673,-1.38821"
           clip-path="url(#p293d5ad935)"
           style="fill:none;stroke:#000000;stroke-width:1.5"
           id="path32" />
        <path
           d="m 135.72879,133.32653 1.97525,2.26321 1.97449,2.22624 1.97379,2.18934 1.97315,2.15249 1.97256,2.1157 1.97202,2.07896 1.97156,2.04229 1.97113,2.00565 1.97077,1.96907 1.97046,1.93254 1.9702,1.89605 1.97001,1.85961 1.96987,1.8232 1.96979,1.78683 1.96975,1.75051 1.96978,1.71421 1.96986,1.67795 1.97001,1.64171 1.97019,1.60552 1.97045,1.56933 1.97075,1.53319 1.97112,1.49706 1.97153,1.46094 1.97201,1.42486 1.97254,1.38879 1.97313,1.35272 1.97378,1.31668 1.97447,1.28064 1.97523,1.24461 1.97605,1.20859 1.97692,1.17258 1.97785,1.13655 1.97884,1.10054 1.97987,1.06452 1.98098,1.02851 1.98214,0.99247 1.98335,0.95643 1.98463,0.92039 1.98596,0.88434 1.98735,0.84825 1.9888,0.81217 1.9903,0.77606 1.99187,0.73993 1.9935,0.70379 1.99518,0.6676 1.99692,0.6314 1.99872,0.59517 2.00059,0.5589 2.00251,0.52261 2.00449,0.48627 2.00653,0.44991 2.00864,0.4135 2.01079,0.37704 2.01303,0.34055 2.01531,0.304 2.01766,0.26741 2.02006,0.23078 2.02254,0.19407 2.02508,0.15733 2.02767,0.12052 2.03033,0.0837 2.03305,0.0467 2.03584,0.01 2.03869,-0.0273 2.0416,-0.0645 2.04458,-0.10166 2.04763,-0.13893 2.05074,-0.17627 2.0539,-0.21371 2.05716,-0.25121 2.06045,-0.28881 2.06383,-0.32648 2.06728,-0.36424 2.07078,-0.4021 2.07435,-0.44004 2.078,-0.47809 2.08171,-0.51623 2.08549,-0.55446 2.08935,-0.59281 2.09326,-0.63126 2.09726,-0.66981 2.10132,-0.70848 2.10545,-0.74726 2.10965,-0.78615 2.11394,-0.82517 2.11828,-0.8643 2.12271,-0.90356 2.1272,-0.94294 2.13178,-0.98246 2.13642,-1.02211 2.14114,-1.06188 2.14594,-1.1018 2.15081,-1.14187 2.15576,-1.18206 2.16079,-1.22241 2.1659,-1.26291 2.17108,-1.30356 2.17634,-1.34436 2.18169,-1.38533"
           clip-path="url(#p293d5ad935)"
           style="fill:none;stroke:#000000;stroke-width:1.5"
           id="path34" />
        <path
           d="m 142.99063,130.49227 1.96482,2.25121 1.96414,2.21442 1.96351,2.17768 1.96294,2.141 1.96242,2.10438 1.96196,2.06781 1.96156,2.03129 1.9612,1.99483 1.9609,1.95841 1.96067,1.92205 1.96047,1.88572 1.96035,1.84943 1.96027,1.81319 1.96025,1.77699 1.96029,1.74082 1.96038,1.70469 1.96052,1.66859 1.96073,1.63251 1.96098,1.59648 1.96129,1.56046 1.96167,1.52446 1.96208,1.4885 1.96257,1.45255 1.9631,1.41661 1.96369,1.3807 1.96434,1.3448 1.96504,1.30891 1.9658,1.27304 1.96662,1.23716 1.96749,1.2013 1.96841,1.16544 1.9694,1.12958 1.97044,1.09372 1.97155,1.05786 1.97269,1.022 1.97391,0.98613 1.97518,0.95025 1.9765,0.91436 1.97789,0.87846 1.97933,0.84254 1.98083,0.80661 1.98239,0.77067 1.98401,0.73469 1.98568,0.6987 1.98741,0.66268 1.9892,0.62664 1.99106,0.59056 1.99297,0.55446 1.99493,0.51832 1.99697,0.48215 1.99905,0.44594 2.00121,0.40969 2.00341,0.3734 2.00568,0.33707 2.00802,0.30068 2.01041,0.26426 2.01286,0.22777 2.01537,0.19125 2.01795,0.15466 2.0206,0.11801 2.02329,0.0813 2.02606,0.0445 2.02888,0.008 2.03178,-0.0292 2.03473,-0.0661 2.03775,-0.10317 2.04083,-0.14027 2.04398,-0.17745 2.0472,-0.21471 2.05047,-0.25205 2.05382,-0.28946 2.05722,-0.32697 2.06071,-0.36457 2.06424,-0.40224 2.06786,-0.44001 2.07154,-0.47788 2.07528,-0.51585 2.0791,-0.55391 2.08299,-0.59207 2.08693,-0.63034 2.09097,-0.66871 2.09505,-0.70721 2.09922,-0.74579 2.10346,-0.78451 2.10776,-0.82334 2.11215,-0.86229 2.1166,-0.90136 2.12112,-0.94055 2.12572,-0.97988 2.1304,-1.01934 2.13514,-1.05892 2.13997,-1.09865 2.14487,-1.13851 2.14984,-1.17852 2.1549,-1.21867 2.16003,-1.25897 2.16523,-1.29941 2.17053,-1.34002 2.17589,-1.38078"
           clip-path="url(#p293d5ad935)"
           style="fill:none;stroke:#000000;stroke-width:1.5"
           id="path36" />
        <path
           d="m 150.19777,128.88565 1.95391,2.23867 1.9533,2.20206 1.95275,2.16552 1.95224,2.12902 1.95179,2.09259 1.9514,2.0562 1.95106,2.01988 1.95077,1.9836 1.95055,1.94736 1.95037,1.91119 1.95025,1.87504 1.95018,1.83894 1.95017,1.80288 1.95022,1.76686 1.95032,1.73088 1.95046,1.69493 1.95068,1.659 1.95094,1.62312 1.95126,1.58725 1.95163,1.55142 1.95206,1.51561 1.95254,1.47982 1.95308,1.44405 1.95367,1.4083 1.95432,1.37256 1.95503,1.33685 1.95578,1.30113 1.9566,1.26543 1.95748,1.22974 1.95839,1.19406 1.95939,1.15837 1.96042,1.1227 1.96151,1.08701 1.96267,1.05133 1.96387,1.01565 1.96514,0.97996 1.96646,0.94425 1.96784,0.90855 1.96927,0.87282 1.97076,0.83709 1.97231,0.80134 1.97392,0.76556 1.97559,0.72978 1.97731,0.69396 1.97908,0.65812 1.98093,0.62226 1.98282,0.58636 1.98478,0.55044 1.9868,0.51449 1.98887,0.47849 1.991,0.44247 1.9932,0.4064 1.99545,0.37029 1.99776,0.33414 2.00013,0.29794 2.00257,0.26169 2.00506,0.2254 2.00762,0.18906 2.01024,0.15265 2.01292,0.1162 2.01565,0.0797 2.01846,0.0431 2.02133,0.006 2.02425,-0.0302 2.02725,-0.067 2.0303,-0.10386 2.03342,-0.14077 2.03661,-0.17776 2.03985,-0.21482 2.04316,-0.25197 2.04655,-0.28919 2.04999,-0.32651 2.0535,-0.36389 2.05707,-0.40139 2.06072,-0.43896 2.06443,-0.47662 2.0682,-0.51439 2.07205,-0.55225 2.07597,-0.59022 2.07995,-0.62828 2.084,-0.66645 2.08813,-0.70473 2.09231,-0.74312 2.09658,-0.78163 2.10092,-0.82024 2.10532,-0.85899 2.1098,-0.89784 2.11435,-0.93683 2.11898,-0.97594 2.12367,-1.01517 2.12844,-1.05455 2.13329,-1.09406 2.13822,-1.1337 2.1432,-1.17348 2.14829,-1.21341 2.15344,-1.25348 2.15866,-1.29371 2.16397,-1.33408 2.16936,-1.37461"
           clip-path="url(#p293d5ad935)"
           style="fill:none;stroke:#000000;stroke-width:1.5"
           id="path38" />
        <path
           d="m 157.34456,128.48775 1.94254,2.22559 1.94199,2.1892 1.9415,2.15286 1.94107,2.11657 1.94069,2.08034 1.94036,2.04418 1.94009,2.00805 1.93987,1.97197 1.93971,1.93595 1.93959,1.89997 1.93954,1.86404 1.93954,1.82814 1.93959,1.79228 1.93969,1.75646 1.93986,1.72069 1.94007,1.68493 1.94034,1.64921 1.94066,1.61353 1.94104,1.57787 1.94147,1.54223 1.94196,1.50662 1.9425,1.47103 1.94309,1.43547 1.94374,1.39991 1.94445,1.36437 1.94521,1.32885 1.94602,1.29334 1.94689,1.25785 1.94782,1.22234 1.94879,1.18687 1.94983,1.15138 1.95093,1.11589 1.95206,1.08042 1.95328,1.04494 1.95452,1.00944 1.95585,0.97396 1.95721,0.93845 1.95864,0.90295 1.96012,0.86742 1.96167,0.83188 1.96326,0.79633 1.96491,0.76076 1.96662,0.72516 1.9684,0.68956 1.97021,0.65392 1.9721,0.61825 1.97405,0.58256 1.97604,0.54684 1.9781,0.51108 1.98021,0.4753 1.98239,0.43947 1.98463,0.4036 1.98692,0.3677 1.98927,0.33175 1.99169,0.29576 1.99415,0.25972 1.9967,0.22362 1.99928,0.18749 2.00194,0.1513 2.00466,0.11504 2.00743,0.0787 2.01028,0.0424 2.01317,0.006 2.01614,-0.0306 2.01916,-0.0671 2.02225,-0.10375 2.02541,-0.14045 2.02862,-0.17723 2.0319,-0.21408 2.03525,-0.251 2.03865,-0.28802 2.04213,-0.32511 2.04567,-0.36229 2.04928,-0.39955 2.05295,-0.43691 2.05668,-0.47435 2.06049,-0.5119 2.06437,-0.54953 2.0683,-0.58727 2.07232,-0.62511 2.07639,-0.66306 2.08054,-0.70111 2.08476,-0.73926 2.08904,-0.77755 2.0934,-0.81592 2.09783,-0.85444 2.10233,-0.89306 2.1069,-0.9318 2.11154,-0.97068 2.11627,-1.00967 2.12105,-1.04881 2.12592,-1.08807 2.13086,-1.12747 2.13588,-1.167 2.14096,-1.20669 2.14614,-1.24651 2.15138,-1.28648 2.1567,-1.3266 2.16209,-1.36687"
           clip-path="url(#p293d5ad935)"
           style="fill:none;stroke:#000000;stroke-width:1.5"
           id="path40" />
        <path
           d="m 164.42559,129.27787 1.93071,2.21201 1.93023,2.17584 1.92981,2.13973 1.92944,2.10367 1.92913,2.06767 1.92887,2.03173 1.92866,1.99583 1.9285,1.95998 1.92841,1.92418 1.92836,1.88842 1.92836,1.85271 1.92843,1.81704 1.92854,1.7814 1.9287,1.74581 1.92893,1.71025 1.9292,1.67472 1.92953,1.63922 1.92991,1.60376 1.93034,1.56832 1.93083,1.5329 1.93138,1.49751 1.93197,1.46214 1.93262,1.42678 1.93333,1.39146 1.93409,1.35614 1.93489,1.32083 1.93577,1.28555 1.93669,1.25026 1.93767,1.21499 1.93869,1.17971 1.93979,1.14446 1.94092,1.10919 1.94212,1.07392 1.94337,1.03867 1.94468,1.00339 1.94604,0.96812 1.94745,0.93284 1.94893,0.89754 1.95046,0.86224 1.95205,0.82693 1.95368,0.79158 1.95538,0.75624 1.95714,0.72087 1.95895,0.68547 1.96082,0.65005 1.96274,0.61461 1.96473,0.57914 1.96677,0.54364 1.96886,0.5081 1.97102,0.47254 1.97324,0.43693 1.97551,0.40129 1.97784,0.36561 1.98023,0.32989 1.98268,0.29412 1.98519,0.2583 1.98776,0.22244 1.99039,0.18652 1.99308,0.15056 1.99583,0.11453 1.99864,0.0785 2.00151,0.0423 2.00445,0.006 2.00744,-0.0301 2.0105,-0.0665 2.01362,-0.10287 2.0168,-0.13935 2.02005,-0.17588 2.02335,-0.2125 2.02673,-0.2492 2.03017,-0.28596 2.03366,-0.32282 2.03724,-0.35976 2.04086,-0.39679 2.04457,-0.43389 2.04832,-0.4711 2.05216,-0.5084 2.05605,-0.54579 2.06002,-0.58328 2.06405,-0.62088 2.06814,-0.65857 2.07232,-0.69637 2.07655,-0.73427 2.08086,-0.7723 2.08524,-0.81043 2.08968,-0.84868 2.0942,-0.88705 2.0988,-0.92553 2.10345,-0.96414 2.10818,-1.00288 2.113,-1.04175 2.11787,-1.08074 2.12283,-1.11987 2.12785,-1.15915 2.13296,-1.19854 2.13814,-1.2381 2.14339,-1.2778 2.14873,-1.31763 2.15413,-1.35763"
           clip-path="url(#p293d5ad935)"
           style="fill:none;stroke:#000000;stroke-width:1.5"
           id="path42" />
        <path
           d="m 171.43569,131.23369 1.91845,2.19793 1.91803,2.16202 1.91769,2.12614 1.91738,2.09034 1.91713,2.05459 1.91693,2.01888 1.9168,1.98323 1.9167,1.94763 1.91666,1.91207 1.91668,1.87655 1.91674,1.84109 1.91687,1.80565 1.91703,1.77026 1.91727,1.73491 1.91754,1.69958 1.91788,1.6643 1.91826,1.62904 1.91869,1.59381 1.91919,1.55861 1.91974,1.52343 1.92033,1.48828 1.92098,1.45315 1.92168,1.41804 1.92245,1.38294 1.92325,1.34786 1.92412,1.31279 1.92504,1.27774 1.92601,1.24269 1.92703,1.20765 1.92812,1.17263 1.92925,1.13759 1.93044,1.10257 1.93169,1.06755 1.93298,1.03251 1.93434,0.99748 1.93574,0.96245 1.9372,0.9274 1.93873,0.89235 1.94029,0.85727 1.94193,0.8222 1.94361,0.7871 1.94535,0.75199 1.94714,0.71685 1.949,0.6817 1.9509,0.64652 1.95287,0.61132 1.9549,0.57608 1.95697,0.54083 1.95911,0.50553 1.9613,0.47021 1.96355,0.43484 1.96586,0.39944 1.96823,0.36401 1.97066,0.32852 1.97314,0.293 1.97568,0.25743 1.97829,0.22181 1.98094,0.18614 1.98367,0.15042 1.98645,0.11465 1.9893,0.0788 1.99219,0.0429 1.99516,0.007 1.99818,-0.029 2.00127,-0.0651 2.00441,-0.10126 2.00763,-0.13748 2.01089,-0.17377 2.01424,-0.21012 2.01763,-0.24656 2.02109,-0.28308 2.02462,-0.31967 2.0282,-0.35635 2.03187,-0.39311 2.03558,-0.42996 2.03936,-0.4669 2.04322,-0.50394 2.04713,-0.54106 2.05112,-0.57828 2.05517,-0.61561 2.05928,-0.65304 2.06347,-0.69056 2.06773,-0.7282 2.07204,-0.76594 2.07644,-0.8038 2.0809,-0.84177 2.08544,-0.87985 2.09004,-0.91806 2.09471,-0.95639 2.09945,-0.99484 2.10428,-1.03342 2.10916,-1.07212 2.11413,-1.11097 2.11917,-1.14994 2.12428,-1.18906 2.12946,-1.2283 2.13473,-1.26771 2.14007,-1.30725 2.14548,-1.34693"
           clip-path="url(#p293d5ad935)"
           style="fill:none;stroke:#000000;stroke-width:1.5"
           id="path44" />
        <path
           d="m 178.36995,134.33133 1.90577,2.1834 1.90543,2.14774 1.90514,2.11213 1.9049,2.0766 1.90472,2.0411 1.90458,2.00566 1.9045,1.97027 1.90447,1.93493 1.9045,1.89964 1.90457,1.86438 1.90469,1.82917 1.90488,1.79399 1.90511,1.75887 1.90539,1.72377 1.90572,1.6887 1.90612,1.65367 1.90655,1.61868 1.90705,1.5837 1.90759,1.54876 1.90819,1.51383 1.90884,1.47894 1.90954,1.44406 1.9103,1.40921 1.91111,1.37437 1.91197,1.33953 1.91288,1.30473 1.91386,1.26993 1.91487,1.23514 1.91595,1.20035 1.91707,1.16558 1.91826,1.1308 1.91949,1.09603 1.92078,1.06126 1.92212,1.02649 1.92352,0.99171 1.92497,0.95693 1.92648,0.92213 1.92804,0.88734 1.92965,0.85253 1.93132,0.8177 1.93304,0.78286 1.93483,0.748 1.93666,0.71312 1.93855,0.67823 1.9405,0.6433 1.9425,0.60836 1.94456,0.57339 1.94667,0.53838 1.94885,0.50335 1.95107,0.46828 1.95336,0.43319 1.95571,0.39804 1.9581,0.36286 1.96056,0.32765 1.96308,0.29238 1.96565,0.25707 1.96828,0.22173 1.97098,0.18631 1.97373,0.15086 1.97653,0.11536 1.97941,0.0798 1.98234,0.0442 1.98532,0.008 1.98838,-0.0273 1.99149,-0.0631 1.99466,-0.0989 1.99789,-0.13488 2.00119,-0.1709 2.00455,-0.20698 2.00796,-0.24314 2.01145,-0.27938 2.015,-0.31569 2.01861,-0.3521 2.02228,-0.38857 2.02602,-0.42515 2.02982,-0.4618 2.03369,-0.49855 2.03762,-0.53538 2.04162,-0.57233 2.04569,-0.60936 2.04982,-0.64649 2.05403,-0.68373 2.05828,-0.72107 2.06263,-0.75852 2.06703,-0.79608 2.0715,-0.83375 2.07604,-0.87154 2.08066,-0.90944 2.08534,-0.94746 2.09009,-0.98561 2.09492,-1.02388 2.09982,-1.06227 2.10478,-1.10081 2.10983,-1.13946 2.11495,-1.17827 2.12014,-1.21719 2.1254,-1.25628 2.13074,-1.29549 2.13616,-1.33486"
           clip-path="url(#p293d5ad935)"
           style="fill:none;stroke:#000000;stroke-width:1.5"
           id="path46" />
        <path
           d="m 181.80717,136.30049 1.89929,2.17596 1.89897,2.14044 1.89872,2.10498 1.89852,2.06957 1.89835,2.03422 1.89826,1.99891 1.8982,1.96367 1.89821,1.92846 1.89825,1.8933 1.89836,1.85818 1.89852,1.8231 1.89873,1.78808 1.89898,1.75307 1.8993,1.71811 1.89966,1.68319 1.90007,1.64829 1.90055,1.61343 1.90106,1.57858 1.90163,1.54378 1.90226,1.50899 1.90294,1.47423 1.90366,1.43949 1.90444,1.40476 1.90528,1.37006 1.90616,1.33536 1.9071,1.30069 1.9081,1.26602 1.90914,1.23137 1.91023,1.19671 1.91139,1.16207 1.91259,1.12743 1.91385,1.0928 1.91515,1.05815 1.91653,1.02352 1.91794,0.98887 1.91941,0.95423 1.92094,0.91956 1.92252,0.88491 1.92415,0.85022 1.92584,0.81553 1.92759,0.78083 1.92939,0.7461 1.93124,0.71137 1.93315,0.6766 1.93511,0.64181 1.93713,0.607 1.93921,0.57217 1.94134,0.53729 1.94353,0.5024 1.94578,0.46747 1.94808,0.43251 1.95043,0.3975 1.95286,0.36246 1.95532,0.32738 1.95786,0.29225 1.96044,0.25709 1.96309,0.22187 1.9658,0.18661 1.96856,0.15129 1.97139,0.11592 1.97427,0.0805 1.97721,0.045 1.98021,0.009 1.98327,-0.0261 1.9864,-0.0618 1.98958,-0.0975 1.99283,-0.13332 1.99613,-0.16919 1.9995,-0.20513 2.00293,-0.24115 2.00642,-0.27724 2.00998,-0.31341 2.0136,-0.34966 2.01727,-0.38599 2.02103,-0.42242 2.02484,-0.45892 2.02871,-0.49553 2.03265,-0.53221 2.03666,-0.569 2.04073,-0.60587 2.04487,-0.64287 2.04908,-0.67994 2.05335,-0.71713 2.05769,-0.75442 2.06209,-0.79183 2.06658,-0.82934 2.07112,-0.86697 2.07574,-0.90472 2.08042,-0.94257 2.08518,-0.98057 2.09001,-1.01867 2.09491,-1.0569 2.09988,-1.09528 2.10492,-1.13376 2.11004,-1.1724 2.11523,-1.21117 2.1205,-1.25007 2.12584,-1.28913 2.13125,-1.32832"
           clip-path="url(#p293d5ad935)"
           style="fill:none;stroke:#000000;stroke-width:1.5"
           id="path48" />
        <path
           d="m 61.488945,231.89763 1.241433,-2.70592 1.241929,-2.66995 1.24239,-2.63395 1.242819,-2.59793 1.243213,-2.56186 1.243575,-2.52578 1.243902,-2.48968 1.244197,-2.45355 1.244457,-2.41741 1.244684,-2.38125 1.244879,-2.34507 1.245039,-2.30888 1.245166,-2.27268 1.245261,-2.23646 1.245322,-2.20025 1.245349,-2.16403 1.245345,-2.12779 1.245307,-2.09157 1.245236,-2.05534 1.245132,-2.01911 1.244996,-1.98289 1.244826,-1.94667 1.244625,-1.91047 1.244391,-1.87426 1.244124,-1.83808 1.243826,-1.80191 1.243494,-1.76574 1.243131,-1.72961 1.242735,-1.69348 1.242308,-1.65738 1.241854,-1.6213 1.24135,-1.58525 1.24084,-1.54923 1.24028,-1.51322 1.2397,-1.47726 1.23908,-1.44132 1.23843,-1.40541 1.23775,-1.36955 1.23704,-1.33372 1.23631,-1.29793 1.23553,-1.26218 1.23472,-1.22647 1.2339,-1.19081 1.23303,-1.1552 1.23214,-1.11962 1.23121,-1.0841 1.23027,-1.04864 1.22928,-1.01322 1.22826,-0.97786 1.22723,-0.94255 1.22615,-0.90731 1.22506,-0.87212 1.22392,-0.83699 1.22276,-0.80193 1.22158,-0.76693 1.22036,-0.732 1.21912,-0.69713 1.21784,-0.66234 1.21655,-0.62761 1.21521,-0.59295 1.21386,-0.55838 1.21247,-0.52388 1.21107,-0.48944 1.20962,-0.4551 1.20816,-0.42083 1.20666,-0.38663 1.20514,-0.35254 1.2036,-0.31851 1.20203,-0.28458 1.20042,-0.25073 1.1988,-0.21696 1.19715,-0.1833 1.19547,-0.14972 1.19377,-0.11623 1.19204,-0.0828 1.19029,-0.0495 1.18851,-0.0163 1.18671,0.0168 1.18488,0.0498 1.18303,0.0827 1.18116,0.11547 1.17925,0.14818 1.17733,0.18077 1.17538,0.21326 1.17341,0.24564 1.17142,0.27792 1.1694,0.31009 1.16736,0.34215 1.1653,0.37409 1.16321,0.40593 1.16111,0.43764 1.15897,0.46925 1.15683,0.50075 1.15465,0.53212 1.15246,0.56337 1.15024,0.59451 1.14801,0.62553 1.14574,0.65643 1.14347,0.6872"
           clip-path="url(#p293d5ad935)"
           style="fill:none;stroke:#000000;stroke-width:1.5"
           id="path50" />
        <path
           d="m 73.762619,245.43092 1.237177,-2.71132 1.237567,-2.67547 1.237924,-2.63958 1.238246,-2.60366 1.238536,-2.56771 1.238792,-2.53174 1.239016,-2.49574 1.239205,-2.45972 1.239362,-2.42369 1.239485,-2.38764 1.239576,-2.35156 1.239633,-2.31548 1.239657,-2.27939 1.239649,-2.24328 1.239607,-2.20717 1.239534,-2.17105 1.239426,-2.13493 1.239287,-2.0988 1.239115,-2.06268 1.23891,-2.02656 1.238673,-1.99043 1.238404,-1.95433 1.2381,-1.91822 1.23777,-1.88212 1.2374,-1.84604 1.23701,-1.80997 1.23657,-1.77391 1.23612,-1.73786 1.23562,-1.70185 1.23509,-1.66585 1.23454,-1.62987 1.23395,-1.59392 1.23334,-1.55798 1.23268,-1.52209 1.232,-1.48622 1.23129,-1.45038 1.23055,-1.41458 1.22977,-1.3788 1.22897,-1.34307 1.22813,-1.30738 1.22727,-1.27172 1.22638,-1.23611 1.22545,-1.20054 1.22449,-1.16502 1.22351,-1.12955 1.22249,-1.09412 1.22145,-1.05874 1.22038,-1.02342 1.21928,-0.98815 1.21814,-0.95294 1.21698,-0.91778 1.2158,-0.88269 1.21457,-0.84765 1.21333,-0.81268 1.21206,-0.77776 1.21075,-0.74293 1.20942,-0.70814 1.20807,-0.67344 1.20667,-0.6388 1.20526,-0.60423 1.20383,-0.56974 1.20235,-0.53532 1.20086,-0.50098 1.19933,-0.46671 1.19779,-0.43253 1.19621,-0.39842 1.19461,-0.3644 1.19299,-0.33047 1.19133,-0.29661 1.18965,-0.26284 1.18794,-0.22916 1.18622,-0.19558 1.18446,-0.16207 1.18267,-0.12867 1.18088,-0.0953 1.17904,-0.0621 1.17719,-0.029 1.17531,0.004 1.17341,0.0369 1.17148,0.0698 1.16953,0.1025 1.16755,0.13512 1.16556,0.16764 1.16354,0.20006 1.16149,0.23237 1.15943,0.26457 1.15734,0.29667 1.15523,0.32865 1.15309,0.36052 1.15094,0.39229 1.14877,0.42394 1.14656,0.45548 1.14435,0.4869 1.14211,0.5182 1.13984,0.54939 1.13756,0.58046 1.13526,0.61142 1.13294,0.64224 1.13059,0.67295"
           clip-path="url(#p293d5ad935)"
           style="fill:none;stroke:#000000;stroke-width:1.5"
           id="path52" />
        <path
           d="m 85.992752,257.62912 1.233371,-2.71721 1.233656,-2.68143 1.233906,-2.64563 1.234124,-2.6098 1.234308,-2.57393 1.23446,-2.53804 1.234579,-2.50214 1.234664,-2.46619 1.234716,-2.43025 1.234736,-2.39427 1.234722,-2.35828 1.234676,-2.32229 1.2346,-2.28627 1.23448,-2.25025 1.23435,-2.21421 1.23416,-2.17818 1.23396,-2.14214 1.23372,-2.1061 1.23344,-2.07005 1.23313,-2.034 1.2328,-1.99797 1.23243,-1.96194 1.23203,-1.9259 1.23159,-1.88989 1.23113,-1.85388 1.23063,-1.81789 1.2301,-1.78191 1.22954,-1.74595 1.22895,-1.71 1.22832,-1.67408 1.22768,-1.63817 1.22698,-1.6023 1.22627,-1.56645 1.22553,-1.53062 1.22475,-1.49482 1.22394,-1.45907 1.2231,-1.42333 1.22223,-1.38763 1.22133,-1.35197 1.22041,-1.31636 1.21944,-1.28077 1.21846,-1.24523 1.21744,-1.20973 1.21639,-1.17428 1.21531,-1.13888 1.21421,-1.10353 1.21307,-1.06822 1.2119,-1.03296 1.21072,-0.99777 1.20949,-0.96262 1.20824,-0.92754 1.20696,-0.8925 1.20565,-0.85754 1.20432,-0.82264 1.20296,-0.78779 1.20157,-0.75301 1.20014,-0.71831 1.1987,-0.68366 1.19723,-0.64908 1.19573,-0.61459 1.19421,-0.58016 1.19265,-0.5458 1.19106,-0.51153 1.18947,-0.47732 1.18783,-0.44321 1.18617,-0.40916 1.18449,-0.3752 1.18278,-0.34133 1.18104,-0.30753 1.17928,-0.27383 1.17749,-0.24021 1.17569,-0.20668 1.17385,-0.17324 1.17199,-0.1399 1.1701,-0.10663 1.1682,-0.0735 1.16626,-0.0404 1.16431,-0.007 1.16233,0.0254 1.16032,0.0582 1.1583,0.0909 1.15624,0.12343 1.15418,0.1559 1.15208,0.18826 1.14996,0.22051 1.14783,0.25266 1.14566,0.28471 1.14348,0.31663 1.14127,0.34846 1.13905,0.38016 1.1368,0.41176 1.13453,0.44325 1.13224,0.47462 1.12993,0.50587 1.1276,0.53701 1.12525,0.56802 1.12288,0.59893 1.12049,0.62971 1.11808,0.66038"
           clip-path="url(#p293d5ad935)"
           style="fill:none;stroke:#000000;stroke-width:1.5"
           id="path54" />
        <path
           d="m 98.192244,268.50304 1.230007,-2.72358 1.230189,-2.68787 1.23033,-2.65211 1.23044,-2.61635 1.23052,-2.58054 1.23057,-2.54471 1.23058,-2.50885 1.23056,-2.47299 1.23052,-2.43708 1.23042,-2.40118 1.23031,-2.36524 1.23016,-2.3293 1.22998,-2.29335 1.22976,-2.25738 1.22952,-2.22141 1.22923,-2.18542 1.22893,-2.14944 1.22858,-2.11345 1.2282,-2.07747 1.2278,-2.04148 1.22736,-2.00549 1.22689,-1.96951 1.22638,-1.93354 1.22585,-1.89758 1.22528,-1.86163 1.22469,-1.82568 1.22406,-1.78976 1.2234,-1.75385 1.22271,-1.71796 1.22198,-1.68208 1.22124,-1.64624 1.22045,-1.61041 1.21964,-1.57461 1.21879,-1.53884 1.21792,-1.50309 1.21701,-1.46738 1.21608,-1.4317 1.21512,-1.39605 1.21412,-1.36045 1.21309,-1.32487 1.21204,-1.28934 1.21096,-1.25384 1.20985,-1.21841 1.2087,-1.183 1.20753,-1.14764 1.20634,-1.11233 1.2051,-1.07708 1.20385,-1.04187 1.20256,-1.00672 1.20125,-0.97163 1.19991,-0.93658 1.19854,-0.9016 1.19714,-0.86668 1.19571,-0.83182 1.19426,-0.79702 1.19279,-0.76229 1.19128,-0.72762 1.18974,-0.69302 1.18818,-0.6585 1.1866,-0.62404 1.18498,-0.58965 1.18334,-0.55535 1.18167,-0.5211 1.17999,-0.48695 1.17826,-0.45287 1.17653,-0.41888 1.17475,-0.38495 1.17296,-0.35112 1.17114,-0.31737 1.1693,-0.2837 1.16743,-0.25012 1.16554,-0.21664 1.16362,-0.18324 1.16168,-0.14993 1.15971,-0.11671 1.15773,-0.0836 1.15571,-0.0506 1.15368,-0.0176 1.15162,0.0152 1.14954,0.0479 1.14743,0.0806 1.14531,0.11309 1.14316,0.14552 1.14099,0.17784 1.13879,0.21006 1.13658,0.24217 1.13434,0.27418 1.13209,0.30607 1.12981,0.33786 1.1275,0.36953 1.12519,0.4011 1.12285,0.43254 1.12048,0.46388 1.11811,0.4951 1.1157,0.52621 1.11329,0.55719 1.11084,0.58806 1.10838,0.61881 1.10591,0.64943"
           clip-path="url(#p293d5ad935)"
           style="fill:none;stroke:#000000;stroke-width:1.5"
           id="path56" />
        <path
           d="m 110.37397,278.0607 1.22708,-2.73044 1.22714,-2.69477 1.22719,-2.65905 1.2272,-2.62331 1.22717,-2.58755 1.22711,-2.55175 1.22701,-2.51593 1.2269,-2.48009 1.22674,-2.44423 1.22654,-2.40835 1.22633,-2.37246 1.22607,-2.33654 1.22579,-2.30062 1.22546,-2.26469 1.22512,-2.22875 1.22473,-2.1928 1.22432,-2.15685 1.22387,-2.12089 1.2234,-2.08493 1.22288,-2.04898 1.22234,-2.01302 1.22177,-1.97708 1.22117,-1.94113 1.22053,-1.9052 1.21986,-1.86928 1.21916,-1.83337 1.21844,-1.79747 1.21767,-1.76159 1.21689,-1.72573 1.21606,-1.68989 1.21521,-1.65406 1.21433,-1.61827 1.21342,-1.58249 1.21247,-1.54675 1.2115,-1.51104 1.2105,-1.47535 1.20947,-1.43969 1.2084,-1.40408 1.20732,-1.36849 1.20619,-1.33294 1.20504,-1.29745 1.20386,-1.26197 1.20266,-1.22656 1.20142,-1.19118 1.20015,-1.15584 1.19886,-1.12057 1.19753,-1.08533 1.19619,-1.05016 1.19481,-1.01502 1.1934,-0.97996 1.19197,-0.94493 1.1905,-0.90998 1.18902,-0.87508 1.1875,-0.84025 1.18596,-0.80547 1.18439,-0.77076 1.18279,-0.73612 1.18116,-0.70154 1.17952,-0.66704 1.17784,-0.6326 1.17614,-0.59824 1.17441,-0.56395 1.17266,-0.52974 1.17088,-0.4956 1.16907,-0.46154 1.16725,-0.42757 1.16539,-0.39367 1.16351,-0.35985 1.16161,-0.32613 1.15968,-0.29248 1.15773,-0.25892 1.15575,-0.22546 1.15375,-0.19207 1.15173,-0.15879 1.14968,-0.1256 1.14761,-0.0925 1.14552,-0.0595 1.1434,-0.0266 1.14126,0.006 1.13911,0.039 1.13691,0.0716 1.13472,0.10408 1.13248,0.13649 1.13024,0.16879 1.12797,0.20099 1.12567,0.23309 1.12336,0.26507 1.12103,0.29696 1.11868,0.32872 1.1163,0.36038 1.1139,0.39192 1.11149,0.42336 1.10906,0.45467 1.1066,0.48588 1.10413,0.51697 1.10164,0.54794 1.09913,0.57878 1.09659,0.60952 1.09405,0.64014"
           clip-path="url(#p293d5ad935)"
           style="fill:none;stroke:#000000;stroke-width:1.5"
           id="path58" />
        <path
           d="m 122.55081,286.30738 1.22458,-2.73782 1.22454,-2.70214 1.22447,-2.66645 1.22438,-2.63071 1.22424,-2.59496 1.22407,-2.55918 1.22388,-2.52336 1.22365,-2.48754 1.22339,-2.45168 1.22309,-2.41581 1.22276,-2.37993 1.22241,-2.34403 1.22201,-2.30811 1.22159,-2.27218 1.22114,-2.23626 1.22065,-2.20031 1.22012,-2.16437 1.21958,-2.12841 1.219,-2.09247 1.21839,-2.05652 1.21774,-2.02057 1.21706,-1.98464 1.21636,-1.94869 1.21561,-1.91277 1.21485,-1.87685 1.21405,-1.84095 1.21322,-1.80506 1.21236,-1.76918 1.21146,-1.73332 1.21055,-1.69749 1.20959,-1.66167 1.20861,-1.62588 1.20759,-1.59011 1.20656,-1.55437 1.20548,-1.51866 1.20438,-1.48298 1.20325,-1.44732 1.20209,-1.41171 1.2009,-1.37613 1.19968,-1.34059 1.19843,-1.30509 1.19716,-1.26963 1.19585,-1.2342 1.19452,-1.19884 1.19316,-1.1635 1.19177,-1.12823 1.19035,-1.09299 1.1889,-1.05782 1.18743,-1.0227 1.18593,-0.98762 1.18441,-0.95261 1.18285,-0.91765 1.18126,-0.88275 1.17966,-0.84793 1.17802,-0.81314 1.17636,-0.77844 1.17467,-0.7438 1.17296,-0.70923 1.17121,-0.67472 1.16945,-0.64029 1.16766,-0.60592 1.16584,-0.57164 1.164,-0.53742 1.16213,-0.50329 1.16024,-0.46924 1.15832,-0.43525 1.15637,-0.40136 1.15442,-0.36754 1.15242,-0.33382 1.15041,-0.30017 1.14837,-0.26662 1.1463,-0.23314 1.14423,-0.19977 1.14211,-0.16648 1.13999,-0.13328 1.13783,-0.10018 1.13566,-0.0672 1.13345,-0.0343 1.13124,-10e-4 1.12899,0.0313 1.12673,0.0639 1.12444,0.0964 1.12214,0.1288 1.1198,0.1611 1.11746,0.19331 1.11509,0.2254 1.11269,0.25738 1.11029,0.28927 1.10785,0.32104 1.1054,0.35269 1.10293,0.38424 1.10044,0.41567 1.09794,0.44699 1.0954,0.4782 1.09285,0.50928 1.09029,0.54026 1.08771,0.57111 1.0851,0.60184 1.08248,0.63245"
           clip-path="url(#p293d5ad935)"
           style="fill:none;stroke:#000000;stroke-width:1.5"
           id="path60" />
        <path
           d="m 134.73572,293.24558 1.2225,-2.74571 1.22236,-2.71002 1.22218,-2.6743 1.22197,-2.63857 1.22173,-2.60279 1.22147,-2.56699 1.22115,-2.53117 1.22082,-2.49533 1.22045,-2.45946 1.22005,-2.42357 1.21962,-2.38767 1.21915,-2.35175 1.21866,-2.31582 1.21812,-2.27988 1.21757,-2.24394 1.21697,-2.20797 1.21635,-2.17201 1.21569,-2.13605 1.21501,-2.10008 1.21429,-2.06411 1.21354,-2.02815 1.21276,-1.99219 1.21195,-1.95623 1.21111,-1.9203 1.21023,-1.88435 1.20933,-1.84843 1.2084,-1.81253 1.20743,-1.77663 1.20644,-1.74075 1.20542,-1.7049 1.20436,-1.66907 1.20328,-1.63325 1.20216,-1.59746 1.20102,-1.56171 1.19985,-1.52597 1.19865,-1.49027 1.19741,-1.4546 1.19616,-1.41897 1.19486,-1.38337 1.19355,-1.34781 1.1922,-1.31228 1.19082,-1.2768 1.18943,-1.24137 1.18799,-1.20597 1.18653,-1.17062 1.18505,-1.13532 1.18353,-1.10007 1.18199,-1.06488 1.18042,-1.02973 1.17882,-0.99463 1.1772,-0.95961 1.17555,-0.92462 1.17387,-0.88971 1.17217,-0.85486 1.17044,-0.82006 1.16868,-0.78533 1.1669,-0.75067 1.1651,-0.71608 1.16326,-0.68155 1.1614,-0.6471 1.15952,-0.61272 1.15761,-0.57841 1.15568,-0.54417 1.15371,-0.51002 1.15174,-0.47594 1.14973,-0.44194 1.1477,-0.40803 1.14564,-0.37419 1.14356,-0.34045 1.14146,-0.30678 1.13934,-0.2732 1.13719,-0.23971 1.13502,-0.20632 1.13282,-0.173 1.1306,-0.1398 1.12837,-0.10667 1.12611,-0.0736 1.12382,-0.0407 1.12151,-0.008 1.1192,0.0249 1.11684,0.0575 1.11447,0.09 1.11209,0.12245 1.10968,0.15477 1.10724,0.18699 1.10479,0.21911 1.10233,0.25111 1.09983,0.28301 1.09732,0.3148 1.09479,0.34647 1.09224,0.37804 1.08967,0.40949 1.08709,0.44083 1.08448,0.47205 1.08186,0.50315 1.07921,0.53415 1.07656,0.56501 1.07388,0.59577 1.07118,0.6264"
           clip-path="url(#p293d5ad935)"
           style="fill:none;stroke:#000000;stroke-width:1.5"
           id="path62" />
        <path
           d="m 146.94177,298.87502 1.22084,-2.75412 1.22058,-2.7184 1.22031,-2.68265 1.21998,-2.64687 1.21965,-2.61105 1.21926,-2.57522 1.21884,-2.53936 1.21841,-2.50346 1.21792,-2.46757 1.21742,-2.43163 1.21688,-2.3957 1.2163,-2.35973 1.2157,-2.32377 1.21507,-2.28778 1.21439,-2.2518 1.2137,-2.21579 1.21297,-2.17979 1.2122,-2.14378 1.21142,-2.10777 1.21059,-2.07177 1.20973,-2.03576 1.20885,-1.99976 1.20793,-1.96376 1.20699,-1.92777 1.20601,-1.8918 1.205,-1.85583 1.20396,-1.81988 1.2029,-1.78395 1.2018,-1.74802 1.20066,-1.71213 1.19952,-1.67625 1.19832,-1.64039 1.19711,-1.60456 1.19586,-1.56876 1.19458,-1.53299 1.19329,-1.49724 1.19195,-1.46152 1.19058,-1.42585 1.1892,-1.39021 1.18778,-1.3546 1.18633,-1.31904 1.18485,-1.28351 1.18336,-1.24803 1.18182,-1.21259 1.18026,-1.17721 1.17868,-1.14186 1.17706,-1.10656 1.17543,-1.07133 1.17375,-1.03613 1.17206,-1.001 1.17034,-0.96593 1.1686,-0.9309 1.16682,-0.89595 1.16502,-0.86105 1.16319,-0.82621 1.16134,-0.79144 1.15947,-0.75674 1.15756,-0.7221 1.15564,-0.68753 1.15368,-0.65304 1.15171,-0.61861 1.1497,-0.58426 1.14768,-0.54999 1.14563,-0.51579 1.14355,-0.48167 1.14145,-0.44763 1.13933,-0.41368 1.13719,-0.3798 1.13501,-0.34601 1.13282,-0.3123 1.13061,-0.27869 1.12837,-0.24516 1.12611,-0.21172 1.12383,-0.17837 1.12153,-0.14511 1.11919,-0.11196 1.11685,-0.0789 1.11448,-0.0459 1.11209,-0.013 1.10967,0.0197 1.10725,0.0524 1.10479,0.085 1.10231,0.11743 1.09982,0.1498 1.09731,0.18206 1.09478,0.2142 1.09222,0.24625 1.08964,0.27819 1.08706,0.31001 1.08445,0.34172 1.08181,0.37332 1.07917,0.40481 1.0765,0.43619 1.07381,0.46744 1.07112,0.49859 1.06839,0.52961 1.06566,0.56051 1.0629,0.5913 1.06013,0.62196"
           clip-path="url(#p293d5ad935)"
           style="fill:none;stroke:#000000;stroke-width:1.5"
           id="path64" />
        <path
           d="m 159.18217,303.19263 1.21959,-2.76308 1.21923,-2.72729 1.21884,-2.69148 1.21841,-2.65564 1.21796,-2.61976 1.21746,-2.58386 1.21695,-2.54793 1.21639,-2.51198 1.2158,-2.47601 1.21519,-2.44001 1.21454,-2.40401 1.21386,-2.36799 1.21314,-2.33195 1.2124,-2.2959 1.21162,-2.25984 1.21082,-2.22378 1.20998,-2.1877 1.20911,-2.15164 1.20821,-2.11556 1.20728,-2.07948 1.20631,-2.04341 1.20532,-2.00735 1.20431,-1.97128 1.20324,-1.93522 1.20216,-1.89918 1.20105,-1.86315 1.1999,-1.82713 1.19873,-1.79113 1.19753,-1.75514 1.19629,-1.71917 1.19503,-1.68323 1.19374,-1.64731 1.19242,-1.61141 1.19106,-1.57553 1.18969,-1.5397 1.18828,-1.50389 1.18684,-1.4681 1.18537,-1.43236 1.18389,-1.39665 1.18236,-1.36098 1.18081,-1.32535 1.17923,-1.28975 1.17763,-1.25421 1.176,-1.2187 1.17433,-1.18325 1.17265,-1.14783 1.17094,-1.11248 1.16919,-1.07717 1.16743,-1.04191 1.16563,-1.00672 1.16381,-0.97157 1.16196,-0.93649 1.1601,-0.90146 1.15819,-0.8665 1.15627,-0.8316 1.15432,-0.79676 1.15235,-0.76199 1.15035,-0.7273 1.14832,-0.69266 1.14628,-0.6581 1.1442,-0.62361 1.1421,-0.5892 1.13999,-0.55486 1.13783,-0.5206 1.13567,-0.48642 1.13348,-0.45232 1.13126,-0.4183 1.12902,-0.38436 1.12675,-0.35051 1.12448,-0.31674 1.12217,-0.28306 1.11983,-0.24948 1.11749,-0.21597 1.11511,-0.18256 1.11272,-0.14925 1.11031,-0.11603 1.10786,-0.0829 1.10541,-0.0499 1.10292,-0.017 1.10043,0.0159 1.09791,0.0486 1.09536,0.0812 1.09281,0.11377 1.09023,0.14619 1.08762,0.1785 1.08501,0.21071 1.08237,0.24281 1.07971,0.2748 1.07704,0.30668 1.07434,0.33845 1.07163,0.3701 1.0689,0.40165 1.06615,0.43307 1.06338,0.46439 1.0606,0.49558 1.0578,0.52665 1.05499,0.55762 1.05215,0.58845 1.04929,0.61916"
           clip-path="url(#p293d5ad935)"
           style="fill:none;stroke:#000000;stroke-width:1.5"
           id="path66" />
        <path
           d="m 171.47033,306.19249 1.21876,-2.7726 1.21829,-2.73672 1.21778,-2.70081 1.21725,-2.66488 1.21667,-2.62892 1.21608,-2.59292 1.21545,-2.55691 1.21478,-2.52086 1.21408,-2.4848 1.21335,-2.44873 1.2126,-2.41262 1.2118,-2.37651 1.21098,-2.34038 1.21013,-2.30424 1.20924,-2.26809 1.20832,-2.23193 1.20738,-2.19578 1.20639,-2.1596 1.20539,-2.12344 1.20434,-2.08728 1.20328,-2.05111 1.20217,-2.01495 1.20104,-1.97879 1.19988,-1.94265 1.19869,-1.90651 1.19746,-1.87039 1.19621,-1.83428 1.19493,-1.79818 1.19362,-1.7621 1.19227,-1.72604 1.19091,-1.69001 1.18951,-1.654 1.18808,-1.618 1.18662,-1.58204 1.18514,-1.54611 1.18362,-1.51021 1.18208,-1.47433 1.18051,-1.4385 1.17891,-1.4027 1.17728,-1.36693 1.17563,-1.33122 1.17395,-1.29553 1.17224,-1.25989 1.1705,-1.2243 1.16873,-1.18875 1.16695,-1.15325 1.16513,-1.1178 1.16329,-1.0824 1.16141,-1.04706 1.15953,-1.01178 1.15759,-0.97654 1.15565,-0.94136 1.15368,-0.90626 1.15168,-0.8712 1.14965,-0.83621 1.14761,-0.8013 1.14553,-0.76643 1.14343,-0.73165 1.14131,-0.69693 1.13916,-0.66228 1.13699,-0.62771 1.13479,-0.59322 1.13258,-0.55878 1.13033,-0.52445 1.12807,-0.49017 1.12577,-0.45599 1.12347,-0.42189 1.12113,-0.38787 1.11878,-0.35393 1.11639,-0.32008 1.114,-0.28632 1.11157,-0.25265 1.10912,-0.21907 1.10666,-0.18558 1.10418,-0.15219 1.10166,-0.11888 1.09914,-0.0857 1.09658,-0.0526 1.09402,-0.0196 1.09142,0.0134 1.08881,0.0462 1.08619,0.0789 1.08353,0.11146 1.08087,0.14396 1.07818,0.17635 1.07547,0.20863 1.07275,0.2408 1.07,0.27287 1.06724,0.30483 1.06446,0.33666 1.06166,0.3684 1.05885,0.4 1.05601,0.43151 1.05317,0.46289 1.0503,0.49416 1.04741,0.5253 1.04451,0.55632 1.0416,0.58724 1.03867,0.61802"
           clip-path="url(#p293d5ad935)"
           style="fill:none;stroke:#000000;stroke-width:1.5"
           id="path68" />
        <path
           d="m 183.81996,307.86575 1.21833,-2.78267 1.21775,-2.74669 1.21713,-2.71066 1.21648,-2.67462 1.21581,-2.63853 1.21508,-2.60242 1.21435,-2.56629 1.21356,-2.53014 1.21276,-2.49395 1.21192,-2.45776 1.21104,-2.42154 1.21014,-2.38531 1.2092,-2.34907 1.20824,-2.31281 1.20724,-2.27654 1.20621,-2.24027 1.20515,-2.20399 1.20406,-2.16771 1.20294,-2.13143 1.20178,-2.09514 1.20061,-2.05885 1.19939,-2.02258 1.19815,-1.98631 1.19687,-1.95005 1.19557,-1.91379 1.19424,-1.87755 1.19288,-1.84132 1.19148,-1.80511 1.19006,-1.76891 1.18862,-1.73274 1.18713,-1.69658 1.18562,-1.66046 1.18409,-1.62434 1.18252,-1.58827 1.18093,-1.55222 1.1793,-1.51621 1.17765,-1.48021 1.17598,-1.44426 1.17427,-1.40835 1.17253,-1.37247 1.17077,-1.33663 1.16899,-1.30083 1.16716,-1.26508 1.16533,-1.22937 1.16345,-1.19371 1.16156,-1.1581 1.15964,-1.12253 1.15769,-1.08703 1.15571,-1.05156 1.15371,-1.01617 1.15169,-0.98082 1.14963,-0.94554 1.14756,-0.91031 1.14545,-0.87515 1.14333,-0.84006 1.14118,-0.80501 1.139,-0.77006 1.1368,-0.73515 1.13457,-0.70033 1.13233,-0.66558 1.13005,-0.63089 1.12776,-0.59628 1.12544,-0.56176 1.12309,-0.5273 1.12073,-0.49293 1.11835,-0.45864 1.11593,-0.42443 1.1135,-0.3903 1.11105,-0.35627 1.10856,-0.32231 1.10607,-0.28845 1.10356,-0.25467 1.10101,-0.22099 1.09844,-0.1874 1.09587,-0.15391 1.09326,-0.1205 1.09064,-0.0872 1.088,-0.054 1.08533,-0.0209 1.08265,0.0121 1.07994,0.045 1.07723,0.0778 1.07448,0.11053 1.07172,0.14312 1.06894,0.17561 1.06615,0.20799 1.06333,0.24025 1.0605,0.27242 1.05765,0.30446 1.05477,0.33639 1.0519,0.36821 1.04899,0.39992 1.04607,0.43151 1.04313,0.46298 1.04018,0.49433 1.03721,0.52557 1.03423,0.55668 1.03123,0.58767 1.02821,0.61855"
           clip-path="url(#p293d5ad935)"
           style="fill:none;stroke:#000000;stroke-width:1.5"
           id="path70" />
        <path
           d="m 196.24503,308.20059 1.21831,-2.79333 1.21762,-2.75719 1.21689,-2.72104 1.21612,-2.68485 1.21532,-2.64862 1.2145,-2.61237 1.21364,-2.57609 1.21274,-2.5398 1.21182,-2.50347 1.21087,-2.46714 1.20988,-2.43077 1.20886,-2.3944 1.20781,-2.35802 1.20673,-2.32161 1.20561,-2.28521 1.20448,-2.24878 1.2033,-2.21237 1.20209,-2.17594 1.20086,-2.13951 1.19959,-2.10308 1.1983,-2.06666 1.19697,-2.03024 1.19561,-1.99382 1.19423,-1.95742 1.19281,-1.92102 1.19137,-1.88463 1.18989,-1.84827 1.18839,-1.8119 1.18685,-1.77557 1.18529,-1.73926 1.1837,-1.70295 1.18208,-1.66669 1.18042,-1.63043 1.17876,-1.59422 1.17704,-1.55802 1.17531,-1.52187 1.17356,-1.48574 1.17176,-1.44964 1.16994,-1.41359 1.1681,-1.37757 1.16623,-1.34159 1.16433,-1.30566 1.16241,-1.26976 1.16046,-1.23391 1.15847,-1.19812 1.15647,-1.16237 1.15444,-1.12666 1.15239,-1.09102 1.1503,-1.05542 1.14819,-1.01989 1.14606,-0.98441 1.1439,-0.94898 1.14172,-0.91363 1.13951,-0.87833 1.13728,-0.8431 1.13502,-0.80793 1.13274,-0.77283 1.13043,-0.7378 1.12811,-0.70284 1.12575,-0.66796 1.12338,-0.63314 1.12098,-0.5984 1.11855,-0.56375 1.11611,-0.52916 1.11365,-0.49467 1.11115,-0.46024 1.10864,-0.42591 1.10611,-0.39165 1.10355,-0.35749 1.10098,-0.32341 1.09838,-0.28942 1.09576,-0.25553 1.09312,-0.22171 1.09046,-0.188 1.08778,-0.15439 1.08508,-0.12086 1.08236,-0.0874 1.07961,-0.0541 1.07686,-0.0209 1.07408,0.0122 1.07128,0.0453 1.06846,0.0782 1.06562,0.11101 1.06278,0.14371 1.0599,0.17631 1.05701,0.2088 1.0541,0.24119 1.05117,0.27345 1.04824,0.30562 1.04527,0.33766 1.0423,0.36958 1.0393,0.40141 1.0363,0.4331 1.03327,0.46468 1.03023,0.49614 1.02717,0.52748 1.02409,0.5587 1.02101,0.5898 1.01791,0.62077"
           clip-path="url(#p293d5ad935)"
           style="fill:none;stroke:#000000;stroke-width:1.5"
           id="path72" />
        <path
           d="m 208.7599,307.18212 1.21871,-2.80458 1.21789,-2.76827 1.21704,-2.73195 1.21616,-2.69558 1.21525,-2.65919 1.2143,-2.62278 1.21333,-2.58632 1.21231,-2.54986 1.21128,-2.51337 1.2102,-2.47686 1.20909,-2.44033 1.20796,-2.40378 1.2068,-2.36723 1.2056,-2.33066 1.20436,-2.29408 1.20311,-2.25749 1.20182,-2.2209 1.20049,-2.1843 1.19914,-2.14771 1.19776,-2.1111 1.19635,-2.07452 1.19491,-2.03792 1.19343,-2.00134 1.19193,-1.96476 1.1904,-1.92819 1.18884,-1.89164 1.18725,-1.8551 1.18562,-1.81858 1.18398,-1.78207 1.1823,-1.74558 1.1806,-1.70912 1.17886,-1.67268 1.17709,-1.63626 1.17531,-1.59987 1.17348,-1.56352 1.17164,-1.52719 1.16976,-1.4909 1.16786,-1.45463 1.16593,-1.41842 1.16398,-1.38223 1.16199,-1.34608 1.15997,-1.30999 1.15794,-1.27393 1.15588,-1.23792 1.15379,-1.20196 1.15167,-1.16604 1.14953,-1.13018 1.14736,-1.09437 1.14517,-1.05861 1.14295,-1.02292 1.14071,-0.98728 1.13844,-0.95169 1.13615,-0.91618 1.13383,-0.88072 1.13149,-0.84533 1.12912,-0.81001 1.12673,-0.77475 1.12432,-0.73957 1.12189,-0.70445 1.11942,-0.66941 1.11695,-0.63444 1.11443,-0.59955 1.11191,-0.56474 1.10936,-0.53 1.10679,-0.49535 1.10419,-0.46078 1.10158,-0.4263 1.09894,-0.39189 1.09628,-0.35758 1.0936,-0.32336 1.0909,-0.28921 1.08818,-0.25518 1.08543,-0.22122 1.08268,-0.18736 1.07989,-0.1536 1.07709,-0.11993 1.07427,-0.0864 1.07143,-0.0529 1.06857,-0.0195 1.0657,0.0137 1.06279,0.0469 1.05988,0.08 1.05695,0.11291 1.05399,0.14575 1.05103,0.17848 1.04804,0.21111 1.04504,0.24363 1.04201,0.27603 1.03898,0.30832 1.03593,0.34049 1.03285,0.37256 1.02977,0.40449 1.02666,0.43633 1.02355,0.46802 1.02041,0.49962 1.01727,0.53108 1.0141,0.56242 1.01093,0.59364 1.00773,0.62474"
           clip-path="url(#p293d5ad935)"
           style="fill:none;stroke:#000000;stroke-width:1.5"
           id="path74" />
        <path
           d="m 221.37937,304.79223 1.2195,-2.81642 1.21857,-2.77992 1.2176,-2.7434 1.2166,-2.70685 1.21557,-2.67025 1.2145,-2.63364 1.2134,-2.597 1.21227,-2.56033 1.21112,-2.52364 1.20992,-2.48694 1.20869,-2.45021 1.20744,-2.41347 1.20616,-2.37671 1.20483,-2.33994 1.20349,-2.30317 1.20211,-2.26639 1.20069,-2.22959 1.19926,-2.1928 1.19778,-2.15601 1.19629,-2.11921 1.19475,-2.08242 1.19319,-2.04563 1.1916,-2.00885 1.18998,-1.97208 1.18832,-1.93531 1.18665,-1.89856 1.18494,-1.86183 1.1832,-1.82511 1.18143,-1.7884 1.17963,-1.75172 1.17782,-1.71507 1.17596,-1.67843 1.17408,-1.64181 1.17217,-1.60524 1.17023,-1.56869 1.16827,-1.53216 1.16628,-1.49568 1.16425,-1.45922 1.16222,-1.42282 1.16014,-1.38643 1.15804,-1.35011 1.15591,-1.31381 1.15376,-1.27756 1.15158,-1.24137 1.14938,-1.20521 1.14715,-1.16911 1.14488,-1.13306 1.14261,-1.09707 1.14031,-1.06112 1.13797,-1.02524 1.13561,-0.98941 1.13323,-0.95365 1.13083,-0.91794 1.1284,-0.88231 1.12595,-0.84673 1.12347,-0.81122 1.12096,-0.77579 1.11845,-0.74043 1.1159,-0.70512 1.11332,-0.66991 1.11074,-0.63476 1.10812,-0.5997 1.10548,-0.56471 1.10283,-0.52979 1.10014,-0.49497 1.09744,-0.46023 1.09472,-0.42556 1.09197,-0.39099 1.08921,-0.35651 1.08642,-0.32211 1.08362,-0.2878 1.08078,-0.25359 1.07794,-0.21947 1.07508,-0.18545 1.07218,-0.15151 1.06929,-0.11769 1.06635,-0.084 1.06342,-0.0503 1.06045,-0.0168 1.05747,0.0166 1.05447,0.0499 1.05146,0.0832 1.04842,0.11628 1.04537,0.14928 1.0423,0.18217 1.03922,0.21495 1.03611,0.24762 1.033,0.28018 1.02985,0.31261 1.02671,0.34494 1.02354,0.37715 1.02036,0.40924 1.01716,0.44121 1.01394,0.47307 1.01072,0.50479 1.00747,0.53641 1.00422,0.56788 1.00094,0.59925 0.99766,0.63049"
           clip-path="url(#p293d5ad935)"
           style="fill:none;stroke:#000000;stroke-width:1.5"
           id="path76" />
        <path
           d="m 234.11869,301.00953 1.22071,-2.82889 1.21966,-2.79216 1.21856,-2.75542 1.21744,-2.71863 1.21628,-2.68182 1.21509,-2.64498 1.21387,-2.60812 1.21262,-2.57122 1.21134,-2.5343 1.21002,-2.49737 1.20867,-2.46043 1.20729,-2.42345 1.20589,-2.38647 1.20444,-2.34948 1.20298,-2.31248 1.20146,-2.27547 1.19994,-2.23845 1.19838,-2.20143 1.19677,-2.16441 1.19516,-2.1274 1.1935,-2.09037 1.19182,-2.05336 1.1901,-2.01636 1.18836,-1.97935 1.18659,-1.94237 1.18479,-1.9054 1.18295,-1.86844 1.1811,-1.83149 1.17921,-1.79456 1.17728,-1.75767 1.17535,-1.72078 1.17337,-1.68392 1.17137,-1.64709 1.16934,-1.61029 1.16728,-1.57352 1.1652,-1.53678 1.16308,-1.50006 1.16095,-1.4634 1.15878,-1.42677 1.15659,-1.39017 1.15437,-1.35362 1.15212,-1.31711 1.14985,-1.28065 1.14756,-1.24424 1.14523,-1.20786 1.14289,-1.17155 1.14051,-1.13529 1.13811,-1.09907 1.13568,-1.06292 1.13324,-1.02683 1.13077,-0.99079 1.12827,-0.95481 1.12574,-0.9189 1.12321,-0.88306 1.12063,-0.84727 1.11804,-0.81156 1.11543,-0.77592 1.11278,-0.74034 1.11013,-0.70485 1.10744,-0.66942 1.10474,-0.63408 1.10201,-0.5988 1.09926,-0.56362 1.09649,-0.52851 1.0937,-0.49348 1.09088,-0.45853 1.08805,-0.42369 1.08519,-0.38891 1.08231,-0.35423 1.07942,-0.31964 1.07651,-0.28515 1.07356,-0.25074 1.07062,-0.21643 1.06763,-0.18221 1.06464,-0.1481 1.06163,-0.11408 1.0586,-0.0802 1.05555,-0.0463 1.05248,-0.0126 1.04939,0.021 1.04629,0.0545 1.04317,0.0879 1.04003,0.12117 1.03687,0.15434 1.03371,0.18741 1.03051,0.22036 1.02731,0.25321 1.02408,0.28594 1.02085,0.31855 1.0176,0.35104 1.01433,0.38342 1.01105,0.41568 1.00775,0.44782 1.00444,0.47984 1.00111,0.51173 0.99777,0.54351 0.99441,0.57515 0.99105,0.60667 0.98767,0.63807"
           clip-path="url(#p293d5ad935)"
           style="fill:none;stroke:#000000;stroke-width:1.5"
           id="path78" />
        <path
           d="m 246.99371,295.80909 1.22233,-2.84197 1.22114,-2.80501 1.21993,-2.768 1.21867,-2.73097 1.21739,-2.69389 1.21608,-2.6568 1.21473,-2.61968 1.21335,-2.58254 1.21194,-2.54536 1.2105,-2.50818 1.20903,-2.47097 1.20752,-2.43374 1.20599,-2.39651 1.20441,-2.35927 1.20282,-2.322 1.2012,-2.28474 1.19953,-2.24747 1.19784,-2.2102 1.19613,-2.17292 1.19437,-2.13564 1.19259,-2.09838 1.19078,-2.06111 1.18895,-2.02384 1.18707,-1.9866 1.18518,-1.94936 1.18325,-1.91213 1.18129,-1.87491 1.17931,-1.83773 1.17729,-1.80054 1.17525,-1.76339 1.17318,-1.72626 1.17108,-1.68915 1.16896,-1.65207 1.1668,-1.61501 1.16462,-1.578 1.16242,-1.541 1.16017,-1.50405 1.15792,-1.46714 1.15562,-1.43025 1.15332,-1.39342 1.15096,-1.35662 1.1486,-1.31986 1.14621,-1.28316 1.14378,-1.2465 1.14134,-1.20989 1.13887,-1.17334 1.13638,-1.13682 1.13385,-1.10038 1.13131,-1.06399 1.12875,-1.02765 1.12614,-0.99138 1.12353,-0.95516 1.12089,-0.91902 1.11823,-0.88293 1.11553,-0.84693 1.11283,-0.81097 1.11009,-0.7751 1.10734,-0.7393 1.10455,-0.70357 1.10176,-0.66792 1.09893,-0.63234 1.09609,-0.59684 1.09322,-0.56143 1.09033,-0.5261 1.08743,-0.49085 1.0845,-0.45568 1.08154,-0.4206 1.07858,-0.38562 1.07559,-0.35072 1.07257,-0.31591 1.06955,-0.28119 1.0665,-0.24657 1.06343,-0.21205 1.06034,-0.17763 1.05724,-0.14329 1.05411,-0.10907 1.05097,-0.0749 1.04781,-0.0409 1.04463,-0.007 1.04144,0.0268 1.03822,0.0605 1.03499,0.0941 1.03175,0.12762 1.02848,0.16099 1.02521,0.19425 1.02191,0.22741 1.0186,0.26045 1.01527,0.29337 1.01193,0.32617 1.00857,0.35886 1.0052,0.39143 1.00182,0.42388 0.99841,0.4562 0.995,0.4884 0.99157,0.52049 0.98813,0.55243 0.98467,0.58427 0.98121,0.61596 0.97772,0.64754"
           clip-path="url(#p293d5ad935)"
           style="fill:none;stroke:#000000;stroke-width:1.5"
           id="path80" />
        <path
           d="m 260.02088,289.16238 1.22435,-2.85572 1.22304,-2.81845 1.22169,-2.78117 1.22032,-2.74385 1.2189,-2.7065 1.21745,-2.66911 1.21598,-2.63171 1.21447,-2.59427 1.21293,-2.55683 1.21136,-2.51935 1.20976,-2.48185 1.20811,-2.44435 1.20646,-2.40683 1.20475,-2.36929 1.20303,-2.33175 1.20127,-2.2942 1.19948,-2.25665 1.19766,-2.21909 1.19581,-2.18152 1.19393,-2.14397 1.19202,-2.10642 1.19009,-2.06886 1.18811,-2.03132 1.18611,-1.99378 1.18409,-1.95627 1.18202,-1.91875 1.17995,-1.88126 1.17782,-1.84378 1.17569,-1.80632 1.17352,-1.76889 1.17131,-1.73148 1.16909,-1.69409 1.16683,-1.65673 1.16455,-1.61939 1.16225,-1.5821 1.1599,-1.54484 1.15754,-1.5076 1.15515,-1.47041 1.15274,-1.43325 1.15029,-1.39615 1.14782,-1.35907 1.14533,-1.32204 1.14281,-1.28507 1.14026,-1.24814 1.13769,-1.21126 1.13509,-1.17443 1.13247,-1.13765 1.12983,-1.10094 1.12716,-1.06428 1.12446,-1.02769 1.12175,-0.99114 1.119,-0.95467 1.11624,-0.91825 1.11345,-0.88192 1.11064,-0.84563 1.1078,-0.80944 1.10495,-0.7733 1.10207,-0.73724 1.09917,-0.70125 1.09625,-0.66535 1.0933,-0.62952 1.09034,-0.59377 1.08735,-0.5581 1.08434,-0.52252 1.08131,-0.48703 1.07827,-0.45161 1.07519,-0.41628 1.07211,-0.38105 1.069,-0.34591 1.06587,-0.31086 1.06273,-0.27591 1.05956,-0.24104 1.05637,-0.20628 1.05317,-0.17162 1.04995,-0.13706 1.04671,-0.10259 1.04345,-0.0682 1.04018,-0.034 1.03688,1.7e-4 1.03358,0.0342 1.03025,0.0681 1.02691,0.10197 1.02355,0.13568 1.02018,0.16929 1.01678,0.20277 1.01338,0.23614 1.00996,0.26939 1.00652,0.30254 1.00308,0.33555 0.9996,0.36846 0.99613,0.40123 0.99263,0.43389 0.98913,0.46642 0.9856,0.49883 0.98207,0.53112 0.97853,0.56327 0.97496,0.5953 0.97139,0.6272 0.9678,0.65897"
           clip-path="url(#p293d5ad935)"
           style="fill:none;stroke:#000000;stroke-width:1.5"
           id="path82" />
        <path
           d="m 266.59685,285.28669 1.22552,-2.86283 1.22415,-2.82541 1.22273,-2.78798 1.22128,-2.7505 1.2198,-2.71299 1.21829,-2.67546 1.21675,-2.6379 1.21518,-2.60031 1.21356,-2.5627 1.21193,-2.52508 1.21026,-2.48742 1.20856,-2.44977 1.20682,-2.41209 1.20507,-2.3744 1.20326,-2.33671 1.20144,-2.299 1.19959,-2.26129 1.1977,-2.22358 1.19578,-2.18587 1.19384,-2.14815 1.19186,-2.11044 1.18985,-2.07274 1.18782,-2.03505 1.18575,-1.99736 1.18366,-1.95968 1.18153,-1.92202 1.17938,-1.88437 1.17721,-1.84674 1.17499,-1.80914 1.17276,-1.77154 1.17049,-1.73398 1.1682,-1.69645 1.16588,-1.65893 1.16352,-1.62146 1.16116,-1.584 1.15875,-1.54659 1.15632,-1.50921 1.15387,-1.47186 1.15139,-1.43457 1.14887,-1.3973 1.14635,-1.36008 1.14378,-1.32291 1.1412,-1.28579 1.13858,-1.24871 1.13595,-1.21168 1.13329,-1.17472 1.13061,-1.13779 1.12789,-1.10093 1.12516,-1.06413 1.1224,-1.02738 1.11962,-0.99071 1.11682,-0.95408 1.11398,-0.91754 1.11114,-0.88105 1.10826,-0.84463 1.10536,-0.80829 1.10245,-0.77202 1.0995,-0.73582 1.09654,-0.69969 1.09355,-0.66365 1.09055,-0.62769 1.08752,-0.5918 1.08447,-0.55599 1.0814,-0.52028 1.07831,-0.48465 1.0752,-0.4491 1.07207,-0.41364 1.06892,-0.37828 1.06576,-0.343 1.06256,-0.30783 1.05936,-0.27274 1.05613,-0.23775 1.05288,-0.20285 1.04963,-0.16807 1.04634,-0.13338 1.04304,-0.0988 1.03973,-0.0643 1.03639,-0.0299 1.03305,0.004 1.02968,0.0385 1.02629,0.0726 1.02289,0.10651 1.01948,0.14035 1.01604,0.17407 1.0126,0.20767 1.00914,0.24116 1.00565,0.27454 1.00217,0.30778 0.99866,0.34093 0.99513,0.37394 0.99161,0.40683 0.98805,0.4396 0.98449,0.47224 0.98091,0.50477 0.97733,0.53715 0.97372,0.56943 0.97011,0.60156 0.96649,0.63357 0.96284,0.66545"
           clip-path="url(#p293d5ad935)"
           style="fill:none;stroke:#000000;stroke-width:1.5"
           id="path84" />
      </g>
      <g
         id="line2d_1">
        <path
           d="m 121.69129,142.24113 1.99378,2.28457 1.99289,2.24733 1.99205,2.21017 1.99127,2.17306 1.99054,2.13602 1.98987,2.09902 1.98926,2.06208 1.98871,2.0252 1.98821,1.98836 1.98777,1.95157 1.98739,1.91483 1.98706,1.87813 1.98679,1.84148 1.98657,1.80486 1.98642,1.76827 1.98631,1.73174 1.98628,1.69522 1.98629,1.65875 1.98636,1.6223 1.98648,1.58587 1.98667,1.54947 1.98692,1.51311 1.98721,1.47674 1.98757,1.44041 1.98798,1.4041 1.98845,1.36779 1.98898,1.3315 1.98957,1.29522 1.99021,1.25895 1.99091,1.22269 1.99167,1.18642 1.99248,1.15017 1.99336,1.11391 1.9943,1.07765 1.99528,1.04139 1.99634,1.00511 1.99744,0.96884 1.99861,0.93255 1.99984,0.89625 2.00112,0.85994 2.00246,0.82361 2.00387,0.78725 2.00533,0.75089 2.00686,0.71449 2.00843,0.67807 2.01008,0.64163 2.01178,0.60515 2.01355,0.56864 2.01537,0.53211 2.01725,0.49552 2.0192,0.45892 2.02121,0.42225 2.02328,0.38556 2.02541,0.34882 2.0276,0.31203 2.02985,0.27519 2.03218,0.23831 2.03455,0.20136 2.037,0.16436 2.03951,0.1273 2.04208,0.0902 2.04471,0.053 2.04742,0.0158 2.05017,-0.0216 2.05301,-0.0589 2.0559,-0.0964 2.05887,-0.13392 2.06188,-0.17153 2.06499,-0.20922 2.06814,-0.24698 2.07136,-0.28483 2.07466,-0.32278 2.07803,-0.3608 2.08145,-0.39892 2.08495,-0.43713 2.08852,-0.47544 2.09216,-0.51385 2.09586,-0.55237 2.09964,-0.59097 2.10349,-0.6297 2.1074,-0.66853 2.1114,-0.70748 2.11546,-0.74653 2.11959,-0.78571 2.1238,-0.825 2.12809,-0.86442 2.13244,-0.90397 2.13687,-0.94364 2.14138,-0.98344 2.14595,-1.02339 2.15062,-1.06346 2.15534,-1.10367 2.16016,-1.14403 2.16505,-1.18454 2.17001,-1.22518 2.17507,-1.26599 2.18018,-1.30695 2.1854,-1.34807 2.19067,-1.38934"
           clip-path="url(#p293d5ad935)"
           style="fill:none;stroke:#9acd32;stroke-width:3;stroke-linecap:square"
           id="path87" />
      </g>
      <g
         id="line2d_2">
        <path
           d="m 159.35734,303.24478 1.21958,-2.76321 1.21921,-2.72743 1.21882,-2.69161 1.2184,-2.65576 1.21793,-2.61989 1.21745,-2.58398 1.21692,-2.54806 1.21636,-2.5121 1.21578,-2.47613 1.21516,-2.44014 1.21451,-2.40413 1.21382,-2.36811 1.21311,-2.33206 1.21237,-2.29602 1.21158,-2.25996 1.21078,-2.2239 1.20994,-2.18782 1.20907,-2.15175 1.20817,-2.11567 1.20723,-2.07959 1.20627,-2.04352 1.20527,-2.00745 1.20425,-1.97139 1.2032,-1.93533 1.20211,-1.89929 1.20099,-1.86325 1.19985,-1.82723 1.19868,-1.79123 1.19746,-1.75524 1.19623,-1.71928 1.19497,-1.68332 1.19368,-1.64741 1.19235,-1.6115 1.191,-1.57563 1.18962,-1.5398 1.18821,-1.50397 1.18677,-1.4682 1.1853,-1.43245 1.18381,-1.39674 1.18229,-1.36107 1.18073,-1.32543 1.17916,-1.28984 1.17755,-1.25429 1.17591,-1.21879 1.17426,-1.18333 1.17256,-1.14791 1.17085,-1.11256 1.16911,-1.07725 1.16734,-1.04199 1.16554,-1.00679 1.16372,-0.97165 1.16187,-0.93656 1.16,-0.90154 1.1581,-0.86657 1.15617,-0.83167 1.15423,-0.79683 1.15225,-0.76206 1.15024,-0.72737 1.14822,-0.69272 1.14618,-0.65817 1.14409,-0.62368 1.142,-0.58926 1.13987,-0.55493 1.13773,-0.52066 1.13556,-0.48648 1.13336,-0.45238 1.13115,-0.41835 1.12891,-0.38442 1.12664,-0.35056 1.12435,-0.3168 1.12205,-0.28312 1.11972,-0.24953 1.11737,-0.21602 1.11499,-0.18262 1.11259,-0.1493 1.11018,-0.11608 1.10774,-0.083 1.10528,-0.0499 1.10279,-0.017 1.1003,0.0158 1.09778,0.0486 1.09523,0.0812 1.09267,0.11372 1.09009,0.14615 1.08749,0.17846 1.08487,0.21067 1.08223,0.24277 1.07957,0.27477 1.0769,0.30664 1.0742,0.33841 1.07148,0.37007 1.06876,0.40161 1.066,0.43304 1.06324,0.46436 1.06045,0.49554 1.05765,0.52663 1.05483,0.55758 1.052,0.58842 1.04915,0.61914"
           clip-path="url(#p293d5ad935)"
           style="fill:none;stroke:#ffa500;stroke-width:3;stroke-linecap:square"
           id="path90" />
      </g>
      <g
         id="Path3DCollection_1">
        <defs
           id="defs94">
          <path
             id="m2b2bec086f"
             d="m 0,3.162278 c 0.838646,0 1.643056,-0.333198 2.236068,-0.92621 C 2.82908,1.643056 3.162278,0.838646 3.162278,0 c 0,-0.838646 -0.333198,-1.643056 -0.92621,-2.236068 C 1.643056,-2.82908 0.838646,-3.162278 0,-3.162278 c -0.838646,0 -1.643056,0.333198 -2.236068,0.92621 -0.593012,0.593012 -0.92621,1.397422 -0.92621,2.236068 0,0.838646 0.333198,1.643056 0.92621,2.236068 C -1.643056,2.82908 -0.838646,3.162278 0,3.162278 Z"
             style="stroke:#ff0000" />
        </defs>
        <g
           clip-path="url(#p293d5ad935)"
           id="g98">
          <use
             xlink:href="#m2b2bec086f"
             x="216.7986"
             y="209.08362"
             style="fill:#ff0000;stroke:#ff0000"
             id="use96" />
        </g>
      </g>
    </g>
  </g>
  <defs
     id="defs106">
    <clipPath
       id="p293d5ad935">
      <rect
         x="10.8"
         y="10.8"
         width="410.39999"
         height="410.39999"
         id="rect103" />
    </clipPath>
  </defs>
</svg>
