<?xml version="1.0" encoding="UTF-8" standalone="no"?>
<svg
   width="720pt"
   height="576pt"
   viewBox="0 0 720 576"
   version="1.1"
   id="svg471"
   sodipodi:docname="LLsParab_intro.svg"
   inkscape:version="1.2.2 (732a01da63, 2022-12-09)"
   xmlns:inkscape="http://www.inkscape.org/namespaces/inkscape"
   xmlns:sodipodi="http://sodipodi.sourceforge.net/DTD/sodipodi-0.dtd"
   xmlns:xlink="http://www.w3.org/1999/xlink"
   xmlns="http://www.w3.org/2000/svg"
   xmlns:svg="http://www.w3.org/2000/svg"
   xmlns:rdf="http://www.w3.org/1999/02/22-rdf-syntax-ns#"
   xmlns:cc="http://creativecommons.org/ns#"
   xmlns:dc="http://purl.org/dc/elements/1.1/">
  <sodipodi:namedview
     id="namedview473"
     pagecolor="#ffffff"
     bordercolor="#666666"
     borderopacity="1.0"
     inkscape:showpageshadow="2"
     inkscape:pageopacity="0.0"
     inkscape:pagecheckerboard="0"
     inkscape:deskcolor="#d1d1d1"
     inkscape:document-units="pt"
     showgrid="false"
     inkscape:zoom="1.3372396"
     inkscape:cx="369.41772"
     inkscape:cy="383.6261"
     inkscape:window-width="3840"
     inkscape:window-height="2054"
     inkscape:window-x="-11"
     inkscape:window-y="-11"
     inkscape:window-maximized="1"
     inkscape:current-layer="svg471" />
  <metadata
     id="metadata2">
    <rdf:RDF>
      <cc:Work>
        <dc:type
           rdf:resource="http://purl.org/dc/dcmitype/StillImage" />
        <dc:date>2024-02-11T12:52:19.267275</dc:date>
        <dc:format>image/svg+xml</dc:format>
        <dc:creator>
          <cc:Agent>
            <dc:title>Matplotlib v3.7.0, https://matplotlib.org/</dc:title>
          </cc:Agent>
        </dc:creator>
      </cc:Work>
    </rdf:RDF>
  </metadata>
  <defs
     id="defs6">
    <style
       type="text/css"
       id="style4">*{stroke-linejoin: round; stroke-linecap: butt}</style>
  </defs>
  <g
     id="figure_1">
    <g
       id="patch_1">
      <path
         d="M 0 576  L 720 576  L 720 0  L 0 0  z "
         style="fill: #ffffff"
         id="path8" />
    </g>
    <g
       id="axes_1">
      <g
         id="patch_2">
        <path
           d="M 53.243881 520.748435  L 233.225882 520.748435  L 233.225882 64.178624  L 53.243881 64.178624  z "
           style="fill: #ffffff"
           id="path11" />
      </g>
      <g
         id="matplotlib.axis_1">
        <g
           id="text_1">
          <!-- $k_x, k_y$ -->
          <g
             transform="translate(119.08609 545.969113) scale(0.22 -0.22)"
             id="g30">
            <defs
               id="defs18">
              <path
                 id="CMMI12-6b"
                 d="M 1798 4257  C 1805 4283 1818 4321 1818 4352  C 1818 4416 1754 4416 1741 4416  C 1734 4416 1504 4393 1389 4377  C 1280 4377 1184 4358 1069 4358  C 915 4345 870 4339 870 4224  C 870 4160 934 4160 998 4160  C 1325 4160 1325 4103 1325 4040  C 1325 4015 1325 4002 1293 3888  L 378 248  C 352 152 352 140 352 101  C 352 -38 461 -64 525 -64  C 704 -64 742 77 794 275  L 1094 1469  C 1555 1418 1830 1226 1830 920  C 1830 881 1830 856 1811 760  C 1786 664 1786 588 1786 556  C 1786 185 2029 -64 2355 -64  C 2650 -64 2803 204 2854 294  C 2989 530 3072 888 3072 913  C 3072 945 3046 971 3008 971  C 2950 971 2944 945 2918 843  C 2829 511 2694 64 2368 64  C 2240 64 2157 128 2157 370  C 2157 492 2182 632 2208 728  C 2234 843 2234 849 2234 926  C 2234 1303 1894 1514 1306 1590  C 1536 1731 1766 1980 1856 2076  C 2221 2484 2470 2689 2765 2689  C 2912 2689 2950 2650 2995 2612  C 2758 2586 2669 2420 2669 2293  C 2669 2139 2790 2088 2880 2088  C 3053 2088 3206 2235 3206 2440  C 3206 2625 3059 2816 2771 2816  C 2419 2816 2131 2567 1677 2056  C 1613 1980 1376 1737 1139 1648  L 1798 4257  z "
                 transform="scale(0.015625)" />
              <path
                 id="CMMI12-78"
                 d="M 3034 2606  C 2829 2567 2752 2414 2752 2293  C 2752 2139 2874 2088 2963 2088  C 3155 2088 3290 2254 3290 2427  C 3290 2695 2982 2816 2714 2816  C 2323 2816 2106 2433 2048 2312  C 1901 2816 1504 2816 1389 2816  C 736 2816 390 1980 390 1839  C 390 1814 416 1782 461 1782  C 512 1782 525 1820 538 1846  C 755 2555 1184 2689 1370 2689  C 1658 2689 1715 2420 1715 2267  C 1715 2127 1677 1980 1600 1673  L 1382 798  C 1286 415 1101 64 762 64  C 730 64 570 64 435 147  C 666 192 717 383 717 460  C 717 588 621 664 499 664  C 346 664 179 530 179 326  C 179 57 480 -64 755 -64  C 1062 -64 1280 179 1414 441  C 1517 64 1837 -64 2074 -64  C 2726 -64 3072 773 3072 913  C 3072 945 3046 971 3008 971  C 2950 971 2944 939 2925 888  C 2752 326 2381 64 2093 64  C 1869 64 1747 230 1747 492  C 1747 632 1773 734 1875 1156  L 2099 2024  C 2195 2408 2413 2689 2707 2689  C 2720 2689 2899 2689 3034 2606  z "
                 transform="scale(0.015625)" />
              <path
                 id="CMMI12-3b"
                 d="M 1248 -31  C 1248 343 1126 619 864 619  C 659 619 557 453 557 313  C 557 172 653 0 870 0  C 954 0 1024 26 1082 83  C 1094 96 1101 96 1107 96  C 1120 96 1120 5 1120 -27  C 1120 -240 1082 -659 710 -1080  C 640 -1157 640 -1170 640 -1183  C 640 -1216 672 -1248 704 -1248  C 755 -1248 1248 -771 1248 -31  z "
                 transform="scale(0.015625)" />
              <path
                 id="CMMI12-79"
                 d="M 1683 -700  C 1510 -939 1261 -1152 947 -1152  C 870 -1152 563 -1152 467 -889  C 486 -895 518 -895 531 -895  C 723 -895 851 -729 851 -582  C 851 -435 730 -384 634 -384  C 531 -384 307 -458 307 -759  C 307 -1071 582 -1286 947 -1286  C 1587 -1286 2234 -700 2413 6  L 3040 2485  C 3046 2517 3059 2556 3059 2594  C 3059 2689 2982 2753 2886 2753  C 2829 2753 2694 2727 2643 2535  L 2170 658  C 2138 543 2138 530 2086 460  C 1958 281 1747 64 1440 64  C 1082 64 1050 415 1050 588  C 1050 952 1222 1443 1395 1903  C 1466 2088 1504 2178 1504 2305  C 1504 2574 1312 2816 998 2816  C 410 2816 173 1890 173 1839  C 173 1814 198 1782 243 1782  C 301 1782 307 1807 333 1897  C 486 2433 730 2689 979 2689  C 1037 2689 1146 2689 1146 2478  C 1146 2312 1075 2127 979 1884  C 666 1047 666 837 666 683  C 666 77 1101 -64 1421 -64  C 1606 -64 1837 -6 2061 230  L 2067 224  C 1971 -147 1907 -392 1683 -700  z "
                 transform="scale(0.015625)" />
            </defs>
            <use
               xlink:href="#CMMI12-6b"
               transform="scale(0.996264)"
               id="use20" />
            <use
               xlink:href="#CMMI12-78"
               transform="translate(50.735189 -14.943915) scale(0.697382)"
               id="use22" />
            <use
               xlink:href="#CMMI12-3b"
               transform="translate(90.03698 0) scale(0.996264)"
               id="use24" />
            <use
               xlink:href="#CMMI12-6b"
               transform="translate(133.738562 0) scale(0.996264)"
               id="use26" />
            <use
               xlink:href="#CMMI12-79"
               transform="translate(184.473751 -14.943915) scale(0.697382)"
               id="use28" />
          </g>
        </g>
      </g>
      <g
         id="matplotlib.axis_2">
        <g
           id="text_2">
          <!-- Energy -->
          <g
             transform="translate(38.980693 323.618982) rotate(-90) scale(0.22 -0.22)"
             id="g54">
            <defs
               id="defs40">
              <path
                 id="CMR17-45"
                 d="M 3885 1615  L 3770 1615  C 3629 676 3546 166 2419 166  L 1530 166  C 1274 166 1261 197 1261 414  L 1261 2176  L 1862 2176  C 2464 2176 2522 1960 2522 1430  L 2637 1430  L 2637 3081  L 2522 3081  C 2522 2557 2464 2342 1862 2342  L 1261 2342  L 1261 3913  C 1261 4128 1274 4160 1530 4160  L 2406 4160  C 3398 4160 3514 3769 3603 2929  L 3718 2929  L 3565 4325  L 326 4325  L 326 4160  C 768 4160 838 4160 838 3874  L 838 451  C 838 166 768 166 326 166  L 326 0  L 3654 0  L 3885 1615  z "
                 transform="scale(0.015625)" />
              <path
                 id="CMR17-6e"
                 d="M 2656 1933  C 2656 2259 2592 2790 1837 2790  C 1331 2790 1069 2400 973 2144  L 966 2144  L 966 2790  L 211 2720  L 211 2554  C 589 2554 646 2515 646 2208  L 646 428  C 646 184 621 153 211 153  L 211 -13  C 365 0 646 0 813 0  C 979 0 1267 0 1421 -13  L 1421 153  C 1011 153 986 178 986 428  L 986 1658  C 986 2247 1344 2688 1792 2688  C 2266 2688 2317 2266 2317 1958  L 2317 428  C 2317 184 2291 153 1882 153  L 1882 -13  C 2035 0 2317 0 2483 0  C 2650 0 2938 0 3091 -13  L 3091 153  C 2682 153 2656 178 2656 428  L 2656 1933  z "
                 transform="scale(0.015625)" />
              <path
                 id="CMR17-65"
                 d="M 2438 1472  C 2464 1498 2464 1511 2464 1576  C 2464 2238 2118 2816 1389 2816  C 710 2816 173 2169 173 1383  C 173 551 781 -64 1459 -64  C 2176 -64 2458 607 2458 740  C 2458 784 2419 784 2406 784  C 2362 784 2355 771 2330 696  C 2189 265 1837 51 1504 51  C 1229 51 954 203 781 480  C 582 803 582 1176 582 1472  L 2438 1472  z M 589 1568  C 634 2505 1126 2714 1382 2714  C 1818 2714 2112 2297 2118 1568  L 589 1568  z "
                 transform="scale(0.015625)" />
              <path
                 id="CMR17-72"
                 d="M 960 1497  C 960 2112 1222 2688 1702 2688  C 1747 2688 1792 2682 1837 2662  C 1837 2662 1696 2617 1696 2452  C 1696 2298 1818 2234 1914 2234  C 1990 2234 2131 2279 2131 2458  C 2131 2663 1926 2790 1709 2790  C 1222 2790 1011 2317 947 2093  L 941 2093  L 941 2790  L 198 2720  L 198 2554  C 576 2554 634 2515 634 2208  L 634 428  C 634 184 608 153 198 153  L 198 -13  C 352 0 646 0 813 0  C 998 0 1325 0 1498 -13  L 1498 153  C 1037 153 960 153 960 440  L 960 1497  z "
                 transform="scale(0.015625)" />
              <path
                 id="CMR17-67"
                 d="M 710 1164  C 832 1068 1043 960 1299 960  C 1805 960 2240 1357 2240 1888  C 2240 2054 2189 2310 1997 2509  C 2176 2692 2438 2752 2586 2752  C 2611 2752 2650 2752 2682 2734  C 2656 2728 2598 2703 2598 2605  C 2598 2527 2656 2471 2739 2471  C 2835 2471 2886 2533 2886 2614  C 2886 2731 2790 2854 2586 2854  C 2330 2854 2106 2738 1926 2580  C 1734 2753 1504 2816 1299 2816  C 794 2816 358 2419 358 1888  C 358 1522 570 1292 634 1228  C 442 1004 442 743 442 711  C 442 545 506 302 723 168  C 390 85 128 -169 128 -486  C 128 -943 736 -1280 1466 -1280  C 2170 -1280 2803 -956 2803 -479  C 2803 384 1856 384 1363 384  C 1216 384 954 384 922 391  C 723 423 589 602 589 826  C 589 883 589 1024 710 1164  z M 1299 1068  C 736 1068 736 1760 736 1889  C 736 2016 736 2708 1299 2708  C 1862 2708 1862 2016 1862 1889  C 1862 1760 1862 1068 1299 1068  z M 1466 -1171  C 826 -1171 384 -835 384 -486  C 384 -289 493 -105 634 -4  C 794 104 858 104 1293 104  C 1818 104 2547 104 2547 -486  C 2547 -835 2106 -1171 1466 -1171  z "
                 transform="scale(0.015625)" />
              <path
                 id="CMR17-79"
                 d="M 2496 2197  C 2656 2586 2944 2586 3034 2586  L 3034 2752  C 2912 2752 2752 2752 2630 2752  C 2496 2752 2285 2752 2157 2758  L 2157 2592  C 2400 2573 2406 2394 2406 2343  C 2406 2280 2394 2248 2362 2171  L 1664 449  L 902 2306  C 870 2382 870 2426 870 2433  C 870 2573 1018 2586 1171 2586  L 1171 2758  C 1018 2752 742 2752 582 2752  C 410 2752 205 2752 64 2758  L 64 2586  C 410 2586 448 2554 531 2350  L 1485 15  C 1197 -738 1030 -1178 627 -1178  C 557 -1178 397 -1159 282 -1044  C 429 -1031 493 -942 493 -833  C 493 -725 416 -629 288 -629  C 147 -629 77 -725 77 -840  C 77 -1095 339 -1280 627 -1280  C 998 -1280 1229 -922 1357 -604  L 2496 2197  z "
                 transform="scale(0.015625)" />
            </defs>
            <use
               xlink:href="#CMR17-45"
               transform="scale(0.996264)"
               id="use42" />
            <use
               xlink:href="#CMR17-6e"
               transform="translate(62.586301 0) scale(0.996264)"
               id="use44" />
            <use
               xlink:href="#CMR17-65"
               transform="translate(113.48167 0) scale(0.996264)"
               id="use46" />
            <use
               xlink:href="#CMR17-72"
               transform="translate(153.967331 0) scale(0.996264)"
               id="use48" />
            <use
               xlink:href="#CMR17-67"
               transform="translate(189.248099 0) scale(0.996264)"
               id="use50" />
            <use
               xlink:href="#CMR17-79"
               transform="translate(234.938576 0) scale(0.996264)"
               id="use52" />
          </g>
        </g>
      </g>
      <g
         id="line2d_1">
        <path
           d="M 53.243881 503.834512  L 56.294424 503.834512  L 59.344966 503.834512  L 62.395508 503.834512  L 65.446051 503.834512  L 68.496593 503.834512  L 71.547136 503.834512  L 74.597678 503.834512  L 77.64822 503.834512  L 80.698763 503.834512  L 83.749305 503.834512  L 86.799848 503.834512  L 89.85039 503.834512  L 92.900932 503.834512  L 95.951475 503.834512  L 99.002017 503.834512  L 102.052559 503.834512  L 105.103102 503.834512  L 108.153644 503.834512  L 111.204187 503.834512  L 114.254729 503.834512  L 117.305271 503.834512  L 120.355814 503.834512  L 123.406356 503.834512  L 126.456899 503.834512  L 129.507441 503.834512  L 132.557983 503.834512  L 135.608526 503.834512  L 138.659068 503.834512  L 141.709611 503.834512  L 144.760153 503.834512  L 147.810695 503.834512  L 150.861238 503.834512  L 153.91178 503.834512  L 156.962323 503.834512  L 160.012865 503.834512  L 163.063407 503.834512  L 166.11395 503.834512  L 169.164492 503.834512  L 172.215034 503.834512  L 175.265577 503.834512  L 178.316119 503.834512  L 181.366662 503.834512  L 184.417204 503.834512  L 187.467746 503.834512  L 190.518289 503.834512  L 193.568831 503.834512  L 196.619374 503.834512  L 199.669916 503.834512  L 202.720458 503.834512  L 205.771001 503.834512  L 208.821543 503.834512  L 211.872086 503.834512  L 214.922628 503.834512  L 217.97317 503.834512  L 221.023713 503.834512  L 224.074255 503.834512  L 227.124797 503.834512  L 230.17534 503.834512  L 233.225882 503.834512  "
           clip-path="url(#p06923fa24b)"
           style="fill: none; stroke: #ff0000; stroke-width: 1.5; stroke-linecap: square"
           id="path58" />
      </g>
      <g
         id="line2d_2">
        <path
           d="M 53.243881 470.006667  L 56.294424 470.006667  L 59.344966 470.006667  L 62.395508 470.006667  L 65.446051 470.006667  L 68.496593 470.006667  L 71.547136 470.006667  L 74.597678 470.006667  L 77.64822 470.006667  L 80.698763 470.006667  L 83.749305 470.006667  L 86.799848 470.006667  L 89.85039 470.006667  L 92.900932 470.006667  L 95.951475 470.006667  L 99.002017 470.006667  L 102.052559 470.006667  L 105.103102 470.006667  L 108.153644 470.006667  L 111.204187 470.006667  L 114.254729 470.006667  L 117.305271 470.006667  L 120.355814 470.006667  L 123.406356 470.006667  L 126.456899 470.006667  L 129.507441 470.006667  L 132.557983 470.006667  L 135.608526 470.006667  L 138.659068 470.006667  L 141.709611 470.006667  L 144.760153 470.006667  L 147.810695 470.006667  L 150.861238 470.006667  L 153.91178 470.006667  L 156.962323 470.006667  L 160.012865 470.006667  L 163.063407 470.006667  L 166.11395 470.006667  L 169.164492 470.006667  L 172.215034 470.006667  L 175.265577 470.006667  L 178.316119 470.006667  L 181.366662 470.006667  L 184.417204 470.006667  L 187.467746 470.006667  L 190.518289 470.006667  L 193.568831 470.006667  L 196.619374 470.006667  L 199.669916 470.006667  L 202.720458 470.006667  L 205.771001 470.006667  L 208.821543 470.006667  L 211.872086 470.006667  L 214.922628 470.006667  L 217.97317 470.006667  L 221.023713 470.006667  L 224.074255 470.006667  L 227.124797 470.006667  L 230.17534 470.006667  L 233.225882 470.006667  "
           clip-path="url(#p06923fa24b)"
           style="fill: none; stroke: #ff0000; stroke-width: 1.5; stroke-linecap: square"
           id="path61" />
      </g>
      <g
         id="line2d_3">
        <path
           d="M 53.243881 436.178822  L 56.294424 436.178822  L 59.344966 436.178822  L 62.395508 436.178822  L 65.446051 436.178822  L 68.496593 436.178822  L 71.547136 436.178822  L 74.597678 436.178822  L 77.64822 436.178822  L 80.698763 436.178822  L 83.749305 436.178822  L 86.799848 436.178822  L 89.85039 436.178822  L 92.900932 436.178822  L 95.951475 436.178822  L 99.002017 436.178822  L 102.052559 436.178822  L 105.103102 436.178822  L 108.153644 436.178822  L 111.204187 436.178822  L 114.254729 436.178822  L 117.305271 436.178822  L 120.355814 436.178822  L 123.406356 436.178822  L 126.456899 436.178822  L 129.507441 436.178822  L 132.557983 436.178822  L 135.608526 436.178822  L 138.659068 436.178822  L 141.709611 436.178822  L 144.760153 436.178822  L 147.810695 436.178822  L 150.861238 436.178822  L 153.91178 436.178822  L 156.962323 436.178822  L 160.012865 436.178822  L 163.063407 436.178822  L 166.11395 436.178822  L 169.164492 436.178822  L 172.215034 436.178822  L 175.265577 436.178822  L 178.316119 436.178822  L 181.366662 436.178822  L 184.417204 436.178822  L 187.467746 436.178822  L 190.518289 436.178822  L 193.568831 436.178822  L 196.619374 436.178822  L 199.669916 436.178822  L 202.720458 436.178822  L 205.771001 436.178822  L 208.821543 436.178822  L 211.872086 436.178822  L 214.922628 436.178822  L 217.97317 436.178822  L 221.023713 436.178822  L 224.074255 436.178822  L 227.124797 436.178822  L 230.17534 436.178822  L 233.225882 436.178822  "
           clip-path="url(#p06923fa24b)"
           style="fill: none; stroke: #ff0000; stroke-width: 1.5; stroke-linecap: square"
           id="path64" />
      </g>
      <g
         id="line2d_4">
        <path
           d="M 53.243881 402.350977  L 56.294424 402.350977  L 59.344966 402.350977  L 62.395508 402.350977  L 65.446051 402.350977  L 68.496593 402.350977  L 71.547136 402.350977  L 74.597678 402.350977  L 77.64822 402.350977  L 80.698763 402.350977  L 83.749305 402.350977  L 86.799848 402.350977  L 89.85039 402.350977  L 92.900932 402.350977  L 95.951475 402.350977  L 99.002017 402.350977  L 102.052559 402.350977  L 105.103102 402.350977  L 108.153644 402.350977  L 111.204187 402.350977  L 114.254729 402.350977  L 117.305271 402.350977  L 120.355814 402.350977  L 123.406356 402.350977  L 126.456899 402.350977  L 129.507441 402.350977  L 132.557983 402.350977  L 135.608526 402.350977  L 138.659068 402.350977  L 141.709611 402.350977  L 144.760153 402.350977  L 147.810695 402.350977  L 150.861238 402.350977  L 153.91178 402.350977  L 156.962323 402.350977  L 160.012865 402.350977  L 163.063407 402.350977  L 166.11395 402.350977  L 169.164492 402.350977  L 172.215034 402.350977  L 175.265577 402.350977  L 178.316119 402.350977  L 181.366662 402.350977  L 184.417204 402.350977  L 187.467746 402.350977  L 190.518289 402.350977  L 193.568831 402.350977  L 196.619374 402.350977  L 199.669916 402.350977  L 202.720458 402.350977  L 205.771001 402.350977  L 208.821543 402.350977  L 211.872086 402.350977  L 214.922628 402.350977  L 217.97317 402.350977  L 221.023713 402.350977  L 224.074255 402.350977  L 227.124797 402.350977  L 230.17534 402.350977  L 233.225882 402.350977  "
           clip-path="url(#p06923fa24b)"
           style="fill: none; stroke: #ff0000; stroke-width: 1.5; stroke-linecap: square"
           id="path67" />
      </g>
      <g
         id="line2d_5">
        <path
           d="M 53.243881 368.523133  L 56.294424 368.523133  L 59.344966 368.523133  L 62.395508 368.523133  L 65.446051 368.523133  L 68.496593 368.523133  L 71.547136 368.523133  L 74.597678 368.523133  L 77.64822 368.523133  L 80.698763 368.523133  L 83.749305 368.523133  L 86.799848 368.523133  L 89.85039 368.523133  L 92.900932 368.523133  L 95.951475 368.523133  L 99.002017 368.523133  L 102.052559 368.523133  L 105.103102 368.523133  L 108.153644 368.523133  L 111.204187 368.523133  L 114.254729 368.523133  L 117.305271 368.523133  L 120.355814 368.523133  L 123.406356 368.523133  L 126.456899 368.523133  L 129.507441 368.523133  L 132.557983 368.523133  L 135.608526 368.523133  L 138.659068 368.523133  L 141.709611 368.523133  L 144.760153 368.523133  L 147.810695 368.523133  L 150.861238 368.523133  L 153.91178 368.523133  L 156.962323 368.523133  L 160.012865 368.523133  L 163.063407 368.523133  L 166.11395 368.523133  L 169.164492 368.523133  L 172.215034 368.523133  L 175.265577 368.523133  L 178.316119 368.523133  L 181.366662 368.523133  L 184.417204 368.523133  L 187.467746 368.523133  L 190.518289 368.523133  L 193.568831 368.523133  L 196.619374 368.523133  L 199.669916 368.523133  L 202.720458 368.523133  L 205.771001 368.523133  L 208.821543 368.523133  L 211.872086 368.523133  L 214.922628 368.523133  L 217.97317 368.523133  L 221.023713 368.523133  L 224.074255 368.523133  L 227.124797 368.523133  L 230.17534 368.523133  L 233.225882 368.523133  "
           clip-path="url(#p06923fa24b)"
           style="fill: none; stroke: #ff0000; stroke-width: 1.5; stroke-linecap: square"
           id="path70" />
      </g>
      <g
         id="line2d_6">
        <path
           d="M 53.243881 334.695288  L 56.294424 334.695288  L 59.344966 334.695288  L 62.395508 334.695288  L 65.446051 334.695288  L 68.496593 334.695288  L 71.547136 334.695288  L 74.597678 334.695288  L 77.64822 334.695288  L 80.698763 334.695288  L 83.749305 334.695288  L 86.799848 334.695288  L 89.85039 334.695288  L 92.900932 334.695288  L 95.951475 334.695288  L 99.002017 334.695288  L 102.052559 334.695288  L 105.103102 334.695288  L 108.153644 334.695288  L 111.204187 334.695288  L 114.254729 334.695288  L 117.305271 334.695288  L 120.355814 334.695288  L 123.406356 334.695288  L 126.456899 334.695288  L 129.507441 334.695288  L 132.557983 334.695288  L 135.608526 334.695288  L 138.659068 334.695288  L 141.709611 334.695288  L 144.760153 334.695288  L 147.810695 334.695288  L 150.861238 334.695288  L 153.91178 334.695288  L 156.962323 334.695288  L 160.012865 334.695288  L 163.063407 334.695288  L 166.11395 334.695288  L 169.164492 334.695288  L 172.215034 334.695288  L 175.265577 334.695288  L 178.316119 334.695288  L 181.366662 334.695288  L 184.417204 334.695288  L 187.467746 334.695288  L 190.518289 334.695288  L 193.568831 334.695288  L 196.619374 334.695288  L 199.669916 334.695288  L 202.720458 334.695288  L 205.771001 334.695288  L 208.821543 334.695288  L 211.872086 334.695288  L 214.922628 334.695288  L 217.97317 334.695288  L 221.023713 334.695288  L 224.074255 334.695288  L 227.124797 334.695288  L 230.17534 334.695288  L 233.225882 334.695288  "
           clip-path="url(#p06923fa24b)"
           style="fill: none; stroke: #ff0000; stroke-width: 1.5; stroke-linecap: square"
           id="path73" />
      </g>
      <g
         id="line2d_7">
        <path
           d="M 53.243881 300.867443  L 56.294424 300.867443  L 59.344966 300.867443  L 62.395508 300.867443  L 65.446051 300.867443  L 68.496593 300.867443  L 71.547136 300.867443  L 74.597678 300.867443  L 77.64822 300.867443  L 80.698763 300.867443  L 83.749305 300.867443  L 86.799848 300.867443  L 89.85039 300.867443  L 92.900932 300.867443  L 95.951475 300.867443  L 99.002017 300.867443  L 102.052559 300.867443  L 105.103102 300.867443  L 108.153644 300.867443  L 111.204187 300.867443  L 114.254729 300.867443  L 117.305271 300.867443  L 120.355814 300.867443  L 123.406356 300.867443  L 126.456899 300.867443  L 129.507441 300.867443  L 132.557983 300.867443  L 135.608526 300.867443  L 138.659068 300.867443  L 141.709611 300.867443  L 144.760153 300.867443  L 147.810695 300.867443  L 150.861238 300.867443  L 153.91178 300.867443  L 156.962323 300.867443  L 160.012865 300.867443  L 163.063407 300.867443  L 166.11395 300.867443  L 169.164492 300.867443  L 172.215034 300.867443  L 175.265577 300.867443  L 178.316119 300.867443  L 181.366662 300.867443  L 184.417204 300.867443  L 187.467746 300.867443  L 190.518289 300.867443  L 193.568831 300.867443  L 196.619374 300.867443  L 199.669916 300.867443  L 202.720458 300.867443  L 205.771001 300.867443  L 208.821543 300.867443  L 211.872086 300.867443  L 214.922628 300.867443  L 217.97317 300.867443  L 221.023713 300.867443  L 224.074255 300.867443  L 227.124797 300.867443  L 230.17534 300.867443  L 233.225882 300.867443  "
           clip-path="url(#p06923fa24b)"
           style="fill: none; stroke: #ff0000; stroke-width: 1.5; stroke-linecap: square"
           id="path76" />
      </g>
      <g
         id="line2d_8">
        <path
           d="M 53.243881 267.039598  L 56.294424 267.039598  L 59.344966 267.039598  L 62.395508 267.039598  L 65.446051 267.039598  L 68.496593 267.039598  L 71.547136 267.039598  L 74.597678 267.039598  L 77.64822 267.039598  L 80.698763 267.039598  L 83.749305 267.039598  L 86.799848 267.039598  L 89.85039 267.039598  L 92.900932 267.039598  L 95.951475 267.039598  L 99.002017 267.039598  L 102.052559 267.039598  L 105.103102 267.039598  L 108.153644 267.039598  L 111.204187 267.039598  L 114.254729 267.039598  L 117.305271 267.039598  L 120.355814 267.039598  L 123.406356 267.039598  L 126.456899 267.039598  L 129.507441 267.039598  L 132.557983 267.039598  L 135.608526 267.039598  L 138.659068 267.039598  L 141.709611 267.039598  L 144.760153 267.039598  L 147.810695 267.039598  L 150.861238 267.039598  L 153.91178 267.039598  L 156.962323 267.039598  L 160.012865 267.039598  L 163.063407 267.039598  L 166.11395 267.039598  L 169.164492 267.039598  L 172.215034 267.039598  L 175.265577 267.039598  L 178.316119 267.039598  L 181.366662 267.039598  L 184.417204 267.039598  L 187.467746 267.039598  L 190.518289 267.039598  L 193.568831 267.039598  L 196.619374 267.039598  L 199.669916 267.039598  L 202.720458 267.039598  L 205.771001 267.039598  L 208.821543 267.039598  L 211.872086 267.039598  L 214.922628 267.039598  L 217.97317 267.039598  L 221.023713 267.039598  L 224.074255 267.039598  L 227.124797 267.039598  L 230.17534 267.039598  L 233.225882 267.039598  "
           clip-path="url(#p06923fa24b)"
           style="fill: none; stroke: #ff0000; stroke-width: 1.5; stroke-linecap: square"
           id="path79" />
      </g>
      <g
         id="line2d_9">
        <path
           d="M 53.243881 233.211753  L 56.294424 233.211753  L 59.344966 233.211753  L 62.395508 233.211753  L 65.446051 233.211753  L 68.496593 233.211753  L 71.547136 233.211753  L 74.597678 233.211753  L 77.64822 233.211753  L 80.698763 233.211753  L 83.749305 233.211753  L 86.799848 233.211753  L 89.85039 233.211753  L 92.900932 233.211753  L 95.951475 233.211753  L 99.002017 233.211753  L 102.052559 233.211753  L 105.103102 233.211753  L 108.153644 233.211753  L 111.204187 233.211753  L 114.254729 233.211753  L 117.305271 233.211753  L 120.355814 233.211753  L 123.406356 233.211753  L 126.456899 233.211753  L 129.507441 233.211753  L 132.557983 233.211753  L 135.608526 233.211753  L 138.659068 233.211753  L 141.709611 233.211753  L 144.760153 233.211753  L 147.810695 233.211753  L 150.861238 233.211753  L 153.91178 233.211753  L 156.962323 233.211753  L 160.012865 233.211753  L 163.063407 233.211753  L 166.11395 233.211753  L 169.164492 233.211753  L 172.215034 233.211753  L 175.265577 233.211753  L 178.316119 233.211753  L 181.366662 233.211753  L 184.417204 233.211753  L 187.467746 233.211753  L 190.518289 233.211753  L 193.568831 233.211753  L 196.619374 233.211753  L 199.669916 233.211753  L 202.720458 233.211753  L 205.771001 233.211753  L 208.821543 233.211753  L 211.872086 233.211753  L 214.922628 233.211753  L 217.97317 233.211753  L 221.023713 233.211753  L 224.074255 233.211753  L 227.124797 233.211753  L 230.17534 233.211753  L 233.225882 233.211753  "
           clip-path="url(#p06923fa24b)"
           style="fill: none; stroke: #ff0000; stroke-width: 1.5; stroke-linecap: square"
           id="path82" />
      </g>
      <g
         id="line2d_10">
        <path
           d="M 53.243881 199.383908  L 56.294424 199.383908  L 59.344966 199.383908  L 62.395508 199.383908  L 65.446051 199.383908  L 68.496593 199.383908  L 71.547136 199.383908  L 74.597678 199.383908  L 77.64822 199.383908  L 80.698763 199.383908  L 83.749305 199.383908  L 86.799848 199.383908  L 89.85039 199.383908  L 92.900932 199.383908  L 95.951475 199.383908  L 99.002017 199.383908  L 102.052559 199.383908  L 105.103102 199.383908  L 108.153644 199.383908  L 111.204187 199.383908  L 114.254729 199.383908  L 117.305271 199.383908  L 120.355814 199.383908  L 123.406356 199.383908  L 126.456899 199.383908  L 129.507441 199.383908  L 132.557983 199.383908  L 135.608526 199.383908  L 138.659068 199.383908  L 141.709611 199.383908  L 144.760153 199.383908  L 147.810695 199.383908  L 150.861238 199.383908  L 153.91178 199.383908  L 156.962323 199.383908  L 160.012865 199.383908  L 163.063407 199.383908  L 166.11395 199.383908  L 169.164492 199.383908  L 172.215034 199.383908  L 175.265577 199.383908  L 178.316119 199.383908  L 181.366662 199.383908  L 184.417204 199.383908  L 187.467746 199.383908  L 190.518289 199.383908  L 193.568831 199.383908  L 196.619374 199.383908  L 199.669916 199.383908  L 202.720458 199.383908  L 205.771001 199.383908  L 208.821543 199.383908  L 211.872086 199.383908  L 214.922628 199.383908  L 217.97317 199.383908  L 221.023713 199.383908  L 224.074255 199.383908  L 227.124797 199.383908  L 230.17534 199.383908  L 233.225882 199.383908  "
           clip-path="url(#p06923fa24b)"
           style="fill: none; stroke: #ff0000; stroke-width: 1.5; stroke-linecap: square"
           id="path85" />
      </g>
      <g
         id="line2d_11">
        <path
           d="M 53.243881 165.556063  L 56.294424 165.556063  L 59.344966 165.556063  L 62.395508 165.556063  L 65.446051 165.556063  L 68.496593 165.556063  L 71.547136 165.556063  L 74.597678 165.556063  L 77.64822 165.556063  L 80.698763 165.556063  L 83.749305 165.556063  L 86.799848 165.556063  L 89.85039 165.556063  L 92.900932 165.556063  L 95.951475 165.556063  L 99.002017 165.556063  L 102.052559 165.556063  L 105.103102 165.556063  L 108.153644 165.556063  L 111.204187 165.556063  L 114.254729 165.556063  L 117.305271 165.556063  L 120.355814 165.556063  L 123.406356 165.556063  L 126.456899 165.556063  L 129.507441 165.556063  L 132.557983 165.556063  L 135.608526 165.556063  L 138.659068 165.556063  L 141.709611 165.556063  L 144.760153 165.556063  L 147.810695 165.556063  L 150.861238 165.556063  L 153.91178 165.556063  L 156.962323 165.556063  L 160.012865 165.556063  L 163.063407 165.556063  L 166.11395 165.556063  L 169.164492 165.556063  L 172.215034 165.556063  L 175.265577 165.556063  L 178.316119 165.556063  L 181.366662 165.556063  L 184.417204 165.556063  L 187.467746 165.556063  L 190.518289 165.556063  L 193.568831 165.556063  L 196.619374 165.556063  L 199.669916 165.556063  L 202.720458 165.556063  L 205.771001 165.556063  L 208.821543 165.556063  L 211.872086 165.556063  L 214.922628 165.556063  L 217.97317 165.556063  L 221.023713 165.556063  L 224.074255 165.556063  L 227.124797 165.556063  L 230.17534 165.556063  L 233.225882 165.556063  "
           clip-path="url(#p06923fa24b)"
           style="fill: none; stroke: #ff0000; stroke-width: 1.5; stroke-linecap: square"
           id="path88" />
      </g>
      <g
         id="line2d_12">
        <path
           d="M 53.243881 131.728218  L 56.294424 131.728218  L 59.344966 131.728218  L 62.395508 131.728218  L 65.446051 131.728218  L 68.496593 131.728218  L 71.547136 131.728218  L 74.597678 131.728218  L 77.64822 131.728218  L 80.698763 131.728218  L 83.749305 131.728218  L 86.799848 131.728218  L 89.85039 131.728218  L 92.900932 131.728218  L 95.951475 131.728218  L 99.002017 131.728218  L 102.052559 131.728218  L 105.103102 131.728218  L 108.153644 131.728218  L 111.204187 131.728218  L 114.254729 131.728218  L 117.305271 131.728218  L 120.355814 131.728218  L 123.406356 131.728218  L 126.456899 131.728218  L 129.507441 131.728218  L 132.557983 131.728218  L 135.608526 131.728218  L 138.659068 131.728218  L 141.709611 131.728218  L 144.760153 131.728218  L 147.810695 131.728218  L 150.861238 131.728218  L 153.91178 131.728218  L 156.962323 131.728218  L 160.012865 131.728218  L 163.063407 131.728218  L 166.11395 131.728218  L 169.164492 131.728218  L 172.215034 131.728218  L 175.265577 131.728218  L 178.316119 131.728218  L 181.366662 131.728218  L 184.417204 131.728218  L 187.467746 131.728218  L 190.518289 131.728218  L 193.568831 131.728218  L 196.619374 131.728218  L 199.669916 131.728218  L 202.720458 131.728218  L 205.771001 131.728218  L 208.821543 131.728218  L 211.872086 131.728218  L 214.922628 131.728218  L 217.97317 131.728218  L 221.023713 131.728218  L 224.074255 131.728218  L 227.124797 131.728218  L 230.17534 131.728218  L 233.225882 131.728218  "
           clip-path="url(#p06923fa24b)"
           style="fill: none; stroke: #ff0000; stroke-width: 1.5; stroke-linecap: square"
           id="path91" />
      </g>
      <g
         id="line2d_13">
        <path
           d="M 116.237582 402.350977  L 116.237582 368.523133  "
           clip-path="url(#p06923fa24b)"
           style="fill: none; stroke-dasharray: 2.59,1.12; stroke-dashoffset: 0; stroke: #000000; stroke-width: 0.7"
           id="path94" />
      </g>
      <g
         id="patch_3">
        <path
           d="M 53.243881 520.748435  L 53.243881 64.178624  "
           style="fill: none; stroke: #000000; stroke-width: 0.8; stroke-linejoin: miter; stroke-linecap: square"
           id="path97" />
      </g>
      <g
         id="patch_4">
        <path
           d="M 233.225882 520.748435  L 233.225882 64.178624  "
           style="fill: none; stroke: #000000; stroke-width: 0.8; stroke-linejoin: miter; stroke-linecap: square"
           id="path100" />
      </g>
      <g
         id="patch_5">
        <path
           d="M 53.243881 520.748435  L 233.225882 520.748435  "
           style="fill: none; stroke: #000000; stroke-width: 0.8; stroke-linejoin: miter; stroke-linecap: square"
           id="path103" />
      </g>
      <g
         id="patch_6">
        <path
           d="M 53.243881 64.178624  L 233.225882 64.178624  "
           style="fill: none; stroke: #000000; stroke-width: 0.8; stroke-linejoin: miter; stroke-linecap: square"
           id="path106" />
      </g>
      <g
         id="text_3">
        <!-- 0 -->
        <g
           transform="translate(242.224982 503.834512) scale(0.18 -0.18)"
           id="g114">
          <defs
             id="defs110">
            <path
               id="CMR17-30"
               d="M 2688 2025  C 2688 2416 2682 3080 2413 3591  C 2176 4039 1798 4198 1466 4198  C 1158 4198 768 4058 525 3597  C 269 3118 243 2524 243 2025  C 243 1661 250 1106 448 619  C 723 -39 1216 -128 1466 -128  C 1760 -128 2208 -7 2470 600  C 2662 1042 2688 1559 2688 2025  z M 1466 -26  C 1056 -26 813 325 723 812  C 653 1188 653 1738 653 2096  C 653 2588 653 2997 736 3387  C 858 3929 1216 4096 1466 4096  C 1728 4096 2067 3923 2189 3400  C 2272 3036 2278 2607 2278 2096  C 2278 1680 2278 1169 2202 792  C 2067 95 1690 -26 1466 -26  z "
               transform="scale(0.015625)" />
          </defs>
          <use
             xlink:href="#CMR17-30"
             transform="scale(0.996264)"
             id="use112" />
        </g>
      </g>
      <g
         id="text_4">
        <!-- 1 -->
        <g
           transform="translate(242.224982 470.006667) scale(0.18 -0.18)"
           id="g122">
          <defs
             id="defs118">
            <path
               id="CMR17-31"
               d="M 1702 4058  C 1702 4192 1696 4192 1606 4192  C 1357 3916 979 3827 621 3827  C 602 3827 570 3827 563 3808  C 557 3795 557 3782 557 3648  C 755 3648 1088 3686 1344 3839  L 1344 461  C 1344 236 1331 160 781 160  L 589 160  L 589 0  C 896 0 1216 0 1523 0  C 1830 0 2150 0 2458 0  L 2458 160  L 2266 160  C 1715 160 1702 230 1702 458  L 1702 4058  z "
               transform="scale(0.015625)" />
          </defs>
          <use
             xlink:href="#CMR17-31"
             transform="scale(0.996264)"
             id="use120" />
        </g>
      </g>
      <g
         id="text_5">
        <!-- 2 -->
        <g
           transform="translate(242.224982 436.178822) scale(0.18 -0.18)"
           id="g130">
          <defs
             id="defs126">
            <path
               id="CMR17-32"
               d="M 2669 989  L 2554 989  C 2490 536 2438 459 2413 420  C 2381 369 1920 369 1830 369  L 602 369  C 832 619 1280 1072 1824 1597  C 2214 1967 2669 2402 2669 3035  C 2669 3790 2067 4224 1395 4224  C 691 4224 262 3604 262 3030  C 262 2780 448 2748 525 2748  C 589 2748 781 2787 781 3010  C 781 3207 614 3264 525 3264  C 486 3264 448 3258 422 3245  C 544 3790 915 4058 1306 4058  C 1862 4058 2227 3617 2227 3035  C 2227 2479 1901 2000 1536 1584  L 262 146  L 262 0  L 2515 0  L 2669 989  z "
               transform="scale(0.015625)" />
          </defs>
          <use
             xlink:href="#CMR17-32"
             transform="scale(0.996264)"
             id="use128" />
        </g>
      </g>
      <g
         id="text_6">
        <!-- 3 -->
        <g
           transform="translate(242.224982 402.350977) scale(0.18 -0.18)"
           id="g138">
          <defs
             id="defs134">
            <path
               id="CMR17-33"
               d="M 1414 2157  C 1984 2157 2234 1662 2234 1090  C 2234 320 1824 25 1453 25  C 1114 25 563 194 390 693  C 422 680 454 680 486 680  C 640 680 755 782 755 948  C 755 1133 614 1216 486 1216  C 378 1216 211 1165 211 926  C 211 335 787 -128 1466 -128  C 2176 -128 2720 430 2720 1085  C 2720 1707 2208 2157 1600 2227  C 2086 2328 2554 2756 2554 3329  C 2554 3820 2048 4179 1472 4179  C 890 4179 378 3829 378 3329  C 378 3110 544 3072 627 3072  C 762 3072 877 3155 877 3321  C 877 3486 762 3569 627 3569  C 602 3569 570 3569 544 3557  C 730 3959 1235 4032 1459 4032  C 1683 4032 2106 3925 2106 3320  C 2106 3143 2080 2828 1862 2550  C 1670 2304 1453 2304 1242 2284  C 1210 2284 1062 2269 1037 2269  C 992 2263 966 2257 966 2208  C 966 2163 973 2157 1101 2157  L 1414 2157  z "
               transform="scale(0.015625)" />
          </defs>
          <use
             xlink:href="#CMR17-33"
             transform="scale(0.996264)"
             id="use136" />
        </g>
      </g>
      <g
         id="text_7">
        <!-- 4 -->
        <g
           transform="translate(242.224982 368.523133) scale(0.18 -0.18)"
           id="g146">
          <defs
             id="defs142">
            <path
               id="CMR17-34"
               d="M 2150 4122  C 2150 4256 2144 4256 2029 4256  L 128 1254  L 128 1088  L 1779 1088  L 1779 457  C 1779 224 1766 160 1318 160  L 1197 160  L 1197 0  C 1402 0 1747 0 1965 0  C 2182 0 2528 0 2733 0  L 2733 160  L 2611 160  C 2163 160 2150 224 2150 457  L 2150 1088  L 2803 1088  L 2803 1254  L 2150 1254  L 2150 4122  z M 1798 3703  L 1798 1254  L 256 1254  L 1798 3703  z "
               transform="scale(0.015625)" />
          </defs>
          <use
             xlink:href="#CMR17-34"
             transform="scale(0.996264)"
             id="use144" />
        </g>
      </g>
      <g
         id="text_8">
        <!-- 5 -->
        <g
           transform="translate(242.224982 334.695288) scale(0.18 -0.18)"
           id="g154">
          <defs
             id="defs150">
            <path
               id="CMR17-35"
               d="M 730 3692  C 794 3666 1056 3584 1325 3584  C 1920 3584 2246 3911 2432 4100  C 2432 4157 2432 4192 2394 4192  C 2387 4192 2374 4192 2323 4163  C 2099 4058 1837 3973 1517 3973  C 1325 3973 1037 3999 723 4139  C 653 4171 640 4171 634 4171  C 602 4171 595 4164 595 4037  L 595 2203  C 595 2089 595 2057 659 2057  C 691 2057 704 2070 736 2114  C 941 2401 1222 2522 1542 2522  C 1766 2522 2246 2382 2246 1289  C 2246 1085 2246 715 2054 421  C 1894 159 1645 25 1370 25  C 947 25 518 320 403 814  C 429 807 480 795 506 795  C 589 795 749 840 749 1038  C 749 1210 627 1280 506 1280  C 358 1280 262 1190 262 1011  C 262 454 704 -128 1382 -128  C 2042 -128 2669 440 2669 1264  C 2669 2030 2170 2624 1549 2624  C 1222 2624 947 2503 730 2274  L 730 3692  z "
               transform="scale(0.015625)" />
          </defs>
          <use
             xlink:href="#CMR17-35"
             transform="scale(0.996264)"
             id="use152" />
        </g>
      </g>
      <g
         id="text_9">
        <!-- 6 -->
        <g
           transform="translate(242.224982 300.867443) scale(0.18 -0.18)"
           id="g162">
          <defs
             id="defs158">
            <path
               id="CMR17-36"
               d="M 678 2176  C 678 3690 1395 4032 1811 4032  C 1946 4032 2272 4009 2400 3776  C 2298 3776 2106 3776 2106 3553  C 2106 3381 2246 3323 2336 3323  C 2394 3323 2566 3348 2566 3560  C 2566 3954 2246 4179 1805 4179  C 1043 4179 243 3390 243 1984  C 243 253 966 -128 1478 -128  C 2099 -128 2688 427 2688 1283  C 2688 2081 2170 2662 1517 2662  C 1126 2662 838 2407 678 1960  L 678 2176  z M 1478 25  C 691 25 691 1200 691 1436  C 691 1896 909 2560 1504 2560  C 1613 2560 1926 2560 2138 2120  C 2253 1870 2253 1609 2253 1289  C 2253 944 2253 690 2118 434  C 1978 171 1773 25 1478 25  z "
               transform="scale(0.015625)" />
          </defs>
          <use
             xlink:href="#CMR17-36"
             transform="scale(0.996264)"
             id="use160" />
        </g>
      </g>
      <g
         id="text_10">
        <!-- 7 -->
        <g
           transform="translate(242.224982 267.039598) scale(0.18 -0.18)"
           id="g170">
          <defs
             id="defs166">
            <path
               id="CMR17-37"
               d="M 2886 3941  L 2886 4081  L 1382 4081  C 634 4081 621 4165 595 4288  L 480 4288  L 294 3094  L 410 3094  C 429 3215 474 3540 550 3661  C 589 3712 1062 3712 1171 3712  L 2579 3712  L 1869 2661  C 1395 1954 1069 999 1069 165  C 1069 89 1069 -128 1299 -128  C 1530 -128 1530 89 1530 171  L 1530 465  C 1530 1508 1709 2196 2003 2636  L 2886 3941  z "
               transform="scale(0.015625)" />
          </defs>
          <use
             xlink:href="#CMR17-37"
             transform="scale(0.996264)"
             id="use168" />
        </g>
      </g>
      <g
         id="text_11">
        <!-- 8 -->
        <g
           transform="translate(242.224982 233.211753) scale(0.18 -0.18)"
           id="g178">
          <defs
             id="defs174">
            <path
               id="CMR17-38"
               d="M 1741 2264  C 2144 2467 2554 2773 2554 3263  C 2554 3841 1990 4179 1472 4179  C 890 4179 378 3759 378 3180  C 378 3021 416 2747 666 2505  C 730 2442 998 2251 1171 2130  C 883 1983 211 1634 211 934  C 211 279 838 -128 1459 -128  C 2144 -128 2720 362 2720 1010  C 2720 1590 2330 1857 2074 2029  L 1741 2264  z M 902 2822  C 851 2854 595 3051 595 3351  C 595 3739 998 4032 1459 4032  C 1965 4032 2336 3676 2336 3262  C 2336 2669 1670 2331 1638 2331  C 1632 2331 1626 2331 1574 2370  L 902 2822  z M 2080 1519  C 2176 1449 2483 1240 2483 851  C 2483 381 2010 25 1472 25  C 890 25 448 438 448 940  C 448 1443 838 1862 1280 2060  L 2080 1519  z "
               transform="scale(0.015625)" />
          </defs>
          <use
             xlink:href="#CMR17-38"
             transform="scale(0.996264)"
             id="use176" />
        </g>
      </g>
      <g
         id="text_12">
        <!-- 9 -->
        <g
           transform="translate(242.224982 199.383908) scale(0.18 -0.18)"
           id="g186">
          <defs
             id="defs182">
            <path
               id="CMR17-39"
               d="M 2253 1864  C 2253 464 1670 31 1190 31  C 1043 31 685 31 538 294  C 704 268 826 357 826 518  C 826 692 685 749 595 749  C 538 749 365 723 365 506  C 365 71 742 -128 1203 -128  C 1939 -128 2688 674 2688 2073  C 2688 3817 1971 4179 1485 4179  C 851 4179 243 3628 243 2778  C 243 1991 762 1408 1414 1408  C 1952 1408 2189 1903 2253 2112  L 2253 1864  z M 1427 1510  C 1254 1510 1011 1542 813 1922  C 678 2169 678 2461 678 2771  C 678 3146 678 3405 858 3684  C 947 3817 1114 4032 1485 4032  C 2240 4032 2240 2885 2240 2632  C 2240 2182 2035 1510 1427 1510  z "
               transform="scale(0.015625)" />
          </defs>
          <use
             xlink:href="#CMR17-39"
             transform="scale(0.996264)"
             id="use184" />
        </g>
      </g>
      <g
         id="text_13">
        <!-- 10 -->
        <g
           transform="translate(242.224982 165.556063) scale(0.18 -0.18)"
           id="g193">
          <use
             xlink:href="#CMR17-31"
             transform="scale(0.996264)"
             id="use189" />
          <use
             xlink:href="#CMR17-30"
             transform="translate(45.690477 0) scale(0.996264)"
             id="use191" />
        </g>
      </g>
      <g
         id="text_14">
        <!-- 11 -->
        <g
           transform="translate(242.224982 131.728218) scale(0.18 -0.18)"
           id="g200">
          <use
             xlink:href="#CMR17-31"
             transform="scale(0.996264)"
             id="use196" />
          <use
             xlink:href="#CMR17-31"
             transform="translate(45.690477 0) scale(0.996264)"
             id="use198" />
        </g>
      </g>
      <g
         id="text_15">
        <!-- N -->
        <g
           transform="translate(242.224982 97.900373) scale(0.22 -0.22)"
           id="g208">
          <defs
             id="defs204">
            <path
               id="CMR17-4e"
               d="M 1312 4250  C 1267 4320 1261 4320 1139 4320  L 326 4320  L 326 4160  L 448 4160  C 704 4160 819 4129 838 4122  L 838 610  C 838 451 838 153 326 153  L 326 -13  C 474 0 742 0 902 0  C 1062 0 1331 0 1478 -13  L 1478 153  C 966 153 966 451 966 610  L 966 4033  C 1011 3995 1011 3982 1056 3919  L 3430 76  C 3475 0 3494 0 3526 0  C 3590 0 3590 19 3590 139  L 3590 3705  C 3590 3863 3590 4160 4102 4160  L 4102 4326  C 3955 4320 3686 4320 3526 4320  C 3366 4320 3098 4320 2950 4326  L 2950 4160  C 3462 4160 3462 3862 3462 3703  L 3462 763  L 1312 4250  z "
               transform="scale(0.015625)" />
          </defs>
          <use
             xlink:href="#CMR17-4e"
             transform="scale(0.996264)"
             id="use206" />
        </g>
      </g>
      <g
         id="text_16">
        <!-- $\Delta E=\hbar \omega_c$ -->
        <g
           transform="translate(120.737132 391.075029) scale(0.16 -0.16)"
           id="g234">
          <defs
             id="defs218">
            <path
               id="CMR17-1"
               d="M 2598 4403  C 2547 4512 2522 4512 2470 4512  C 2394 4512 2387 4499 2342 4409  L 269 109  C 262 96 237 38 237 32  C 237 6 243 0 358 0  L 4576 0  C 4691 0 4698 6 4698 32  C 4698 38 4672 96 4666 109  L 2598 4403  z M 2310 4038  L 4083 358  L 531 358  L 2310 4038  z "
               transform="scale(0.015625)" />
            <path
               id="CMMI12-45"
               d="M 4448 1489  C 4454 1508 4474 1554 4474 1579  C 4474 1611 4448 1643 4410 1643  C 4384 1643 4371 1637 4352 1617  C 4339 1611 4339 1598 4282 1469  C 3904 570 3629 185 2605 185  L 1670 185  C 1581 185 1568 185 1530 192  C 1459 198 1453 211 1453 262  C 1453 307 1466 345 1478 403  L 1920 2176  L 2554 2176  C 3053 2176 3091 2066 3091 1874  C 3091 1810 3091 1752 3046 1560  C 3034 1534 3027 1508 3027 1489  C 3027 1444 3059 1425 3098 1425  C 3155 1425 3162 1469 3187 1559  L 3552 3042  C 3552 3073 3526 3105 3488 3105  C 3430 3105 3424 3080 3398 2990  C 3270 2501 3142 2361 2573 2361  L 1965 2361  L 2362 3930  C 2419 4154 2432 4154 2694 4154  L 3610 4154  C 4397 4154 4557 3943 4557 3458  C 4557 3451 4557 3273 4531 3062  C 4525 3036 4518 2998 4518 2985  C 4518 2934 4550 2915 4589 2915  C 4634 2915 4659 2941 4672 3055  L 4806 4174  C 4806 4195 4819 4263 4819 4277  C 4819 4352 4762 4352 4646 4352  L 1523 4352  C 1402 4352 1338 4352 1338 4229  C 1338 4154 1382 4154 1491 4154  C 1888 4154 1888 4114 1888 4052  C 1888 4020 1882 3994 1862 3924  L 998 473  C 941 249 928 185 480 185  C 358 185 294 185 294 70  C 294 0 333 0 461 0  L 3674 0  C 3814 0 3821 6 3866 110  L 4448 1489  z "
               transform="scale(0.015625)" />
            <path
               id="CMR17-3d"
               d="M 4115 2017  C 4211 2017 4307 2017 4307 2125  C 4307 2240 4198 2240 4090 2240  L 512 2240  C 403 2240 294 2240 294 2125  C 294 2017 390 2017 486 2017  L 4115 2017  z M 4090 896  C 4198 896 4307 896 4307 1011  C 4307 1119 4211 1119 4115 1119  L 486 1119  C 390 1119 294 1119 294 1011  C 294 896 403 896 512 896  L 4090 896  z "
               transform="scale(0.015625)" />
            <path
               id="CMR17-16"
               d="M 2554 3520  L 2554 3666  L 378 3666  L 378 3520  L 2554 3520  z "
               transform="scale(0.015625)" />
            <path
               id="CMMI12-68"
               d="M 1798 4257  C 1805 4283 1818 4321 1818 4352  C 1818 4416 1754 4416 1741 4416  C 1734 4416 1421 4388 1389 4380  C 1280 4373 1184 4358 1069 4358  C 909 4345 864 4339 864 4224  C 864 4160 915 4160 1005 4160  C 1318 4160 1325 4103 1325 4040  C 1325 4002 1312 3951 1306 3932  L 378 248  C 352 152 352 140 352 101  C 352 -38 461 -64 525 -64  C 634 -64 717 19 749 89  L 1037 1245  C 1069 1386 1107 1520 1139 1660  C 1210 1929 1210 1935 1331 2120  C 1453 2305 1741 2689 2234 2689  C 2490 2689 2579 2497 2579 2242  C 2579 1884 2330 1188 2189 805  C 2131 651 2099 568 2099 453  C 2099 166 2298 -64 2605 -64  C 3200 -64 3424 875 3424 913  C 3424 945 3398 971 3360 971  C 3302 971 3296 952 3264 843  C 3117 332 2880 64 2624 64  C 2560 64 2458 64 2458 269  C 2458 436 2534 640 2560 710  C 2675 1018 2963 1773 2963 2145  C 2963 2528 2739 2816 2253 2816  C 1888 2816 1568 2644 1306 2312  L 1798 4257  z "
               transform="scale(0.015625)" />
            <path
               id="CMMI12-21"
               d="M 3802 2395  C 3802 2580 3750 2816 3526 2816  C 3398 2816 3251 2657 3251 2529  C 3251 2472 3277 2434 3328 2376  C 3424 2268 3546 2096 3546 1797  C 3546 1567 3405 1204 3302 1007  C 3123 656 2829 357 2496 357  C 2093 357 1939 615 1869 975  C 1939 1143 2086 1560 2086 1728  C 2086 1798 2061 1856 1978 1856  C 1933 1856 1882 1831 1850 1779  C 1760 1638 1677 1129 1683 994  C 1562 756 1216 357 806 357  C 378 357 262 733 262 1096  C 262 1758 678 2338 794 2497  C 858 2593 902 2657 902 2669  C 902 2714 877 2784 819 2784  C 717 2784 685 2701 634 2625  C 307 2121 77 1414 77 803  C 77 408 224 -64 704 -64  C 1235 -64 1568 391 1702 634  C 1754 275 1946 -64 2413 -64  C 2899 -64 3206 363 3437 879  C 3603 1249 3802 2045 3802 2395  z "
               transform="scale(0.015625)" />
            <path
               id="CMMI12-63"
               d="M 2502 2431  C 2381 2431 2323 2431 2234 2355  C 2195 2323 2125 2227 2125 2125  C 2125 1997 2221 1920 2342 1920  C 2496 1920 2669 2044 2669 2292  C 2669 2588 2374 2816 1933 2816  C 1094 2816 256 1903 256 996  C 256 441 602 -64 1254 -64  C 2125 -64 2675 622 2675 706  C 2675 744 2637 776 2611 776  C 2592 776 2586 770 2528 713  C 2118 162 1510 64 1267 64  C 826 64 685 446 685 764  C 685 988 794 1605 1024 2039  C 1190 2338 1536 2682 1939 2682  C 2022 2682 2374 2682 2502 2431  z "
               transform="scale(0.015625)" />
          </defs>
          <use
             xlink:href="#CMR17-1"
             transform="scale(0.996264)"
             id="use220" />
          <use
             xlink:href="#CMMI12-45"
             transform="translate(76.91959 0) scale(0.996264)"
             id="use222" />
          <use
             xlink:href="#CMR17-3d"
             transform="translate(182.645235 0) scale(0.996264)"
             id="use224" />
          <use
             xlink:href="#CMR17-16"
             transform="translate(282.034032 0) scale(0.996264)"
             id="use226" />
          <use
             xlink:href="#CMMI12-68"
             transform="translate(277.911293 0) scale(0.996264)"
             id="use228" />
          <use
             xlink:href="#CMMI12-21"
             transform="translate(334.065917 0) scale(0.996264)"
             id="use230" />
          <use
             xlink:href="#CMMI12-63"
             transform="translate(394.809671 -14.943915) scale(0.697382)"
             id="use232" />
        </g>
      </g>
      <g
         id="text_17">
        <!-- LLs ($B$=const.) -->
        <g
           transform="translate(73.376489 40.178624) scale(0.22 -0.22)"
           id="g274">
          <defs
             id="defs246">
            <path
               id="CMR17-4c"
               d="M 3469 1615  L 3354 1615  C 3302 983 3219 166 2125 166  L 1530 166  C 1274 166 1261 197 1261 414  L 1261 3898  C 1261 4129 1274 4192 1760 4192  L 1901 4192  L 1901 4352  C 1638 4352 1331 4352 1069 4352  C 870 4352 512 4352 326 4352  L 326 4192  C 768 4192 838 4192 838 3905  L 838 452  C 838 166 768 166 326 166  L 326 0  L 3315 0  L 3469 1615  z "
               transform="scale(0.015625)" />
            <path
               id="CMR17-73"
               d="M 1978 2697  C 1978 2813 1971 2819 1933 2819  C 1907 2819 1901 2813 1824 2717  C 1805 2691 1747 2626 1728 2601  C 1523 2819 1235 2819 1126 2819  C 416 2819 160 2447 160 2076  C 160 1498 813 1365 998 1325  C 1402 1243 1542 1217 1677 1101  C 1760 1025 1901 884 1901 654  C 1901 384 1747 38 1158 38  C 602 38 403 460 288 1021  C 269 1110 269 1117 218 1117  C 166 1117 160 1110 160 983  L 160 63  C 160 -51 166 -58 205 -58  C 237 -58 243 -51 275 0  C 314 57 410 211 448 276  C 576 103 800 -64 1158 -64  C 1792 -64 2131 283 2131 784  C 2131 1112 1958 1285 1875 1362  C 1683 1561 1459 1606 1190 1657  C 838 1735 390 1825 390 2217  C 390 2383 480 2737 1126 2737  C 1811 2737 1850 2094 1862 1888  C 1869 1856 1901 1849 1920 1849  C 1978 1849 1978 1869 1978 1978  L 1978 2697  z "
               transform="scale(0.015625)" />
            <path
               id="CMR17-28"
               d="M 1958 -1561  C 1958 -1555 1958 -1542 1939 -1523  C 1645 -1224 858 -407 858 1581  C 858 3569 1632 4379 1946 4697  C 1946 4704 1958 4717 1958 4736  C 1958 4755 1939 4768 1914 4768  C 1843 4768 1299 4296 986 3594  C 666 2887 576 2199 576 1588  C 576 1128 621 351 1005 -471  C 1312 -1135 1837 -1600 1914 -1600  C 1946 -1600 1958 -1587 1958 -1561  z "
               transform="scale(0.015625)" />
            <path
               id="CMMI12-42"
               d="M 2342 3921  C 2400 4160 2426 4160 2675 4160  L 3507 4160  C 4230 4160 4230 3544 4230 3485  C 4230 2966 3712 2304 2867 2304  L 1946 2304  L 2342 3921  z M 3424 2275  C 4122 2402 4755 2886 4755 3473  C 4755 3970 4314 4352 3590 4352  L 1536 4352  C 1414 4352 1357 4352 1357 4226  C 1357 4160 1414 4160 1510 4160  C 1901 4160 1901 4112 1901 4044  C 1901 4032 1901 3993 1875 3897  L 1011 472  C 954 249 941 185 493 185  C 371 185 307 185 307 70  C 307 0 346 0 474 0  L 2669 0  C 3648 0 4403 739 4403 1383  C 4403 1906 3942 2224 3424 2275  z M 2515 185  L 1651 185  C 1562 185 1549 185 1510 192  C 1440 198 1434 211 1434 261  C 1434 305 1446 343 1459 399  L 1907 2176  L 3110 2176  C 3866 2176 3866 1483 3866 1433  C 3866 828 3309 185 2515 185  z "
               transform="scale(0.015625)" />
            <path
               id="CMR17-63"
               d="M 2234 2240  C 2112 2240 1933 2240 1933 2017  C 1933 1838 2080 1787 2163 1787  C 2208 1787 2394 1807 2394 2024  C 2394 2467 1958 2803 1466 2803  C 787 2803 211 2178 211 1363  C 211 516 813 -64 1466 -64  C 2259 -64 2458 677 2458 748  C 2458 774 2451 793 2406 793  C 2362 793 2355 787 2330 703  C 2163 180 1798 51 1523 51  C 1114 51 621 427 621 1369  C 621 2338 1094 2688 1472 2688  C 1722 2688 2093 2573 2234 2240  z "
               transform="scale(0.015625)" />
            <path
               id="CMR17-6f"
               d="M 2758 1356  C 2758 2176 2163 2816 1466 2816  C 768 2816 173 2176 173 1356  C 173 551 768 -64 1466 -64  C 2163 -64 2758 551 2758 1356  z M 1466 51  C 1165 51 909 230 762 480  C 602 767 582 1126 582 1408  C 582 1677 595 2010 762 2298  C 890 2509 1139 2714 1466 2714  C 1754 2714 1997 2554 2150 2330  C 2349 2029 2349 1607 2349 1408  C 2349 1158 2336 775 2163 467  C 1984 173 1709 51 1466 51  z "
               transform="scale(0.015625)" />
            <path
               id="CMR17-74"
               d="M 966 2560  L 1862 2560  L 1862 2725  L 966 2725  L 966 3904  L 851 3904  C 838 3245 614 2668 70 2668  L 70 2560  L 627 2560  L 627 771  C 627 650 627 -64 1370 -64  C 1747 -64 1965 306 1965 777  L 1965 1140  L 1850 1140  L 1850 783  C 1850 344 1677 51 1408 51  C 1222 51 966 178 966 758  L 966 2560  z "
               transform="scale(0.015625)" />
            <path
               id="CMR17-2e"
               d="M 1062 261  C 1062 420 934 522 800 522  C 672 522 538 420 538 261  C 538 102 666 0 800 0  C 928 0 1062 102 1062 261  z "
               transform="scale(0.015625)" />
            <path
               id="CMR17-29"
               d="M 1683 1581  C 1683 2040 1638 2817 1254 3639  C 947 4303 422 4768 346 4768  C 326 4768 301 4761 301 4729  C 301 4717 307 4710 314 4697  C 621 4378 1402 3568 1402 1584  C 1402 -407 627 -1217 314 -1537  C 307 -1549 301 -1556 301 -1568  C 301 -1600 326 -1600 346 -1600  C 416 -1600 960 -1128 1274 -426  C 1594 281 1683 969 1683 1581  z "
               transform="scale(0.015625)" />
          </defs>
          <use
             xlink:href="#CMR17-4c"
             transform="scale(0.996264)"
             id="use248" />
          <use
             xlink:href="#CMR17-4c"
             transform="translate(57.381408 0) scale(0.996264)"
             id="use250" />
          <use
             xlink:href="#CMR17-73"
             transform="translate(114.762816 0) scale(0.996264)"
             id="use252" />
          <use
             xlink:href="#CMR17-28"
             transform="translate(180.64012 0) scale(0.996264)"
             id="use254" />
          <use
             xlink:href="#CMMI12-42"
             transform="translate(215.920887 0) scale(0.996264)"
             id="use256" />
          <use
             xlink:href="#CMR17-3d"
             transform="translate(295.056411 0) scale(0.996264)"
             id="use258" />
          <use
             xlink:href="#CMR17-63"
             transform="translate(366.771199 0) scale(0.996264)"
             id="use260" />
          <use
             xlink:href="#CMR17-6f"
             transform="translate(407.25686 0) scale(0.996264)"
             id="use262" />
          <use
             xlink:href="#CMR17-6e"
             transform="translate(452.947337 0) scale(0.996264)"
             id="use264" />
          <use
             xlink:href="#CMR17-73"
             transform="translate(503.842707 0) scale(0.996264)"
             id="use266" />
          <use
             xlink:href="#CMR17-74"
             transform="translate(539.644044 0) scale(0.996264)"
             id="use268" />
          <use
             xlink:href="#CMR17-2e"
             transform="translate(574.924812 0) scale(0.996264)"
             id="use270" />
          <use
             xlink:href="#CMR17-29"
             transform="translate(599.79587 0) scale(0.996264)"
             id="use272" />
        </g>
      </g>
    </g>
    <g
       id="axes_2">
      <g
         id="patch_7">
        <path
           d="M 311.372881 520.748435  L 671.336883 520.748435  L 671.336883 64.178624  L 311.372881 64.178624  z "
           style="fill: #ffffff"
           id="path278" />
      </g>
      <g
         id="matplotlib.axis_3">
        <g
           id="text_18">
          <!-- Magnetic Field -->
          <g
             transform="translate(425.435279 545.969128) scale(0.22 -0.22)"
             id="g315">
            <defs
               id="defs287">
              <path
                 id="CMR17-4d"
                 d="M 1338 4224  C 1299 4320 1293 4320 1158 4320  L 339 4320  L 339 4160  C 781 4160 851 4160 851 3875  L 851 610  C 851 451 851 153 339 153  L 339 -13  C 486 0 755 0 915 0  C 1075 0 1344 0 1491 -13  L 1491 153  C 979 153 979 451 979 610  L 979 4135  L 986 4135  L 2490 89  C 2515 25 2528 -13 2579 -13  C 2630 -13 2643 25 2669 89  L 4186 4166  L 4192 4166  L 4192 438  C 4192 153 4122 153 3680 153  L 3680 -13  C 3853 0 4198 0 4384 0  C 4570 0 4922 0 5094 -13  L 5094 153  C 4653 153 4582 153 4582 438  L 4582 3875  C 4582 4160 4653 4160 5094 4160  L 5094 4320  L 4282 4320  C 4147 4320 4141 4314 4102 4218  L 2720 502  L 1338 4224  z "
                 transform="scale(0.015625)" />
              <path
                 id="CMR17-61"
                 d="M 2304 1653  C 2304 2072 2304 2294 2035 2543  C 1798 2752 1523 2816 1306 2816  C 800 2816 435 2407 435 1971  C 435 1728 627 1728 666 1728  C 749 1728 896 1778 896 1954  C 896 2112 774 2181 666 2181  C 640 2181 608 2174 589 2168  C 723 2592 1069 2714 1293 2714  C 1613 2714 1965 2429 1965 1885  L 1965 1600  C 1587 1600 1133 1549 774 1357  C 371 1133 256 813 256 570  C 256 77 832 -64 1171 -64  C 1523 -64 1850 139 1990 511  C 2003 233 2182 -18 2464 -18  C 2598 -18 2938 70 2938 567  L 2938 920  L 2822 920  L 2822 562  C 2822 178 2650 128 2566 128  C 2304 128 2304 458 2304 738  L 2304 1653  z M 1965 870  C 1965 317 1568 38 1216 38  C 896 38 646 275 646 570  C 646 761 730 1100 1101 1305  C 1408 1478 1760 1504 1965 1504  L 1965 870  z "
                 transform="scale(0.015625)" />
              <path
                 id="CMR17-69"
                 d="M 992 3909  C 992 4049 877 4170 730 4170  C 589 4170 467 4056 467 3909  C 467 3769 582 3648 730 3648  C 870 3648 992 3763 992 3909  z M 243 2706  L 243 2541  C 602 2541 653 2502 653 2197  L 653 427  C 653 184 627 153 218 153  L 218 -13  C 371 0 646 0 806 0  C 960 0 1222 0 1370 -13  L 1370 153  C 992 153 979 191 979 420  L 979 2776  L 243 2706  z "
                 transform="scale(0.015625)" />
              <path
                 id="CMR17-46"
                 d="M 3482 4325  L 326 4325  L 326 4160  C 768 4160 838 4160 838 3874  L 838 446  C 838 160 768 160 326 160  L 326 0  C 512 0 870 0 1069 0  C 1331 0 1638 0 1901 0  L 1901 160  L 1760 160  C 1274 160 1261 223 1261 452  L 1261 2075  L 1837 2075  C 2432 2075 2490 1865 2490 1332  L 2605 1332  L 2605 2987  L 2490 2987  C 2490 2450 2432 2240 1837 2240  L 1261 2240  L 1261 3911  C 1261 4128 1274 4160 1530 4160  L 2355 4160  C 3322 4160 3430 3765 3520 2916  L 3635 2916  L 3482 4325  z "
                 transform="scale(0.015625)" />
              <path
                 id="CMR17-6c"
                 d="M 979 4396  L 218 4326  L 218 4160  C 595 4160 653 4122 653 3817  L 653 426  C 653 184 627 153 218 153  L 218 -13  C 371 0 653 0 813 0  C 979 0 1261 0 1414 -13  L 1414 153  C 1005 153 979 178 979 426  L 979 4396  z "
                 transform="scale(0.015625)" />
              <path
                 id="CMR17-64"
                 d="M 1869 4326  L 1869 4160  C 2246 4160 2304 4122 2304 3820  L 2304 2345  C 2278 2377 2016 2790 1498 2790  C 845 2790 211 2208 211 1364  C 211 525 806 -64 1434 -64  C 1978 -64 2259 337 2291 380  L 2291 -63  L 3066 -63  L 3066 128  C 2688 128 2630 166 2630 473  L 2630 4396  L 1869 4326  z M 2291 755  C 2291 563 2176 390 2029 262  C 1811 70 1594 38 1472 38  C 1286 38 621 134 621 1356  C 621 2612 1363 2688 1530 2688  C 1824 2688 2061 2522 2208 2291  C 2291 2157 2291 2138 2291 2023  L 2291 755  z "
                 transform="scale(0.015625)" />
            </defs>
            <use
               xlink:href="#CMR17-4d"
               transform="scale(0.996264)"
               id="use289" />
            <use
               xlink:href="#CMR17-61"
               transform="translate(84.686941 0) scale(0.996264)"
               id="use291" />
            <use
               xlink:href="#CMR17-67"
               transform="translate(130.377418 0) scale(0.996264)"
               id="use293" />
            <use
               xlink:href="#CMR17-6e"
               transform="translate(176.067895 0) scale(0.996264)"
               id="use295" />
            <use
               xlink:href="#CMR17-65"
               transform="translate(226.963265 0) scale(0.996264)"
               id="use297" />
            <use
               xlink:href="#CMR17-74"
               transform="translate(267.448925 0) scale(0.996264)"
               id="use299" />
            <use
               xlink:href="#CMR17-69"
               transform="translate(302.729693 0) scale(0.996264)"
               id="use301" />
            <use
               xlink:href="#CMR17-63"
               transform="translate(327.600751 0) scale(0.996264)"
               id="use303" />
            <use
               xlink:href="#CMR17-46"
               transform="translate(398.162378 0) scale(0.996264)"
               id="use305" />
            <use
               xlink:href="#CMR17-69"
               transform="translate(458.146225 0) scale(0.996264)"
               id="use307" />
            <use
               xlink:href="#CMR17-65"
               transform="translate(483.017283 0) scale(0.996264)"
               id="use309" />
            <use
               xlink:href="#CMR17-6c"
               transform="translate(523.502944 0) scale(0.996264)"
               id="use311" />
            <use
               xlink:href="#CMR17-64"
               transform="translate(548.374002 0) scale(0.996264)"
               id="use313" />
          </g>
        </g>
      </g>
      <g
         id="matplotlib.axis_4">
        <g
           id="text_19">
          <!-- Energy -->
          <g
             transform="translate(297.109693 323.618982) rotate(-90) scale(0.22 -0.22)"
             id="g331">
            <use
               xlink:href="#CMR17-45"
               transform="scale(0.996264)"
               id="use319" />
            <use
               xlink:href="#CMR17-6e"
               transform="translate(62.586301 0) scale(0.996264)"
               id="use321" />
            <use
               xlink:href="#CMR17-65"
               transform="translate(113.48167 0) scale(0.996264)"
               id="use323" />
            <use
               xlink:href="#CMR17-72"
               transform="translate(153.967331 0) scale(0.996264)"
               id="use325" />
            <use
               xlink:href="#CMR17-67"
               transform="translate(189.248099 0) scale(0.996264)"
               id="use327" />
            <use
               xlink:href="#CMR17-79"
               transform="translate(234.938576 0) scale(0.996264)"
               id="use329" />
          </g>
        </g>
      </g>
      <g
         id="line2d_14">
        <path
           d="M 311.372881 520.748435  L 317.473966 520.461758  L 323.57505 520.175081  L 329.676135 519.888405  L 335.77722 519.601728  L 341.878305 519.315051  L 347.979389 519.028375  L 354.080474 518.741698  L 360.181559 518.455021  L 366.282644 518.168345  L 372.383729 517.881668  L 378.484813 517.594991  L 384.585898 517.308315  L 390.686983 517.021638  L 396.788068 516.734961  L 402.889152 516.448285  L 408.990237 516.161608  L 415.091322 515.874931  L 421.192407 515.588255  L 427.293492 515.301578  L 433.394576 515.014902  L 439.495661 514.728225  L 445.596746 514.441548  L 451.697831 514.154872  L 457.798915 513.868195  L 463.9 513.581518  L 470.001085 513.294842  L 476.10217 513.008165  L 482.203255 512.721488  L 488.304339 512.434812  L 494.405424 512.148135  L 500.506509 511.861458  L 506.607594 511.574782  L 512.708678 511.288105  L 518.809763 511.001428  L 524.910848 510.714752  L 531.011933 510.428075  L 537.113018 510.141398  L 543.214102 509.854722  L 549.315187 509.568045  L 555.416272 509.281368  L 561.517357 508.994692  L 567.618442 508.708015  L 573.719526 508.421339  L 579.820611 508.134662  L 585.921696 507.847985  L 592.022781 507.561309  L 598.123865 507.274632  L 604.22495 506.987955  L 610.326035 506.701279  L 616.42712 506.414602  L 622.528205 506.127925  L 628.629289 505.841249  L 634.730374 505.554572  L 640.831459 505.267895  L 646.932544 504.981219  L 653.033628 504.694542  L 659.134713 504.407865  L 665.235798 504.121189  L 671.336883 503.834512  "
           clip-path="url(#p9f6eabb0c6)"
           style="fill: none; stroke: #ff0000; stroke-width: 1.5; stroke-linecap: square"
           id="path335" />
      </g>
      <g
         id="line2d_15">
        <path
           d="M 311.372881 520.748435  L 317.473966 519.888405  L 323.57505 519.028375  L 329.676135 518.168345  L 335.77722 517.308315  L 341.878305 516.448285  L 347.979389 515.588255  L 354.080474 514.728225  L 360.181559 513.868195  L 366.282644 513.008165  L 372.383729 512.148135  L 378.484813 511.288105  L 384.585898 510.428075  L 390.686983 509.568045  L 396.788068 508.708015  L 402.889152 507.847985  L 408.990237 506.987955  L 415.091322 506.127925  L 421.192407 505.267895  L 427.293492 504.407865  L 433.394576 503.547835  L 439.495661 502.687806  L 445.596746 501.827776  L 451.697831 500.967746  L 457.798915 500.107716  L 463.9 499.247686  L 470.001085 498.387656  L 476.10217 497.527626  L 482.203255 496.667596  L 488.304339 495.807566  L 494.405424 494.947536  L 500.506509 494.087506  L 506.607594 493.227476  L 512.708678 492.367446  L 518.809763 491.507416  L 524.910848 490.647386  L 531.011933 489.787356  L 537.113018 488.927326  L 543.214102 488.067296  L 549.315187 487.207266  L 555.416272 486.347236  L 561.517357 485.487206  L 567.618442 484.627176  L 573.719526 483.767146  L 579.820611 482.907117  L 585.921696 482.047087  L 592.022781 481.187057  L 598.123865 480.327027  L 604.22495 479.466997  L 610.326035 478.606967  L 616.42712 477.746937  L 622.528205 476.886907  L 628.629289 476.026877  L 634.730374 475.166847  L 640.831459 474.306817  L 646.932544 473.446787  L 653.033628 472.586757  L 659.134713 471.726727  L 665.235798 470.866697  L 671.336883 470.006667  "
           clip-path="url(#p9f6eabb0c6)"
           style="fill: none; stroke: #ff0000; stroke-width: 1.5; stroke-linecap: square"
           id="path338" />
      </g>
      <g
         id="line2d_16">
        <path
           d="M 311.372881 520.748435  L 317.473966 519.315051  L 323.57505 517.881668  L 329.676135 516.448285  L 335.77722 515.014902  L 341.878305 513.581518  L 347.979389 512.148135  L 354.080474 510.714752  L 360.181559 509.281368  L 366.282644 507.847985  L 372.383729 506.414602  L 378.484813 504.981219  L 384.585898 503.547835  L 390.686983 502.114452  L 396.788068 500.681069  L 402.889152 499.247686  L 408.990237 497.814302  L 415.091322 496.380919  L 421.192407 494.947536  L 427.293492 493.514153  L 433.394576 492.080769  L 439.495661 490.647386  L 445.596746 489.214003  L 451.697831 487.78062  L 457.798915 486.347236  L 463.9 484.913853  L 470.001085 483.48047  L 476.10217 482.047087  L 482.203255 480.613703  L 488.304339 479.18032  L 494.405424 477.746937  L 500.506509 476.313554  L 506.607594 474.88017  L 512.708678 473.446787  L 518.809763 472.013404  L 524.910848 470.580021  L 531.011933 469.146637  L 537.113018 467.713254  L 543.214102 466.279871  L 549.315187 464.846487  L 555.416272 463.413104  L 561.517357 461.979721  L 567.618442 460.546338  L 573.719526 459.112954  L 579.820611 457.679571  L 585.921696 456.246188  L 592.022781 454.812805  L 598.123865 453.379421  L 604.22495 451.946038  L 610.326035 450.512655  L 616.42712 449.079272  L 622.528205 447.645888  L 628.629289 446.212505  L 634.730374 444.779122  L 640.831459 443.345739  L 646.932544 441.912355  L 653.033628 440.478972  L 659.134713 439.045589  L 665.235798 437.612206  L 671.336883 436.178822  "
           clip-path="url(#p9f6eabb0c6)"
           style="fill: none; stroke: #ff0000; stroke-width: 1.5; stroke-linecap: square"
           id="path341" />
      </g>
      <g
         id="line2d_17">
        <path
           d="M 311.372881 520.748435  L 317.473966 518.741698  L 323.57505 516.734961  L 329.676135 514.728225  L 335.77722 512.721488  L 341.878305 510.714752  L 347.979389 508.708015  L 354.080474 506.701279  L 360.181559 504.694542  L 366.282644 502.687806  L 372.383729 500.681069  L 378.484813 498.674332  L 384.585898 496.667596  L 390.686983 494.660859  L 396.788068 492.654123  L 402.889152 490.647386  L 408.990237 488.64065  L 415.091322 486.633913  L 421.192407 484.627176  L 427.293492 482.62044  L 433.394576 480.613703  L 439.495661 478.606967  L 445.596746 476.60023  L 451.697831 474.593494  L 457.798915 472.586757  L 463.9 470.580021  L 470.001085 468.573284  L 476.10217 466.566547  L 482.203255 464.559811  L 488.304339 462.553074  L 494.405424 460.546338  L 500.506509 458.539601  L 506.607594 456.532865  L 512.708678 454.526128  L 518.809763 452.519391  L 524.910848 450.512655  L 531.011933 448.505918  L 537.113018 446.499182  L 543.214102 444.492445  L 549.315187 442.485709  L 555.416272 440.478972  L 561.517357 438.472236  L 567.618442 436.465499  L 573.719526 434.458762  L 579.820611 432.452026  L 585.921696 430.445289  L 592.022781 428.438553  L 598.123865 426.431816  L 604.22495 424.42508  L 610.326035 422.418343  L 616.42712 420.411606  L 622.528205 418.40487  L 628.629289 416.398133  L 634.730374 414.391397  L 640.831459 412.38466  L 646.932544 410.377924  L 653.033628 408.371187  L 659.134713 406.364451  L 665.235798 404.357714  L 671.336883 402.350977  "
           clip-path="url(#p9f6eabb0c6)"
           style="fill: none; stroke: #ff0000; stroke-width: 1.5; stroke-linecap: square"
           id="path344" />
      </g>
      <g
         id="line2d_18">
        <path
           d="M 311.372881 520.748435  L 317.473966 518.168345  L 323.57505 515.588255  L 329.676135 513.008165  L 335.77722 510.428075  L 341.878305 507.847985  L 347.979389 505.267895  L 354.080474 502.687806  L 360.181559 500.107716  L 366.282644 497.527626  L 372.383729 494.947536  L 378.484813 492.367446  L 384.585898 489.787356  L 390.686983 487.207266  L 396.788068 484.627176  L 402.889152 482.047087  L 408.990237 479.466997  L 415.091322 476.886907  L 421.192407 474.306817  L 427.293492 471.726727  L 433.394576 469.146637  L 439.495661 466.566547  L 445.596746 463.986458  L 451.697831 461.406368  L 457.798915 458.826278  L 463.9 456.246188  L 470.001085 453.666098  L 476.10217 451.086008  L 482.203255 448.505918  L 488.304339 445.925828  L 494.405424 443.345739  L 500.506509 440.765649  L 506.607594 438.185559  L 512.708678 435.605469  L 518.809763 433.025379  L 524.910848 430.445289  L 531.011933 427.865199  L 537.113018 425.28511  L 543.214102 422.70502  L 549.315187 420.12493  L 555.416272 417.54484  L 561.517357 414.96475  L 567.618442 412.38466  L 573.719526 409.80457  L 579.820611 407.224481  L 585.921696 404.644391  L 592.022781 402.064301  L 598.123865 399.484211  L 604.22495 396.904121  L 610.326035 394.324031  L 616.42712 391.743941  L 622.528205 389.163851  L 628.629289 386.583762  L 634.730374 384.003672  L 640.831459 381.423582  L 646.932544 378.843492  L 653.033628 376.263402  L 659.134713 373.683312  L 665.235798 371.103222  L 671.336883 368.523133  "
           clip-path="url(#p9f6eabb0c6)"
           style="fill: none; stroke: #ff0000; stroke-width: 1.5; stroke-linecap: square"
           id="path347" />
      </g>
      <g
         id="line2d_19">
        <path
           d="M 311.372881 520.748435  L 317.473966 517.594991  L 323.57505 514.441548  L 329.676135 511.288105  L 335.77722 508.134662  L 341.878305 504.981219  L 347.979389 501.827776  L 354.080474 498.674332  L 360.181559 495.520889  L 366.282644 492.367446  L 372.383729 489.214003  L 378.484813 486.06056  L 384.585898 482.907117  L 390.686983 479.753673  L 396.788068 476.60023  L 402.889152 473.446787  L 408.990237 470.293344  L 415.091322 467.139901  L 421.192407 463.986458  L 427.293492 460.833014  L 433.394576 457.679571  L 439.495661 454.526128  L 445.596746 451.372685  L 451.697831 448.219242  L 457.798915 445.065799  L 463.9 441.912355  L 470.001085 438.758912  L 476.10217 435.605469  L 482.203255 432.452026  L 488.304339 429.298583  L 494.405424 426.14514  L 500.506509 422.991696  L 506.607594 419.838253  L 512.708678 416.68481  L 518.809763 413.531367  L 524.910848 410.377924  L 531.011933 407.224481  L 537.113018 404.071037  L 543.214102 400.917594  L 549.315187 397.764151  L 555.416272 394.610708  L 561.517357 391.457265  L 567.618442 388.303822  L 573.719526 385.150378  L 579.820611 381.996935  L 585.921696 378.843492  L 592.022781 375.690049  L 598.123865 372.536606  L 604.22495 369.383163  L 610.326035 366.229719  L 616.42712 363.076276  L 622.528205 359.922833  L 628.629289 356.76939  L 634.730374 353.615947  L 640.831459 350.462504  L 646.932544 347.30906  L 653.033628 344.155617  L 659.134713 341.002174  L 665.235798 337.848731  L 671.336883 334.695288  "
           clip-path="url(#p9f6eabb0c6)"
           style="fill: none; stroke: #ff0000; stroke-width: 1.5; stroke-linecap: square"
           id="path350" />
      </g>
      <g
         id="line2d_20">
        <path
           d="M 311.372881 520.748435  L 317.473966 517.021638  L 323.57505 513.294842  L 329.676135 509.568045  L 335.77722 505.841249  L 341.878305 502.114452  L 347.979389 498.387656  L 354.080474 494.660859  L 360.181559 490.934063  L 366.282644 487.207266  L 372.383729 483.48047  L 378.484813 479.753673  L 384.585898 476.026877  L 390.686983 472.30008  L 396.788068 468.573284  L 402.889152 464.846487  L 408.990237 461.119691  L 415.091322 457.392895  L 421.192407 453.666098  L 427.293492 449.939302  L 433.394576 446.212505  L 439.495661 442.485709  L 445.596746 438.758912  L 451.697831 435.032116  L 457.798915 431.305319  L 463.9 427.578523  L 470.001085 423.851726  L 476.10217 420.12493  L 482.203255 416.398133  L 488.304339 412.671337  L 494.405424 408.94454  L 500.506509 405.217744  L 506.607594 401.490947  L 512.708678 397.764151  L 518.809763 394.037355  L 524.910848 390.310558  L 531.011933 386.583762  L 537.113018 382.856965  L 543.214102 379.130169  L 549.315187 375.403372  L 555.416272 371.676576  L 561.517357 367.949779  L 567.618442 364.222983  L 573.719526 360.496186  L 579.820611 356.76939  L 585.921696 353.042593  L 592.022781 349.315797  L 598.123865 345.589  L 604.22495 341.862204  L 610.326035 338.135407  L 616.42712 334.408611  L 622.528205 330.681815  L 628.629289 326.955018  L 634.730374 323.228222  L 640.831459 319.501425  L 646.932544 315.774629  L 653.033628 312.047832  L 659.134713 308.321036  L 665.235798 304.594239  L 671.336883 300.867443  "
           clip-path="url(#p9f6eabb0c6)"
           style="fill: none; stroke: #ff0000; stroke-width: 1.5; stroke-linecap: square"
           id="path353" />
      </g>
      <g
         id="line2d_21">
        <path
           d="M 311.372881 520.748435  L 317.473966 516.448285  L 323.57505 512.148135  L 329.676135 507.847985  L 335.77722 503.547835  L 341.878305 499.247686  L 347.979389 494.947536  L 354.080474 490.647386  L 360.181559 486.347236  L 366.282644 482.047087  L 372.383729 477.746937  L 378.484813 473.446787  L 384.585898 469.146637  L 390.686983 464.846487  L 396.788068 460.546338  L 402.889152 456.246188  L 408.990237 451.946038  L 415.091322 447.645888  L 421.192407 443.345739  L 427.293492 439.045589  L 433.394576 434.745439  L 439.495661 430.445289  L 445.596746 426.14514  L 451.697831 421.84499  L 457.798915 417.54484  L 463.9 413.24469  L 470.001085 408.94454  L 476.10217 404.644391  L 482.203255 400.344241  L 488.304339 396.044091  L 494.405424 391.743941  L 500.506509 387.443792  L 506.607594 383.143642  L 512.708678 378.843492  L 518.809763 374.543342  L 524.910848 370.243192  L 531.011933 365.943043  L 537.113018 361.642893  L 543.214102 357.342743  L 549.315187 353.042593  L 555.416272 348.742444  L 561.517357 344.442294  L 567.618442 340.142144  L 573.719526 335.841994  L 579.820611 331.541844  L 585.921696 327.241695  L 592.022781 322.941545  L 598.123865 318.641395  L 604.22495 314.341245  L 610.326035 310.041096  L 616.42712 305.740946  L 622.528205 301.440796  L 628.629289 297.140646  L 634.730374 292.840497  L 640.831459 288.540347  L 646.932544 284.240197  L 653.033628 279.940047  L 659.134713 275.639897  L 665.235798 271.339748  L 671.336883 267.039598  "
           clip-path="url(#p9f6eabb0c6)"
           style="fill: none; stroke: #ff0000; stroke-width: 1.5; stroke-linecap: square"
           id="path356" />
      </g>
      <g
         id="line2d_22">
        <path
           d="M 311.372881 520.748435  L 317.473966 515.874931  L 323.57505 511.001428  L 329.676135 506.127925  L 335.77722 501.254422  L 341.878305 496.380919  L 347.979389 491.507416  L 354.080474 486.633913  L 360.181559 481.76041  L 366.282644 476.886907  L 372.383729 472.013404  L 378.484813 467.139901  L 384.585898 462.266398  L 390.686983 457.392895  L 396.788068 452.519391  L 402.889152 447.645888  L 408.990237 442.772385  L 415.091322 437.898882  L 421.192407 433.025379  L 427.293492 428.151876  L 433.394576 423.278373  L 439.495661 418.40487  L 445.596746 413.531367  L 451.697831 408.657864  L 457.798915 403.784361  L 463.9 398.910858  L 470.001085 394.037355  L 476.10217 389.163851  L 482.203255 384.290348  L 488.304339 379.416845  L 494.405424 374.543342  L 500.506509 369.669839  L 506.607594 364.796336  L 512.708678 359.922833  L 518.809763 355.04933  L 524.910848 350.175827  L 531.011933 345.302324  L 537.113018 340.428821  L 543.214102 335.555318  L 549.315187 330.681815  L 555.416272 325.808311  L 561.517357 320.934808  L 567.618442 316.061305  L 573.719526 311.187802  L 579.820611 306.314299  L 585.921696 301.440796  L 592.022781 296.567293  L 598.123865 291.69379  L 604.22495 286.820287  L 610.326035 281.946784  L 616.42712 277.073281  L 622.528205 272.199778  L 628.629289 267.326275  L 634.730374 262.452771  L 640.831459 257.579268  L 646.932544 252.705765  L 653.033628 247.832262  L 659.134713 242.958759  L 665.235798 238.085256  L 671.336883 233.211753  "
           clip-path="url(#p9f6eabb0c6)"
           style="fill: none; stroke: #ff0000; stroke-width: 1.5; stroke-linecap: square"
           id="path359" />
      </g>
      <g
         id="line2d_23">
        <path
           d="M 311.372881 520.748435  L 317.473966 515.301578  L 323.57505 509.854722  L 329.676135 504.407865  L 335.77722 498.961009  L 341.878305 493.514153  L 347.979389 488.067296  L 354.080474 482.62044  L 360.181559 477.173584  L 366.282644 471.726727  L 372.383729 466.279871  L 378.484813 460.833014  L 384.585898 455.386158  L 390.686983 449.939302  L 396.788068 444.492445  L 402.889152 439.045589  L 408.990237 433.598732  L 415.091322 428.151876  L 421.192407 422.70502  L 427.293492 417.258163  L 433.394576 411.811307  L 439.495661 406.364451  L 445.596746 400.917594  L 451.697831 395.470738  L 457.798915 390.023881  L 463.9 384.577025  L 470.001085 379.130169  L 476.10217 373.683312  L 482.203255 368.236456  L 488.304339 362.7896  L 494.405424 357.342743  L 500.506509 351.895887  L 506.607594 346.44903  L 512.708678 341.002174  L 518.809763 335.555318  L 524.910848 330.108461  L 531.011933 324.661605  L 537.113018 319.214748  L 543.214102 313.767892  L 549.315187 308.321036  L 555.416272 302.874179  L 561.517357 297.427323  L 567.618442 291.980467  L 573.719526 286.53361  L 579.820611 281.086754  L 585.921696 275.639897  L 592.022781 270.193041  L 598.123865 264.746185  L 604.22495 259.299328  L 610.326035 253.852472  L 616.42712 248.405616  L 622.528205 242.958759  L 628.629289 237.511903  L 634.730374 232.065046  L 640.831459 226.61819  L 646.932544 221.171334  L 653.033628 215.724477  L 659.134713 210.277621  L 665.235798 204.830764  L 671.336883 199.383908  "
           clip-path="url(#p9f6eabb0c6)"
           style="fill: none; stroke: #ff0000; stroke-width: 1.5; stroke-linecap: square"
           id="path362" />
      </g>
      <g
         id="line2d_24">
        <path
           d="M 311.372881 520.748435  L 317.473966 514.728225  L 323.57505 508.708015  L 329.676135 502.687806  L 335.77722 496.667596  L 341.878305 490.647386  L 347.979389 484.627176  L 354.080474 478.606967  L 360.181559 472.586757  L 366.282644 466.566547  L 372.383729 460.546338  L 378.484813 454.526128  L 384.585898 448.505918  L 390.686983 442.485709  L 396.788068 436.465499  L 402.889152 430.445289  L 408.990237 424.42508  L 415.091322 418.40487  L 421.192407 412.38466  L 427.293492 406.364451  L 433.394576 400.344241  L 439.495661 394.324031  L 445.596746 388.303822  L 451.697831 382.283612  L 457.798915 376.263402  L 463.9 370.243192  L 470.001085 364.222983  L 476.10217 358.202773  L 482.203255 352.182563  L 488.304339 346.162354  L 494.405424 340.142144  L 500.506509 334.121934  L 506.607594 328.101725  L 512.708678 322.081515  L 518.809763 316.061305  L 524.910848 310.041096  L 531.011933 304.020886  L 537.113018 298.000676  L 543.214102 291.980467  L 549.315187 285.960257  L 555.416272 279.940047  L 561.517357 273.919838  L 567.618442 267.899628  L 573.719526 261.879418  L 579.820611 255.859208  L 585.921696 249.838999  L 592.022781 243.818789  L 598.123865 237.798579  L 604.22495 231.77837  L 610.326035 225.75816  L 616.42712 219.73795  L 622.528205 213.717741  L 628.629289 207.697531  L 634.730374 201.677321  L 640.831459 195.657112  L 646.932544 189.636902  L 653.033628 183.616692  L 659.134713 177.596483  L 665.235798 171.576273  L 671.336883 165.556063  "
           clip-path="url(#p9f6eabb0c6)"
           style="fill: none; stroke: #ff0000; stroke-width: 1.5; stroke-linecap: square"
           id="path365" />
      </g>
      <g
         id="line2d_25">
        <path
           d="M 311.372881 520.748435  L 317.473966 514.154872  L 323.57505 507.561309  L 329.676135 500.967746  L 335.77722 494.374183  L 341.878305 487.78062  L 347.979389 481.187057  L 354.080474 474.593494  L 360.181559 467.999931  L 366.282644 461.406368  L 372.383729 454.812805  L 378.484813 448.219242  L 384.585898 441.625679  L 390.686983 435.032116  L 396.788068 428.438553  L 402.889152 421.84499  L 408.990237 415.251427  L 415.091322 408.657864  L 421.192407 402.064301  L 427.293492 395.470738  L 433.394576 388.877175  L 439.495661 382.283612  L 445.596746 375.690049  L 451.697831 369.096486  L 457.798915 362.502923  L 463.9 355.90936  L 470.001085 349.315797  L 476.10217 342.722234  L 482.203255 336.128671  L 488.304339 329.535108  L 494.405424 322.941545  L 500.506509 316.347982  L 506.607594 309.754419  L 512.708678 303.160856  L 518.809763 296.567293  L 524.910848 289.97373  L 531.011933 283.380167  L 537.113018 276.786604  L 543.214102 270.193041  L 549.315187 263.599478  L 555.416272 257.005915  L 561.517357 250.412352  L 567.618442 243.818789  L 573.719526 237.225226  L 579.820611 230.631663  L 585.921696 224.0381  L 592.022781 217.444537  L 598.123865 210.850974  L 604.22495 204.257411  L 610.326035 197.663848  L 616.42712 191.070285  L 622.528205 184.476722  L 628.629289 177.883159  L 634.730374 171.289596  L 640.831459 164.696033  L 646.932544 158.10247  L 653.033628 151.508907  L 659.134713 144.915344  L 665.235798 138.321781  L 671.336883 131.728218  "
           clip-path="url(#p9f6eabb0c6)"
           style="fill: none; stroke: #ff0000; stroke-width: 1.5; stroke-linecap: square"
           id="path368" />
      </g>
      <g
         id="patch_8">
        <path
           d="M 311.372881 520.748435  L 311.372881 64.178624  "
           style="fill: none; stroke: #000000; stroke-width: 0.8; stroke-linejoin: miter; stroke-linecap: square"
           id="path371" />
      </g>
      <g
         id="patch_9">
        <path
           d="M 671.336883 520.748435  L 671.336883 64.178624  "
           style="fill: none; stroke: #000000; stroke-width: 0.8; stroke-linejoin: miter; stroke-linecap: square"
           id="path374" />
      </g>
      <g
         id="patch_10">
        <path
           d="M 311.372881 520.748435  L 671.336883 520.748435  "
           style="fill: none; stroke: #000000; stroke-width: 0.8; stroke-linejoin: miter; stroke-linecap: square"
           id="path377" />
      </g>
      <g
         id="patch_11">
        <path
           d="M 311.372881 64.178624  L 671.336883 64.178624  "
           style="fill: none; stroke: #000000; stroke-width: 0.8; stroke-linejoin: miter; stroke-linecap: square"
           id="path380" />
      </g>
      <g
         id="text_20">
        <!-- 0 -->
        <g
           transform="translate(680.335983 503.834512) scale(0.18 -0.18)"
           id="g385">
          <use
             xlink:href="#CMR17-30"
             transform="scale(0.996264)"
             id="use383" />
        </g>
      </g>
      <g
         id="text_21">
        <!-- 1 -->
        <g
           transform="translate(680.335983 470.006667) scale(0.18 -0.18)"
           id="g390">
          <use
             xlink:href="#CMR17-31"
             transform="scale(0.996264)"
             id="use388" />
        </g>
      </g>
      <g
         id="text_22">
        <!-- 2 -->
        <g
           transform="translate(680.335983 436.178822) scale(0.18 -0.18)"
           id="g395">
          <use
             xlink:href="#CMR17-32"
             transform="scale(0.996264)"
             id="use393" />
        </g>
      </g>
      <g
         id="text_23">
        <!-- 3 -->
        <g
           transform="translate(680.335983 402.350977) scale(0.18 -0.18)"
           id="g400">
          <use
             xlink:href="#CMR17-33"
             transform="scale(0.996264)"
             id="use398" />
        </g>
      </g>
      <g
         id="text_24">
        <!-- 4 -->
        <g
           transform="translate(680.335983 368.523133) scale(0.18 -0.18)"
           id="g405">
          <use
             xlink:href="#CMR17-34"
             transform="scale(0.996264)"
             id="use403" />
        </g>
      </g>
      <g
         id="text_25">
        <!-- 5 -->
        <g
           transform="translate(680.335983 334.695288) scale(0.18 -0.18)"
           id="g410">
          <use
             xlink:href="#CMR17-35"
             transform="scale(0.996264)"
             id="use408" />
        </g>
      </g>
      <g
         id="text_26">
        <!-- 6 -->
        <g
           transform="translate(680.335983 300.867443) scale(0.18 -0.18)"
           id="g415">
          <use
             xlink:href="#CMR17-36"
             transform="scale(0.996264)"
             id="use413" />
        </g>
      </g>
      <g
         id="text_27">
        <!-- 7 -->
        <g
           transform="translate(680.335983 267.039598) scale(0.18 -0.18)"
           id="g420">
          <use
             xlink:href="#CMR17-37"
             transform="scale(0.996264)"
             id="use418" />
        </g>
      </g>
      <g
         id="text_28">
        <!-- 8 -->
        <g
           transform="translate(680.335983 233.211753) scale(0.18 -0.18)"
           id="g425">
          <use
             xlink:href="#CMR17-38"
             transform="scale(0.996264)"
             id="use423" />
        </g>
      </g>
      <g
         id="text_29">
        <!-- 9 -->
        <g
           transform="translate(680.335983 199.383908) scale(0.18 -0.18)"
           id="g430">
          <use
             xlink:href="#CMR17-39"
             transform="scale(0.996264)"
             id="use428" />
        </g>
      </g>
      <g
         id="text_30">
        <!-- 10 -->
        <g
           transform="translate(680.335983 165.556063) scale(0.18 -0.18)"
           id="g437">
          <use
             xlink:href="#CMR17-31"
             transform="scale(0.996264)"
             id="use433" />
          <use
             xlink:href="#CMR17-30"
             transform="translate(45.690477 0) scale(0.996264)"
             id="use435" />
        </g>
      </g>
      <g
         id="text_31">
        <!-- 11 -->
        <g
           transform="translate(680.335983 131.728218) scale(0.18 -0.18)"
           id="g444">
          <use
             xlink:href="#CMR17-31"
             transform="scale(0.996264)"
             id="use440" />
          <use
             xlink:href="#CMR17-31"
             transform="translate(45.690477 0) scale(0.996264)"
             id="use442" />
        </g>
      </g>
      <g
         id="text_32">
        <!-- N -->
        <g
           transform="translate(680.335983 97.900373) scale(0.22 -0.22)"
           id="g449">
          <use
             xlink:href="#CMR17-4e"
             transform="scale(0.996264)"
             id="use447" />
        </g>
      </g>
      <g
         id="text_33">
        <!-- LLs  -->
        <g
           transform="translate(474.792829 40.178624) scale(0.22 -0.22)"
           id="g458">
          <use
             xlink:href="#CMR17-4c"
             transform="scale(0.996264)"
             id="use452" />
          <use
             xlink:href="#CMR17-4c"
             transform="translate(57.381408 0) scale(0.996264)"
             id="use454" />
          <use
             xlink:href="#CMR17-73"
             transform="translate(114.762816 0) scale(0.996264)"
             id="use456" />
        </g>
      </g>
    </g>
  </g>
  <defs
     id="defs469">
    <clipPath
       id="p06923fa24b">
      <rect
         x="53.243881"
         y="64.178624"
         width="179.982001"
         height="456.56981"
         id="rect463" />
    </clipPath>
    <clipPath
       id="p9f6eabb0c6">
      <rect
         x="311.372881"
         y="64.178624"
         width="359.964002"
         height="456.56981"
         id="rect466" />
    </clipPath>
  </defs>
</svg>
