<?xml version="1.0" encoding="UTF-8" standalone="no"?>
<!-- Created with Inkscape (http://www.inkscape.org/) -->

<svg
   width="80.760567mm"
   height="16.040894mm"
   viewBox="0 0 80.760566 16.040893"
   version="1.1"
   id="svg1301"
   inkscape:version="1.2.2 (732a01da63, 2022-12-09)"
   sodipodi:docname="unistuttgartlogo_horizontal.svg"
   xmlns:inkscape="http://www.inkscape.org/namespaces/inkscape"
   xmlns:sodipodi="http://sodipodi.sourceforge.net/DTD/sodipodi-0.dtd"
   xmlns="http://www.w3.org/2000/svg"
   xmlns:svg="http://www.w3.org/2000/svg">
  <sodipodi:namedview
     id="namedview1303"
     pagecolor="#ffffff"
     bordercolor="#666666"
     borderopacity="1.0"
     inkscape:showpageshadow="2"
     inkscape:pageopacity="0.0"
     inkscape:pagecheckerboard="0"
     inkscape:deskcolor="#d1d1d1"
     inkscape:document-units="mm"
     showgrid="false"
     inkscape:zoom="5.1754899"
     inkscape:cx="211.96061"
     inkscape:cy="127.33094"
     inkscape:window-width="3840"
     inkscape:window-height="2066"
     inkscape:window-x="-11"
     inkscape:window-y="-11"
     inkscape:window-maximized="1"
     inkscape:current-layer="layer1" />
  <defs
     id="defs1298" />
  <g
     inkscape:label="Layer 1"
     inkscape:groupmode="layer"
     id="layer1"
     transform="translate(-88.568166,-124.09371)">
    <g
       fill="#FFF"
       id="g4"
       style="fill:#000000;fill-opacity:1"
       transform="matrix(0.26458333,0,0,0.26458333,141.92504,104.04797)">
      <path
         d="m 12.31,110.587 c 0,0.745 -0.045,3 2.867,3 1.842,0 3,-0.876 3,-2.21 0,-1.4 -0.986,-1.64 -3,-2.123 -3.767,-0.94 -5.823,-2.057 -5.823,-4.793 0,-2.604 1.863,-4.9 6.26,-4.9 1.644,0 3.59,0.372 4.77,1.857 0.898,1.138 0.898,2.407 0.898,2.935 h -3.26 c -0.043,-0.545 -0.22,-2.406 -2.562,-2.406 -1.574,0 -2.602,0.854 -2.602,2.146 0,1.468 1.158,1.728 3.434,2.3 2.736,0.653 5.43,1.396 5.43,4.484 0,2.845 -2.366,5.146 -6.74,5.146 -6.065,0 -6.108,-3.898 -6.13,-5.434 h 3.46 z m 18.295,4.905 c -1.047,0.283 -1.99,0.35 -2.515,0.35 -3.263,0 -3.263,-2.057 -3.263,-2.978 v -6.062 h -2.122 v -2.144 h 2.122 v -2.172 l 3.22,-1.18 v 3.352 h 2.624 v 2.144 h -2.624 v 4.99 c 0.02,1.006 0.02,1.644 1.465,1.644 0.48,0 0.702,-0.023 1.095,-0.067 v 2.122 z m 4.859,-10.9 v 6.59 c 0,0.963 0,2.43 1.726,2.43 2.082,0 2.082,-1.557 2.082,-3.438 v -5.582 H 42.6 v 7.29 c 0.043,2.384 0.065,2.67 0.065,2.954 0.022,0.307 0.045,0.504 0.087,0.81 H 39.6 l -0.107,-1.466 c -0.327,0.48 -1.16,1.75 -3.262,1.75 -1.488,0 -2.71,-0.68 -3.327,-1.486 -0.72,-0.9 -0.72,-2.432 -0.72,-2.977 v -6.875 z m 16.696,10.9 c -1.047,0.283 -1.99,0.35 -2.512,0.35 -3.263,0 -3.263,-2.057 -3.263,-2.978 v -6.062 H 44.26 v -2.144 h 2.125 v -2.172 l 3.214,-1.18 v 3.352 h 2.63 v 2.144 H 49.6 v 4.99 c 0.027,1.006 0.027,1.644 1.47,1.644 0.48,0 0.7,-0.023 1.092,-0.067 v 2.122 z m 8.728,0 c -1.052,0.283 -1.992,0.35 -2.52,0.35 -3.26,0 -3.26,-2.057 -3.26,-2.978 v -6.062 h -2.12 v -2.144 h 2.12 v -2.172 l 3.22,-1.18 v 3.352 h 2.624 v 2.144 h -2.624 v 4.99 c 0.02,1.006 0.02,1.644 1.465,1.644 0.48,0 0.7,-0.023 1.095,-0.067 v 2.122 z m 12.495,-10.856 c -0.085,0.873 -0.153,1.62 -0.153,2.735 v 8.165 c 0,4.074 -3.393,4.465 -5.513,4.465 -1.577,0 -4.66,-0.197 -4.86,-3.543 h 3.108 c 0.042,0.326 0.197,1.527 1.923,1.527 0.965,0 1.797,-0.46 2.018,-1.442 0.13,-0.546 0.13,-0.938 0.152,-2.627 -1.03,1.358 -2.188,1.51 -2.976,1.51 -3.174,0 -4.663,-2.758 -4.663,-5.427 0,-2.8 1.554,-5.473 4.728,-5.473 2.014,0 2.758,1.093 3.086,1.576 l 0.108,-1.466 3.04,0.002 z m -5.56,8.58 c 2.275,0 2.275,-2.67 2.275,-3.15 0,-1.25 -0.24,-3.374 -2.21,-3.374 -1.226,0 -2.23,0.94 -2.23,3.308 0,0.546 0,3.215 2.165,3.215 z m 14.644,2.429 c -0.108,-0.68 -0.108,-1.182 -0.108,-1.508 -1.227,1.77 -2.694,1.77 -3.31,1.77 -1.595,0 -2.316,-0.458 -2.757,-0.876 -0.657,-0.655 -0.963,-1.552 -0.963,-2.427 0,-0.88 0.306,-2.496 2.346,-3.437 1.356,-0.615 3.302,-0.615 4.376,-0.615 0,-0.722 -0.02,-1.07 -0.152,-1.464 -0.283,-0.812 -1.14,-0.922 -1.445,-0.922 -0.462,0 -0.94,0.2 -1.225,0.616 -0.244,0.37 -0.244,0.722 -0.244,0.984 h -3.172 c 0.02,-0.595 0.088,-1.773 1.246,-2.606 1.008,-0.722 2.3,-0.897 3.35,-0.897 0.92,0 2.847,0.154 3.938,1.425 0.748,0.9 0.77,2.21 0.77,2.715 l 0.022,4.442 c 0,0.94 0.066,1.882 0.266,2.802 h -2.94 z m -3.984,-3.415 c 0,0.744 0.5,1.578 1.576,1.578 0.587,0 1.07,-0.287 1.376,-0.638 0.567,-0.698 0.614,-1.555 0.614,-2.735 -2.078,-0.175 -3.567,0.483 -3.567,1.795 z m 9.521,-4.923 c 0,-0.523 -0.088,-2.123 -0.155,-2.757 h 3.044 l 0.063,2.123 c 0.415,-0.944 1.14,-2.146 3.767,-2.014 v 2.143 c -3.283,-0.307 -3.48,2.014 -3.48,3.395 v 5.447 h -3.238 l -0.002,-8.338 z m 15.501,8.185 c -1.05,0.283 -1.994,0.35 -2.518,0.35 -3.264,0 -3.264,-2.057 -3.264,-2.978 v -6.062 h -2.12 v -2.144 h 2.12 v -2.172 l 3.22,-1.18 v 3.352 h 2.63 v 2.144 h -2.63 v 4.99 c 0.02,1.006 0.02,1.644 1.467,1.644 0.48,0 0.702,-0.023 1.095,-0.067 v 2.122 z"
         id="path2"
         style="fill:#000000;fill-opacity:1" />
    </g>
    <g
       fill="#FFF"
       id="g14"
       style="fill:#000000;fill-opacity:1"
       transform="matrix(0.26458333,0,0,0.26458333,109.76363,109.80621)">
      <path
         d="m 3.39,78.184 v 9.63 c 0,1.73 0.133,3.897 3.44,3.897 0.547,0 2.187,-0.022 3.062,-1.378 0.328,-0.482 0.504,-1.094 0.504,-2.69 V 78.185 H 13.7 v 9.875 c 0,4.704 -3.743,6.214 -6.94,6.214 -1.574,0 -4.46,-0.35 -5.95,-2.737 C 0.043,90.332 0,89.11 0,87.64 v -9.456 z m 12.934,6.7 c 0,-0.044 0,-1.247 -0.064,-2.014 h 3.106 l 0.088,1.664 c 0.31,-0.503 1.184,-1.93 3.59,-1.93 2.17,0 3.087,1.314 3.37,2.08 0.24,0.68 0.307,1.25 0.307,3.307 v 5.975 h -3.305 v -6.87 c 0,-0.46 0,-0.858 -0.174,-1.208 -0.24,-0.48 -0.742,-0.94 -1.576,-0.94 -0.697,0 -1.334,0.33 -1.684,0.854 -0.198,0.288 -0.394,0.834 -0.394,1.69 v 6.476 H 16.325 V 84.886 Z M 29.643,82.89 h 3.24 v 11.075 h -3.24 z m 8.283,0.023 2.497,7.505 2.538,-7.505 h 3.13 L 42.108,93.965 H 38.52 L 34.468,82.913 Z m 12.147,6.347 c 0,0.72 0,2.955 2.254,2.955 0.81,0 1.62,-0.307 1.927,-1.533 h 2.955 c -0.045,0.526 -0.154,1.467 -1.052,2.406 -0.812,0.854 -2.253,1.292 -3.872,1.292 -0.942,0 -2.74,-0.173 -3.898,-1.377 -1.006,-1.052 -1.423,-2.538 -1.423,-4.312 0,-1.796 0.44,-3.94 2.297,-5.23 0.854,-0.57 1.904,-0.922 3.107,-0.922 1.577,0 3.456,0.614 4.465,2.67 0.743,1.513 0.703,3.134 0.657,4.052 h -7.42 z m 4.115,-2.035 c 0,-0.504 -0.043,-2.475 -1.926,-2.475 -1.422,0 -2.014,1.184 -2.08,2.475 z m 5.446,-1.598 c 0,-0.523 -0.085,-2.123 -0.15,-2.757 h 3.045 l 0.06,2.123 c 0.422,-0.944 1.143,-2.277 3.768,-2.146 v 2.91 c -3.28,-0.306 -3.48,1.38 -3.48,2.76 v 5.447 h -3.24 v -8.338 h -0.004 z m 10.771,5.143 c 0.044,0.703 0.48,1.51 1.837,1.51 1.16,0 1.707,-0.654 1.707,-1.313 0,-0.5 -0.264,-0.894 -1.53,-1.243 l -2.015,-0.55 c -0.9,-0.264 -2.8,-0.813 -2.8,-3.065 0,-2.145 1.97,-3.456 4.833,-3.456 2.278,0 4.115,1.052 4.203,3.26 h -2.954 c -0.088,-1.225 -1.07,-1.312 -1.578,-1.312 -0.873,0 -1.527,0.416 -1.527,1.094 0,0.744 0.546,0.897 1.508,1.162 l 1.993,0.547 c 2.014,0.55 2.956,1.574 2.956,3.084 0,1.905 -1.64,3.808 -5.076,3.808 -1.425,0 -2.78,-0.307 -3.79,-1.357 -0.72,-0.763 -0.785,-1.64 -0.808,-2.163 h 3.043 v -0.007 z m 8.657,-7.88 H 82.3 v 11.075 h -3.238 z m 12.613,10.922 c -1.046,0.285 -1.986,0.35 -2.514,0.35 -3.26,0 -3.26,-2.057 -3.26,-2.977 V 85.123 H 83.775 V 82.978 H 85.9 v -3.35 l 3.215,-0.59 v 3.94 h 2.63 v 2.143 h -2.63 v 4.99 c 0.024,1.008 0.024,1.644 1.467,1.644 0.483,0 0.702,-0.022 1.093,-0.067 v 2.125 z m 8.649,0.153 c -0.112,-0.68 -0.112,-1.182 -0.112,-1.508 -1.225,1.77 -2.69,1.77 -3.305,1.77 -1.598,0 -2.32,-0.458 -2.758,-0.876 -0.654,-0.655 -0.964,-1.553 -0.964,-2.428 0,-0.877 0.31,-2.496 2.344,-3.437 1.355,-0.614 3.302,-0.614 4.375,-0.614 0,-0.723 -0.02,-1.07 -0.152,-1.464 -0.286,-0.812 -1.14,-0.923 -1.44,-0.923 -0.46,0 -0.945,0.2 -1.228,0.617 -0.238,0.37 -0.238,0.722 -0.238,0.984 H 93.67 c 0.02,-0.594 0.087,-1.773 1.244,-2.607 1.008,-0.72 2.3,-0.897 3.35,-0.897 0.92,0 2.845,0.153 3.942,1.424 0.74,0.9 0.766,2.21 0.766,2.715 l 0.02,4.442 c 0,0.94 0.066,1.88 0.265,2.8 l -2.933,0.003 z M 96.34,90.55 c 0,0.745 0.507,1.58 1.574,1.58 0.592,0 1.073,-0.288 1.378,-0.638 0.573,-0.7 0.613,-1.555 0.613,-2.736 -2.08,-0.176 -3.566,0.482 -3.566,1.795 z m 16.016,3.262 c -1.05,0.285 -1.987,0.35 -2.517,0.35 -3.26,0 -3.26,-2.057 -3.26,-2.977 v -6.062 h -2.123 v -2.145 h 2.122 v -2.17 l 3.215,-1.18 v 3.35 h 2.627 v 2.145 h -2.627 v 4.99 c 0.023,1.007 0.023,1.643 1.47,1.643 0.478,0 0.7,-0.023 1.09,-0.068 v 2.124 z"
         id="path6"
         style="fill:#000000;fill-opacity:1" />
      <circle
         cx="96.231003"
         cy="79.717003"
         r="1.744"
         id="circle8"
         style="fill:#000000;fill-opacity:1" />
      <circle
         cx="100.542"
         cy="79.717003"
         r="1.745"
         id="circle10"
         style="fill:#000000;fill-opacity:1" />
      <path
         d="m 82.5,79.714 c 0,0.966 -0.778,1.745 -1.742,1.745 -0.967,0 -1.745,-0.78 -1.745,-1.746 0,-0.96 0.778,-1.74 1.745,-1.74 0.964,0 1.74,0.78 1.74,1.74 z m -49.494,0 c 0,0.966 -0.78,1.745 -1.743,1.745 -0.963,0 -1.745,-0.78 -1.745,-1.746 0,-0.96 0.782,-1.74 1.745,-1.74 0.964,0 1.743,0.78 1.743,1.74 z"
         id="path12"
         style="fill:#000000;fill-opacity:1" />
    </g>
    <g
       fill="#FFF"
       id="g222"
       style="fill:#000000;fill-opacity:1"
       transform="matrix(0.26458333,0,0,0.26458333,81.717839,124.09371)">
      <circle
         cx="56.174"
         cy="30.344"
         r="1.642"
         id="circle16"
         style="fill:#000000;fill-opacity:1" />
      <path
         d="m 60.312,27.79 c 0,-0.905 -0.736,-1.643 -1.642,-1.643 -0.906,0 -1.64,0.737 -1.64,1.644 0,0.905 0.734,1.64 1.64,1.64 0.906,0 1.642,-0.735 1.642,-1.64 z m 0,5.11 c 0,-0.905 -0.736,-1.643 -1.642,-1.643 -0.906,0 -1.64,0.737 -1.64,1.644 0,0.905 0.734,1.64 1.64,1.64 0.906,0 1.642,-0.734 1.642,-1.64 z"
         id="path18"
         style="fill:#000000;fill-opacity:1" />
      <circle
         cx="61.499001"
         cy="30.263"
         r="1.642"
         id="circle20"
         style="fill:#000000;fill-opacity:1" />
      <path
         d="m 64.586,26.045 c -0.903,0 -1.642,0.736 -1.642,1.642 0,0.905 0.738,1.64 1.642,1.64 0.906,0 1.644,-0.735 1.644,-1.64 0,-0.906 -0.738,-1.642 -1.644,-1.642 z"
         id="path22"
         style="fill:#000000;fill-opacity:1" />
      <circle
         cx="64.561996"
         cy="32.957001"
         r="1.642"
         id="circle24"
         style="fill:#000000;fill-opacity:1" />
      <path
         d="m 61.388,37.15 c 0.906,0 1.645,-0.735 1.645,-1.64 0,-0.906 -0.737,-1.644 -1.645,-1.644 -0.904,0 -1.64,0.737 -1.64,1.644 0,0.905 0.735,1.64 1.64,1.64 z m -0.918,1.54 c 0,-0.907 -0.736,-1.644 -1.644,-1.644 -0.903,0 -1.64,0.737 -1.64,1.643 0,0.904 0.735,1.64 1.64,1.64 0.905,0 1.644,-0.736 1.644,-1.64 z"
         id="path26"
         style="fill:#000000;fill-opacity:1" />
      <circle
         cx="56.271"
         cy="42.173"
         r="1.642"
         id="circle28"
         style="fill:#000000;fill-opacity:1" />
      <circle
         cx="68.056"
         cy="30.268999"
         r="1.642"
         id="circle30"
         style="fill:#000000;fill-opacity:1" />
      <circle
         cx="67.884003"
         cy="35.752998"
         r="1.642"
         id="circle32"
         style="fill:#000000;fill-opacity:1" />
      <path
         d="m 71.722,31.64 c -0.902,0 -1.64,0.737 -1.64,1.644 0,0.903 0.735,1.64 1.64,1.64 0.905,0 1.645,-0.737 1.645,-1.64 -0.002,-0.907 -0.74,-1.644 -1.645,-1.644 z m 1.198,7.2 c 0,-0.905 -0.735,-1.643 -1.644,-1.643 -0.9,0 -1.64,0.738 -1.64,1.644 0,0.904 0.737,1.642 1.64,1.642 0.91,0 1.645,-0.738 1.645,-1.64 z"
         id="path34"
         style="fill:#000000;fill-opacity:1" />
      <circle
         cx="67.304001"
         cy="41.300999"
         r="1.642"
         id="circle36"
         style="fill:#000000;fill-opacity:1" />
      <path
         d="m 61.644,43.6 c 0.905,0 1.644,-0.735 1.644,-1.64 0,-0.906 -0.737,-1.643 -1.644,-1.643 -0.903,0 -1.642,0.737 -1.642,1.643 0,0.905 0.737,1.64 1.642,1.64 z m -2.574,3.84 c 0.907,0 1.646,-0.735 1.646,-1.638 0,-0.906 -0.736,-1.644 -1.645,-1.644 -0.9,0 -1.64,0.737 -1.64,1.644 0.003,0.903 0.74,1.64 1.64,1.64 z"
         id="path38"
         style="fill:#000000;fill-opacity:1" />
      <circle
         cx="56.251999"
         cy="49.875"
         r="1.642"
         id="circle40"
         style="fill:#000000;fill-opacity:1" />
      <path
         d="m 65.87,38.312 c 0,-0.906 -0.736,-1.644 -1.643,-1.644 -0.908,0 -1.642,0.737 -1.642,1.644 0,0.904 0.733,1.64 1.642,1.64 0.907,0 1.644,-0.735 1.644,-1.64 z m 9.697,-3.67 c -0.902,0 -1.64,0.737 -1.64,1.644 0,0.904 0.736,1.64 1.64,1.64 0.906,0 1.644,-0.736 1.644,-1.64 0,-0.907 -0.736,-1.644 -1.643,-1.644 z"
         id="path42"
         style="fill:#000000;fill-opacity:1" />
      <circle
         cx="74.957001"
         cy="42.196999"
         r="1.642"
         id="circle44"
         style="fill:#000000;fill-opacity:1" />
      <circle
         cx="78.997002"
         cy="45.728001"
         r="1.642"
         id="circle46"
         style="fill:#000000;fill-opacity:1" />
      <path
         d="m 74.017,46.397 c -0.902,0 -1.64,0.738 -1.64,1.644 0,0.904 0.735,1.64 1.64,1.64 0.906,0 1.645,-0.736 1.645,-1.64 -0.002,-0.905 -0.74,-1.643 -1.645,-1.643 z"
         id="path48"
         style="fill:#000000;fill-opacity:1" />
      <circle
         cx="70.583"
         cy="44.667"
         r="1.642"
         id="circle50"
         style="fill:#000000;fill-opacity:1" />
      <path
         d="m 68.14,50.677 c 0.905,0 1.644,-0.735 1.644,-1.64 0,-0.905 -0.737,-1.642 -1.644,-1.642 -0.904,0 -1.64,0.737 -1.64,1.642 0,0.905 0.735,1.64 1.64,1.64 z m -5.96,0.617 c 0.904,0 1.644,-0.735 1.644,-1.64 0,-0.906 -0.738,-1.643 -1.645,-1.643 -0.903,0 -1.642,0.738 -1.642,1.644 0,0.905 0.736,1.64 1.64,1.64 z m 4.21,-5.904 c 0,-0.907 -0.738,-1.645 -1.644,-1.645 -0.906,0 -1.642,0.737 -1.642,1.644 0,0.902 0.735,1.638 1.642,1.638 0.905,0 1.644,-0.736 1.644,-1.64 z"
         id="path52"
         style="fill:#000000;fill-opacity:1" />
      <circle
         cx="77.841003"
         cy="51.881001"
         r="1.642"
         id="circle54"
         style="fill:#000000;fill-opacity:1" />
      <circle
         cx="71.608002"
         cy="53.066002"
         r="1.641"
         id="circle56"
         style="fill:#000000;fill-opacity:1" />
      <circle
         cx="68.918999"
         cy="57.846001"
         r="1.642"
         id="circle58"
         style="fill:#000000;fill-opacity:1" />
      <path
         d="m 65.412,52.097 c -0.903,0 -1.642,0.737 -1.642,1.643 0,0.905 0.737,1.64 1.642,1.64 0.905,0 1.644,-0.735 1.644,-1.64 0,-0.906 -0.74,-1.643 -1.644,-1.643 z m -2.849,4.93 c -0.903,0 -1.642,0.737 -1.642,1.643 0,0.905 0.738,1.64 1.643,1.64 0.905,0 1.644,-0.735 1.644,-1.64 0,-0.905 -0.737,-1.643 -1.644,-1.643 z"
         id="path60"
         style="fill:#000000;fill-opacity:1" />
      <circle
         cx="59.223999"
         cy="54.148998"
         r="1.642"
         id="circle62"
         style="fill:#000000;fill-opacity:1" />
      <circle
         cx="56.277"
         cy="58.986"
         r="1.641"
         id="circle64"
         style="fill:#000000;fill-opacity:1" />
      <path
         d="m 53.127,52.507 c -0.903,0 -1.64,0.737 -1.64,1.644 0,0.905 0.736,1.64 1.64,1.64 0.905,0 1.643,-0.734 1.643,-1.64 0,-0.905 -0.738,-1.643 -1.643,-1.643 z m -3.299,4.538 c -0.903,0 -1.64,0.737 -1.64,1.644 0,0.903 0.736,1.64 1.64,1.64 0.906,0 1.644,-0.737 1.644,-1.64 0,-0.908 -0.738,-1.645 -1.644,-1.645 z"
         id="path66"
         style="fill:#000000;fill-opacity:1" />
      <circle
         cx="43.643002"
         cy="57.841"
         r="1.642"
         id="circle68"
         style="fill:#000000;fill-opacity:1" />
      <circle
         cx="79.679001"
         cy="39.5"
         r="1.642"
         id="circle70"
         style="fill:#000000;fill-opacity:1" />
      <circle
         cx="83.783997"
         cy="42.883999"
         r="1.642"
         id="circle72"
         style="fill:#000000;fill-opacity:1" />
      <circle
         cx="84.612"
         cy="36.647999"
         r="1.642"
         id="circle74"
         style="fill:#000000;fill-opacity:1" />
      <circle
         cx="80.054001"
         cy="33.390999"
         r="1.642"
         id="circle76"
         style="fill:#000000;fill-opacity:1" />
      <circle
         cx="84.889999"
         cy="30.285"
         r="1.642"
         id="circle78"
         style="fill:#000000;fill-opacity:1" />
      <circle
         cx="80.051003"
         cy="27.318001"
         r="1.642"
         id="circle80"
         style="fill:#000000;fill-opacity:1" />
      <circle
         cx="84.595001"
         cy="23.944"
         r="1.642"
         id="circle82"
         style="fill:#000000;fill-opacity:1" />
      <path
         d="m 78.006,21.112 c 0,0.905 0.736,1.64 1.64,1.64 0.906,0 1.644,-0.735 1.644,-1.64 0,-0.905 -0.735,-1.642 -1.644,-1.642 -0.904,0 -1.64,0.737 -1.64,1.642 z M 83.78,19.27 c 0.906,0 1.646,-0.735 1.646,-1.64 0,-0.905 -0.737,-1.64 -1.646,-1.64 -0.9,0 -1.64,0.735 -1.64,1.64 0.002,0.906 0.74,1.64 1.64,1.64 z"
         id="path84"
         style="fill:#000000;fill-opacity:1" />
      <circle
         cx="78.987"
         cy="14.947"
         r="1.642"
         id="circle86"
         style="fill:#000000;fill-opacity:1" />
      <path
         d="m 77.827,10.443 c 0.906,0 1.645,-0.736 1.645,-1.64 0,-0.906 -0.738,-1.642 -1.645,-1.642 -0.903,0 -1.64,0.737 -1.64,1.643 0,0.905 0.737,1.64 1.64,1.64 z"
         id="path88"
         style="fill:#000000;fill-opacity:1" />
      <circle
         cx="74.049004"
         cy="12.601"
         r="1.641"
         id="circle90"
         style="fill:#000000;fill-opacity:1" />
      <circle
         cx="70.549004"
         cy="15.985"
         r="1.642"
         id="circle92"
         style="fill:#000000;fill-opacity:1" />
      <path
         d="m 65.65,19.33 c 0,0.904 0.737,1.64 1.642,1.64 0.906,0 1.645,-0.736 1.645,-1.64 0,-0.907 -0.737,-1.644 -1.645,-1.644 -0.902,0 -1.64,0.737 -1.64,1.643 z"
         id="path94"
         style="fill:#000000;fill-opacity:1" />
      <circle
         cx="64.771004"
         cy="15.261"
         r="1.642"
         id="circle96"
         style="fill:#000000;fill-opacity:1" />
      <circle
         cx="62.16"
         cy="11.019"
         r="1.641"
         id="circle98"
         style="fill:#000000;fill-opacity:1" />
      <circle
         cx="59.095001"
         cy="14.815"
         r="1.642"
         id="circle100"
         style="fill:#000000;fill-opacity:1" />
      <circle
         cx="53.254002"
         cy="14.852"
         r="1.641"
         id="circle102"
         style="fill:#000000;fill-opacity:1" />
      <circle
         cx="50.784"
         cy="18.705"
         r="1.642"
         id="circle104"
         style="fill:#000000;fill-opacity:1" />
      <path
         d="m 51.897,22.005 c 0,0.904 0.737,1.64 1.64,1.64 0.907,0 1.645,-0.736 1.645,-1.64 0,-0.906 -0.737,-1.644 -1.644,-1.644 -0.903,0 -1.64,0.74 -1.64,1.645 z"
         id="path106"
         style="fill:#000000;fill-opacity:1" />
      <circle
         cx="48.213001"
         cy="22.329"
         r="1.641"
         id="circle108"
         style="fill:#000000;fill-opacity:1" />
      <circle
         cx="44.555"
         cy="24.905001"
         r="1.642"
         id="circle110"
         style="fill:#000000;fill-opacity:1" />
      <path
         d="m 40.708,29.09 c 0.906,0 1.644,-0.736 1.644,-1.64 0,-0.907 -0.737,-1.643 -1.644,-1.643 -0.902,0 -1.64,0.736 -1.64,1.642 0,0.904 0.738,1.64 1.64,1.64 z"
         id="path112"
         style="fill:#000000;fill-opacity:1" />
      <circle
         cx="41.125999"
         cy="21.796"
         r="1.642"
         id="circle114"
         style="fill:#000000;fill-opacity:1" />
      <circle
         cx="36.848999"
         cy="24.348"
         r="1.641"
         id="circle116"
         style="fill:#000000;fill-opacity:1" />
      <path
         d="m 32.35,28.927 c 0.906,0 1.644,-0.735 1.644,-1.64 0,-0.906 -0.737,-1.644 -1.644,-1.644 -0.903,0 -1.64,0.737 -1.64,1.644 0,0.905 0.736,1.64 1.64,1.64 z M 27.81,25.57 c 0.906,0 1.644,-0.735 1.644,-1.638 0,-0.906 -0.737,-1.643 -1.643,-1.643 -0.905,0 -1.64,0.736 -1.64,1.642 0,0.903 0.734,1.64 1.64,1.64 z"
         id="path118"
         style="fill:#000000;fill-opacity:1" />
      <circle
         cx="32.775002"
         cy="21.125"
         r="1.642"
         id="circle120"
         style="fill:#000000;fill-opacity:1" />
      <path
         d="m 28.66,15.966 c -0.905,0 -1.64,0.737 -1.64,1.643 0,0.902 0.734,1.638 1.64,1.638 0.906,0 1.643,-0.736 1.643,-1.64 0,-0.905 -0.738,-1.642 -1.643,-1.642 z m 4.83,0.629 c 0.905,0 1.643,-0.735 1.643,-1.64 0,-0.906 -0.737,-1.644 -1.644,-1.644 -0.904,0 -1.642,0.738 -1.642,1.645 0,0.904 0.738,1.64 1.64,1.64 z m 3.98,0.165 c -0.906,0 -1.642,0.738 -1.642,1.646 0,0.903 0.735,1.64 1.64,1.64 0.907,0 1.643,-0.737 1.643,-1.64 0,-0.908 -0.735,-1.645 -1.64,-1.645 z"
         id="path122"
         style="fill:#000000;fill-opacity:1" />
      <circle
         cx="41.904999"
         cy="15.97"
         r="1.641"
         id="circle124"
         style="fill:#000000;fill-opacity:1" />
      <circle
         cx="45.116001"
         cy="19.334"
         r="1.642"
         id="circle126"
         style="fill:#000000;fill-opacity:1" />
      <circle
         cx="36.641998"
         cy="30.261"
         r="1.642"
         id="circle128"
         style="fill:#000000;fill-opacity:1" />
      <path
         d="m 56.28,16.87 c -0.903,0 -1.64,0.736 -1.64,1.642 0,0.905 0.736,1.64 1.64,1.64 0.907,0 1.643,-0.735 1.643,-1.64 0,-0.906 -0.736,-1.642 -1.643,-1.642 z"
         id="path130"
         style="fill:#000000;fill-opacity:1" />
      <circle
         cx="68.128998"
         cy="11.573"
         r="1.642"
         id="circle132"
         style="fill:#000000;fill-opacity:1" />
      <circle
         cx="71.612"
         cy="7.533"
         r="1.641"
         id="circle134"
         style="fill:#000000;fill-opacity:1" />
      <path
         d="m 65.43,8.526 c 0.904,0 1.64,-0.736 1.64,-1.64 0,-0.905 -0.734,-1.642 -1.64,-1.642 -0.905,0 -1.643,0.737 -1.643,1.643 0,0.904 0.735,1.64 1.642,1.64 z m 3.5,-4.11 c 0.906,0 1.645,-0.735 1.645,-1.64 0,-0.905 -0.737,-1.642 -1.644,-1.642 -0.903,0 -1.64,0.737 -1.64,1.642 0,0.905 0.736,1.64 1.64,1.64 z"
         id="path136"
         style="fill:#000000;fill-opacity:1" />
      <circle
         cx="62.577999"
         cy="1.971"
         r="1.641"
         id="circle138"
         style="fill:#000000;fill-opacity:1" />
      <path
         d="m 56.258,3.284 c 0.906,0 1.644,-0.736 1.644,-1.64 C 57.9,0.737 57.164,0 56.258,0 c -0.904,0 -1.64,0.737 -1.64,1.644 0,0.904 0.736,1.64 1.64,1.64 z"
         id="path140"
         style="fill:#000000;fill-opacity:1" />
      <circle
         cx="49.818001"
         cy="1.954"
         r="1.642"
         id="circle142"
         style="fill:#000000;fill-opacity:1" />
      <path
         d="m 43.637,4.433 c 0.906,0 1.644,-0.736 1.644,-1.64 0,-0.906 -0.736,-1.644 -1.643,-1.644 -0.903,0 -1.64,0.736 -1.64,1.643 0,0.904 0.736,1.64 1.64,1.64 z m 9.445,3.705 c 0.906,0 1.644,-0.736 1.644,-1.64 0,-0.906 -0.737,-1.642 -1.644,-1.642 -0.904,0 -1.64,0.736 -1.64,1.642 0,0.904 0.736,1.64 1.64,1.64 z"
         id="path144"
         style="fill:#000000;fill-opacity:1" />
      <circle
         cx="46.998001"
         cy="6.902"
         r="1.642"
         id="circle146"
         style="fill:#000000;fill-opacity:1" />
      <path
         d="m 44.303,9.952 c -0.903,0 -1.64,0.738 -1.64,1.642 0,0.905 0.736,1.64 1.64,1.64 0.906,0 1.644,-0.735 1.644,-1.64 0,-0.905 -0.738,-1.642 -1.644,-1.642 z m -5.933,4.304 c 0.905,0 1.642,-0.736 1.642,-1.64 0,-0.907 -0.736,-1.643 -1.643,-1.643 -0.904,0 -1.642,0.736 -1.642,1.642 0,0.905 0.738,1.64 1.64,1.64 z m -3.472,-3.838 c 0.906,0 1.644,-0.737 1.644,-1.64 0,-0.907 -0.737,-1.645 -1.644,-1.645 -0.902,0 -1.64,0.738 -1.64,1.644 0,0.904 0.738,1.64 1.64,1.64 z m 5.95,-1.223 c 0.905,0 1.643,-0.736 1.643,-1.64 0,-0.905 -0.736,-1.643 -1.642,-1.643 -0.903,0 -1.64,0.737 -1.64,1.644 0,0.903 0.736,1.64 1.64,1.64 z"
         id="path148"
         style="fill:#000000;fill-opacity:1" />
      <circle
         cx="47.673"
         cy="15.242"
         r="1.641"
         id="circle150"
         style="fill:#000000;fill-opacity:1" />
      <circle
         cx="50.215"
         cy="10.996"
         r="1.642"
         id="circle152"
         style="fill:#000000;fill-opacity:1" />
      <circle
         cx="59.215"
         cy="6.4959998"
         r="1.641"
         id="circle154"
         style="fill:#000000;fill-opacity:1" />
      <circle
         cx="56.266998"
         cy="10.745"
         r="1.642"
         id="circle156"
         style="fill:#000000;fill-opacity:1" />
      <path
         d="m 65.813,22.31 c 0,-0.906 -0.738,-1.643 -1.645,-1.643 -0.907,0 -1.64,0.737 -1.64,1.643 0,0.904 0.733,1.64 1.64,1.64 0.907,0 1.645,-0.736 1.645,-1.64 z m -4.389,1.187 c -0.905,0 -1.64,0.737 -1.64,1.644 0,0.904 0.734,1.64 1.64,1.64 0.906,0 1.644,-0.736 1.644,-1.64 -0.003,-0.906 -0.74,-1.643 -1.644,-1.643 z"
         id="path158"
         style="fill:#000000;fill-opacity:1" />
      <circle
         cx="58.851002"
         cy="21.934"
         r="1.641"
         id="circle160"
         style="fill:#000000;fill-opacity:1" />
      <circle
         cx="56.254002"
         cy="25.030001"
         r="1.641"
         id="circle162"
         style="fill:#000000;fill-opacity:1" />
      <path
         d="m 52.035,27.79 c 0,0.905 0.736,1.64 1.64,1.64 0.905,0 1.643,-0.735 1.643,-1.64 0,-0.905 -0.737,-1.643 -1.643,-1.643 -0.904,0 -1.64,0.737 -1.64,1.644 z M 51.05,23.528 c -0.904,0 -1.64,0.737 -1.64,1.643 0,0.904 0.735,1.64 1.64,1.64 0.905,0 1.642,-0.735 1.642,-1.64 0,-0.905 -0.738,-1.642 -1.642,-1.642 z m -0.15,8.408 c 0.905,0 1.643,-0.737 1.643,-1.64 0,-0.906 -0.737,-1.643 -1.644,-1.643 -0.905,0 -1.64,0.737 -1.64,1.643 0,0.903 0.735,1.64 1.64,1.64 z"
         id="path164"
         style="fill:#000000;fill-opacity:1" />
      <circle
         cx="47.831001"
         cy="27.733"
         r="1.641"
         id="circle166"
         style="fill:#000000;fill-opacity:1" />
      <circle
         cx="47.846001"
         cy="33"
         r="1.641"
         id="circle168"
         style="fill:#000000;fill-opacity:1" />
      <path
         d="m 44.374,31.897 c 0.906,0 1.644,-0.736 1.644,-1.64 0,-0.907 -0.737,-1.645 -1.644,-1.645 -0.903,0 -1.64,0.738 -1.64,1.644 0,0.906 0.737,1.64 1.64,1.64 z"
         id="path170"
         style="fill:#000000;fill-opacity:1" />
      <circle
         cx="44.638"
         cy="35.784"
         r="1.641"
         id="circle172"
         style="fill:#000000;fill-opacity:1" />
      <path
         d="m 40.71,34.913 c 0.907,0 1.645,-0.736 1.645,-1.64 0,-0.907 -0.737,-1.644 -1.644,-1.644 -0.903,0 -1.64,0.736 -1.64,1.642 0,0.905 0.737,1.64 1.64,1.64 z m 0.457,5.63 c 0.906,0 1.644,-0.736 1.644,-1.64 0,-0.906 -0.736,-1.642 -1.643,-1.642 -0.903,0 -1.64,0.737 -1.64,1.643 0,0.905 0.737,1.64 1.64,1.64 z"
         id="path174"
         style="fill:#000000;fill-opacity:1" />
      <circle
         cx="37.473999"
         cy="42.249001"
         r="1.642"
         id="circle176"
         style="fill:#000000;fill-opacity:1" />
      <path
         d="m 34.39,39.535 c 0,-0.906 -0.736,-1.644 -1.642,-1.644 -0.906,0 -1.64,0.738 -1.64,1.645 0,0.905 0.734,1.64 1.64,1.64 0.906,0 1.642,-0.735 1.642,-1.64 z m -4.924,-2.849 c 0,-0.906 -0.738,-1.644 -1.644,-1.644 -0.906,0 -1.64,0.737 -1.64,1.644 0,0.904 0.733,1.64 1.64,1.64 0.906,0 1.644,-0.736 1.644,-1.64 z m 2.884,-1.629 c 0.906,0 1.644,-0.736 1.644,-1.64 0,-0.906 -0.737,-1.644 -1.644,-1.644 -0.903,0 -1.64,0.737 -1.64,1.644 0,0.904 0.736,1.64 1.64,1.64 z m -4.82,-3.152 c 0.907,0 1.644,-0.736 1.644,-1.64 0,-0.905 -0.736,-1.642 -1.643,-1.642 -0.904,0 -1.64,0.737 -1.64,1.643 0.002,0.903 0.736,1.64 1.64,1.64 z m 9.324,6.002 c 0.906,0 1.644,-0.736 1.644,-1.64 0,-0.907 -0.737,-1.643 -1.644,-1.643 -0.904,0 -1.64,0.736 -1.64,1.642 0,0.905 0.736,1.64 1.64,1.64 z"
         id="path178"
         style="fill:#000000;fill-opacity:1" />
      <circle
         cx="28.643"
         cy="42.880001"
         r="1.642"
         id="circle180"
         style="fill:#000000;fill-opacity:1" />
      <path
         d="m 35.08,45.74 c 0,-0.906 -0.738,-1.644 -1.645,-1.644 -0.904,0 -1.64,0.737 -1.64,1.644 0,0.904 0.735,1.64 1.64,1.64 0.907,0 1.645,-0.735 1.645,-1.64 z M 55.317,32.9 c 0,-0.905 -0.737,-1.643 -1.643,-1.643 -0.903,0 -1.64,0.737 -1.64,1.644 0,0.905 0.736,1.64 1.64,1.64 0.906,0.002 1.643,-0.734 1.643,-1.64 z"
         id="path182"
         style="fill:#000000;fill-opacity:1" />
      <circle
         cx="56.250999"
         cy="35.584999"
         r="1.642"
         id="circle184"
         style="fill:#000000;fill-opacity:1" />
      <path
         d="m 55.167,38.69 c 0,-0.907 -0.737,-1.644 -1.644,-1.644 -0.903,0 -1.64,0.737 -1.64,1.643 0,0.904 0.736,1.64 1.64,1.64 0.907,0 1.644,-0.736 1.644,-1.64 z"
         id="path186"
         style="fill:#000000;fill-opacity:1" />
      <circle
         cx="50.799999"
         cy="41.959"
         r="1.642"
         id="circle188"
         style="fill:#000000;fill-opacity:1" />
      <circle
         cx="53.283001"
         cy="45.818001"
         r="1.642"
         id="circle190"
         style="fill:#000000;fill-opacity:1" />
      <circle
         cx="50.240002"
         cy="49.640999"
         r="1.642"
         id="circle192"
         style="fill:#000000;fill-opacity:1" />
      <path
         d="m 44.263,50.66 c 0.906,0 1.643,-0.735 1.643,-1.64 0,-0.906 -0.736,-1.643 -1.643,-1.643 -0.904,0 -1.64,0.737 -1.64,1.643 0,0.905 0.735,1.64 1.64,1.64 z m -2.337,-4.364 c 0.906,0 1.643,-0.736 1.643,-1.64 0,-0.906 -0.737,-1.642 -1.644,-1.642 -0.903,0 -1.642,0.735 -1.642,1.642 0,0.905 0.738,1.64 1.642,1.64 z"
         id="path194"
         style="fill:#000000;fill-opacity:1" />
      <circle
         cx="47.667"
         cy="45.370998"
         r="1.642"
         id="circle196"
         style="fill:#000000;fill-opacity:1" />
      <path
         d="m 46.77,41.287 c 0,-0.906 -0.737,-1.644 -1.642,-1.644 -0.905,0 -1.64,0.737 -1.64,1.644 0,0.905 0.734,1.64 1.64,1.64 0.904,0 1.642,-0.736 1.642,-1.64 z m 1.41,-1.34 c 0.906,0 1.643,-0.736 1.643,-1.64 0,-0.906 -0.736,-1.642 -1.643,-1.642 -0.904,0 -1.64,0.736 -1.64,1.642 0,0.904 0.735,1.64 1.64,1.64 z"
         id="path198"
         style="fill:#000000;fill-opacity:1" />
      <circle
         cx="51.047001"
         cy="35.481998"
         r="1.641"
         id="circle200"
         style="fill:#000000;fill-opacity:1" />
      <path
         d="m 39.997,48.042 c 0,-0.906 -0.736,-1.642 -1.643,-1.642 -0.903,0 -1.64,0.736 -1.64,1.642 0,0.905 0.736,1.64 1.64,1.64 0.907,0 1.643,-0.735 1.643,-1.64 z"
         id="path202"
         style="fill:#000000;fill-opacity:1" />
      <circle
         cx="40.799999"
         cy="53.068001"
         r="1.641"
         id="circle204"
         style="fill:#000000;fill-opacity:1" />
      <path
         d="m 34.854,50.232 c -0.903,0 -1.64,0.737 -1.64,1.643 0,0.903 0.736,1.64 1.64,1.64 0.906,0 1.644,-0.736 1.644,-1.64 0,-0.906 -0.737,-1.643 -1.644,-1.643 z M 46.98,52.1 c -0.905,0 -1.642,0.737 -1.642,1.644 0,0.903 0.736,1.64 1.64,1.64 0.907,0 1.643,-0.737 1.643,-1.64 0,-0.907 -0.735,-1.644 -1.64,-1.644 z"
         id="path206"
         style="fill:#000000;fill-opacity:1" />
      <circle
         cx="61.646999"
         cy="18.721001"
         r="1.642"
         id="circle208"
         style="fill:#000000;fill-opacity:1" />
      <path
         d="m 73.27,18.445 c 0,0.905 0.737,1.64 1.642,1.64 0.906,0 1.645,-0.735 1.645,-1.64 0,-0.906 -0.738,-1.642 -1.645,-1.642 -0.905,0 -1.64,0.737 -1.64,1.642 z"
         id="path210"
         style="fill:#000000;fill-opacity:1" />
      <circle
         cx="71.278"
         cy="21.809"
         r="1.642"
         id="circle212"
         style="fill:#000000;fill-opacity:1" />
      <path
         d="m 75.528,25.983 c 0.906,0 1.645,-0.736 1.645,-1.64 0,-0.907 -0.736,-1.645 -1.645,-1.645 -0.902,0 -1.64,0.738 -1.64,1.644 0.004,0.905 0.738,1.64 1.64,1.64 z"
         id="path214"
         style="fill:#000000;fill-opacity:1" />
      <circle
         cx="75.787003"
         cy="30.259001"
         r="1.642"
         id="circle216"
         style="fill:#000000;fill-opacity:1" />
      <circle
         cx="71.665001"
         cy="27.423"
         r="1.641"
         id="circle218"
         style="fill:#000000;fill-opacity:1" />
      <path
         d="m 67.862,26.532 c 0.906,0 1.645,-0.736 1.645,-1.64 0,-0.906 -0.736,-1.643 -1.645,-1.643 -0.902,0 -1.64,0.736 -1.64,1.64 0.002,0.906 0.738,1.642 1.64,1.642 z"
         id="path220"
         style="fill:#000000;fill-opacity:1" />
    </g>
  </g>
</svg>
